<mxfile host="app.diagrams.net" modified="2023-11-02T09:22:52.761Z" agent="Mozilla/5.0 (Windows NT 10.0; Win64; x64) AppleWebKit/537.36 (KHTML, like Gecko) Chrome/118.0.0.0 Whale/3.23.214.10 Safari/537.36" etag="ChyElr0gphtfEk5plx3G" version="22.0.8" type="github">
  <diagram name="페이지-1" id="yvfM14-lTbsYd5hGwklW">
    <mxGraphModel dx="1281" dy="-2627" grid="1" gridSize="10" guides="1" tooltips="1" connect="1" arrows="1" fold="1" page="1" pageScale="1" pageWidth="1169" pageHeight="827" math="0" shadow="0">
      <root>
        <mxCell id="0" />
        <mxCell id="1" parent="0" />
        <mxCell id="gUHsCTnRIOJ-MTFSnGW0-1" value="" style="rounded=0;whiteSpace=wrap;html=1;fillColor=none;strokeWidth=2;strokeColor=#000099;" parent="1" vertex="1">
          <mxGeometry x="160" y="3550" width="832.92" height="910" as="geometry" />
        </mxCell>
        <mxCell id="gUHsCTnRIOJ-MTFSnGW0-2" value="" style="rounded=0;whiteSpace=wrap;html=1;fillColor=none;strokeWidth=2;strokeColor=#000099;" parent="1" vertex="1">
          <mxGeometry x="325" y="3560" width="657.92" height="437.65" as="geometry" />
        </mxCell>
        <mxCell id="gUHsCTnRIOJ-MTFSnGW0-3" value="" style="rounded=0;whiteSpace=wrap;html=1;fillColor=none;" parent="1" vertex="1">
          <mxGeometry x="718.14" y="3740" width="250" height="120" as="geometry" />
        </mxCell>
        <mxCell id="gUHsCTnRIOJ-MTFSnGW0-4" value="" style="rounded=0;whiteSpace=wrap;html=1;fillColor=none;" parent="1" vertex="1">
          <mxGeometry x="171.04999999999998" y="3560" width="100" height="120" as="geometry" />
        </mxCell>
        <mxCell id="gUHsCTnRIOJ-MTFSnGW0-5" value="공공기관" style="rounded=0;whiteSpace=wrap;html=1;fillColor=#000075;fontColor=#ffffff;fontStyle=1;fontSize=16;" parent="1" vertex="1">
          <mxGeometry x="171.04999999999998" y="3560" width="100" height="30" as="geometry" />
        </mxCell>
        <mxCell id="gUHsCTnRIOJ-MTFSnGW0-6" value="이용자" style="shadow=0;dashed=0;html=1;strokeColor=none;fillColor=#4495D1;labelPosition=center;verticalLabelPosition=bottom;verticalAlign=top;align=center;outlineConnect=0;shape=mxgraph.veeam.company_user;aspect=fixed;" parent="1" vertex="1">
          <mxGeometry x="201.04999999999998" y="3604.0999999999995" width="40" height="40" as="geometry" />
        </mxCell>
        <mxCell id="gUHsCTnRIOJ-MTFSnGW0-7" value="" style="shape=flexArrow;endArrow=classic;html=1;rounded=0;fillColor=#000075;strokeColor=none;width=19;endSize=9.25234899328859;entryX=0.001;entryY=0.16;entryDx=0;entryDy=0;entryPerimeter=0;" parent="1" target="gUHsCTnRIOJ-MTFSnGW0-2" edge="1">
          <mxGeometry width="50" height="50" relative="1" as="geometry">
            <mxPoint x="270.91999999999996" y="3630" as="sourcePoint" />
            <mxPoint x="351.04999999999995" y="3629.8" as="targetPoint" />
            <Array as="points" />
          </mxGeometry>
        </mxCell>
        <mxCell id="gUHsCTnRIOJ-MTFSnGW0-8" value="" style="rounded=0;whiteSpace=wrap;html=1;fillColor=none;" parent="1" vertex="1">
          <mxGeometry x="342.91999999999996" y="3740" width="280" height="240" as="geometry" />
        </mxCell>
        <mxCell id="gUHsCTnRIOJ-MTFSnGW0-9" value="Main Zone" style="rounded=0;whiteSpace=wrap;html=1;fillColor=#000075;fontColor=#ffffff;fontStyle=1;fontSize=16;" parent="1" vertex="1">
          <mxGeometry x="342.91999999999996" y="3740" width="280" height="30" as="geometry" />
        </mxCell>
        <mxCell id="gUHsCTnRIOJ-MTFSnGW0-10" value="관리서버#1" style="shape=image;verticalLabelPosition=top;labelBackgroundColor=none;verticalAlign=bottom;imageAspect=0;image=data:image/png,iVBORw0KGgoAAAANSUhEUgAAADEAAABBCAYAAAB4vkzdAAAAAXNSR0IArs4c6QAAAARnQU1BAACxjwv8YQUAAAAJcEhZcwAAFxEAABcRAcom8z8AABAISURBVGhD3Vr5W1RXts3/1d3pTr+0Q8wLJmocYhyjcWhHjE00toqKrQZiiCYaHEERFVSmKCDIDMqMzCBDAQUyyDwPu9falwtFWVWUgO+Hd75vf1Ui3LvWHtbZ+9z7gfw/WP8nJIaGBqW+vk4aGuqls7NDRkaGJ/5nftZ7J1FXVyOBgcGybt23smnTTjl9+icJCXkoqamZUlxcrOQ6OtplbGxk4i/efb03Ej09XZKQkCDbt3vKV1/tl59+CpFLlx7JiRNXZO/eU7Jq1T/ls8/Wy44d34mPj58EB4dKYmKKZGVlS01NtXR3d05caeb1XkgUFOSJn99FgNwghw/7S0REsrx+3S69vT1IqRbJzy+RmJg0uXUrBuQC5cgRX9myxUtJLVy4EsQPyJkz/vj/+xIXFy8vXmRLbW0N/r574g7T17ySYGrcvh0sGzfulg0bvCQo6ImUllbJwEAfItMtb968gYe7AaZXBgf71ZhKBJiVVQBiqfibKPH1vSoHDvjImjW7ZMGCFbJ06UbZtcsLxM4jNe8gFTMm7miseSExPj4mjx9Hw+s+4uGxBXl/RdLS8gG6U/r6eqW9vd2pdXV1gWCP9Pf3oeCHQKwPf9cuVVW1kpGRi+smyc2bYXLq1M+ye/e/kYbbkJ7bJTPzOepoTO8/ZxIlJcVInQvw/AHZv99XoqPTUcz1ANULL3cAaNtbwJ1ZW5vxuyTG1BsY6Jfh4UFcqwc/b5HCwnLx9w9ChHaIt7e3EueaNYnu7i65ciUARfpvXPSABAQ8xE0qAKBTAdgDfDcjGYMQU5CyXFhYitpKQQ3dkq+/3i5eXl6KgWtWJBITn8nBg8eQ+/9CUV6S5OR8FGwjLtqLm3bBo50AMHdjJBsbmyUpKQ+yHAunRSHqgZDrHXLo0OHZkbBaGyGHp6EkB2XnTh958CAVuWuR1tYWtaam5nmx5ubXcEQXRKFOoqLSoVKxcufOUxCJl/Png2ZHgrl579492bbNE+Yt587dhkxWQjY7cMNWqJIVddA4Z7NYGvVaFks9irpEwsKSoFYx2EPilACJvDOJ4eEhaH6B7NnjidT5Tr7//gJkMAc3oddbEerXuDkJzN0slia18vJaFQcCvn3biIAZhfv3n8nPP7Mm3CIxDpBW+fXX3yFnO8XT008uXw6FElXDU83IfwN8bS096BiUu2axWHHNJqmubpTs7DJ4P1HBm9437e7dBAkNTbQhccg5iY6ON9gln6LP2Y68Pyk//hgMTS4FYONmNTWNuGHDvBidwGuWldVKfHyuAiUBEzjTybQHD5L10yRx+PCRt0mws3z58iX096ysXLkLn9cR1gwFTe/zho6AzNZ4vVevGrBTl8LDSQqanjY8PgXelsTDhykTNbFTjh71AYkexa4kqDpBQSHy5Zdbofs/yu+/R0peXpXmKMNcVVU/b0bgTKHSUno/B5430sYeNImQFL8TfHh4KpyaqZF4i0R/fz+03lvWrt0HDb6LzjMHN6PXG1FkdQj1/Fl5uQWfFs39P/7IRMEauT4dvAH80aMUWCrAp+F3n8uTJy8mSaxf/8/pJKzWJlm9ertcuHAPHmqBZLYp+IKCKqRXtWq1AcAwe2DuWmVlvV4vISHXYc5PgZ8C/vjxCzXzO0mw612z5pvpJBobG9H3eEINYvQHg4PDKO5upFibRoRFV1j4Sq2oqGaSzExmgqf3Kyrq5fnzUgVBubT3Po3pEhGRPgmYn9ONJJ7Lb7/dkWXLvkb2nLInsR818RjFbXSF5hoaGkEv1ItN7Q3Sq0mJMEL8pFdJypkVF9cAvAWyXIc2JQ8an+jU+xERU563B0/i5venT3O1o122bIOSYPfL5ZKE7RoeHgXzPu2L6upeK4nc3EoIQCV27yqQe4VPw/i9sLAaw0yZgqDm37v3tvcJPjIyYxpo0+h1fsbF5YDcc5XgpKRCuXFjDiRs18jIKOaEAaRdD+S3Vb3OdCEhgmeknj3LV4Vh38Od1p5AZKSr1DG8Hh+fhygWoI7ylAC/zxsJ2zU6OobeahBp14c6ateo0MNMHcqnmTKmUe+deZ+E6HGCJuCkpILJT5IwIhEqK1asA4mT7tXEu67x8XH0U20TBGKnESD4qKiMaTluT8AevK1NkQiT5ctdRIJe5WLecy5gHbzramnpUPD37k2lkEnAFXimnz1wW7Ml4TKdxsbG1ZuxsSly8uQNlcOCgkoMKF1ImSH9v5kWlYwkzDowCDj3/pMnWW4RSE5+CTPSaenS1fLDDyddk4iOTpLvvruADeWynDlzE93sA9yUh13VGqH+/qHJId1c5r/NSJgk2DI4SiF3wZtGEpwxSMLDY5VzEqOjhqep7deuRWFjCcU2f187WfZTVBp6lh4pLa3RCPX3D6pajY2NqgOamtoUPEmwdXBEICbGNQFb8CaBlJQid0g80ZpgxnR28pyoXye33NwKhD0DqWU0alScR4+4OVFJ8lRWh4aGNRKjo6Pa9RL8gwcpb4E3CGQ7BG6aPYGUFCMCHAdmJHHrVpSmEy0uLgs74xNcoBBdpxVSxkOubt212TqnphaiGPNROzmSnl6MVmVICYyMjCgJthD2hWxGxFkEHIE3CbhBwoqucB/SJWQiEuPQ+aeY5vzFy+tXpNId7XXS0l4CoFV6e0moS6W0spKdbv0kieHhYackYmOzdfd1h0RqqpE6tjYjiXXr9umwMTxsnEzzkIrHIz4+N+TUqety7lywXLwYptGJjc3SFGtoaEXa9WjaDQ0NqTkjQRUygdqDN3/uigBtxnRau3YnCjhIGz5GgqlDFWL3mZKSD4VJ1v4nMDBGZZftRFxcrl60rKxed+zBwQF8DkzWhEnCVRrZgndFgGaSYAPoUGK/+upbJUGVIQmmTkhIHFQhH6CatcDZmpeU1GidsBbo3adP83DhYqRYH0jwuLFfx04Cpxm/k6OtxEwE0tKKp4G2N5JITzcisWTJMpA4YU9i2zQSlMADBy7KsWMBkNpoeDYZBV0GgM2IEHfzbi149kkcY3t6etEQ9qmRBBXIJJGYmK8g50KA9vx5meTkVCASobJwoYc9CatG4vz561oTLO7s7HI5ezYIRX0bk9RdCQiIUAmm/sfFvdBWu7a2SSPEeYMX45E9P5lO3MiYQmYXam+2BKhujkDbG0lwlgkMDJNFi5Y6I3FVc5ua39PTp4djubnlWsjcuKYmMqON4IbHC1dWNugpNuuoq4sRqtd5mCQYBVcEaI4A21tmZgkibswpM5Lo7x+YUBruwsOa4319/WgIO1DkdbhYscokwTEFWIhMqc7OLk0x7uA80WA6ch6wJ2BPgjnuCLStcU7h8MXs4L3cJsFzf+OJTg+sV41keOpNQnV1PG606HTHPDXrhIfAJMFIOOqNbAkwko5A2xojTQKcEM2JcUYSVBkWJ9PCNAKjtbfT05Rew+P8WWtrpx6s8ZP/Z5JgJLij2xKwJ+EItL3RQQYBzvXVNiScFvZV/JBe5xxtgHTHTEKmOSNhS8DsSF0ZwdtGwBh7q6FO96FOi+TwYW/Fa0Nim5Jgbnd0MGWmA3sXc4eEI9DTrRhRqFTwppEAz8CCgx++fxI8ppkriaysct2XzCjQeAzE08Pw8BhZvPiT90PCTCuesc6FBOXUPgokQCHhKSJJLFiwUA4dckKio4PPyd6dhFnw/O6IhC0BV/0Rzdj8iqdFgWnEPo4P8qOjY+Sjjz4CieOOSFwDkA6Q6HkLpCMz1YrfrdZW3Rz5nTd0RcIRcNMYhezsClUlkwDJMAo830pLy5E9e/aAxAKo01HbIxurrFnzrZw+/ase5Xd28gkoH+FOgXQGvLGxRZ8asV/iQxh+LylxHQlH4E0jiYICQ4VMEpxX2KcFB4fA2evlz39eALybILWBuqdNkqDEHjt2HqF+ic3F0GQe7RMoc91MFRO07eMumvnoit+ZTtzknj2bXT3YSmpxsUVnl6NHj6OYF8vf/rZEdu3yxCgQJi0tLUqAa5LE8eM/4yYFmrO8sZG7xdqlVlU1KHAex5iAnRlJcDeeC4miolp0AzXo056o95k+nCFOn/bF3vECPV7/BHxjTZLw9vZXWeMGw+Iye6O0NJLhQGJoN1sN43HVFHA++bElQbCzIcE2g97Pzi4F4PPw/qcg8Il8880uuX07BJnQoKOC/ZpGgl0rw8ht3pwV6B3egMRoHE7M3ZQHx3wGwdQjsZqaBvx7dpHIyqKs1qD7TZUtW7YB/McYflYhlU7gGonaDjlbkyROnPBHGF+plJGIaYZCGKRMY92QHAmxyzQJsaiLiqoVuLskMjM57LzCZ7FcvnwTwD3k44+XyPr12+Xq1etI5crJgzlna5LEf/7jDyWo1bbB/mmPLSlbsyXGfp/pQGA82bDtYG1J2A5BL15wZ66QyMgE2bfvX/KXv/xdPv10hRw8eAQt/1PtpN1Z00iYuW4+pjXIWN4yV+SYgq4OBRITGY1SeL8K3/Pl0qXr8sUXy+XDD/8O6dwqv/xyEXX3ckbv265JEmfPXpjYtNomZdRiadY8N0mZxv7ImZGEs1mCBCgYeXnVmA6T4fGj8te//g8K+AvZu/d7RCRymnS6uz7gKz70ANWAJ9+csc3Wg3NCY6OxqdkaidE4HHGD5P5g/oy14YxEZmY5UqhSbty4Kxs3bkX6/ENWrlwvZ874gliuniDOZn3AF6M8PNbKtm370ZfEIZRlIMBXPMdx0THkJcdTEprauRktq7VF6qoapaKoThrq2qS5+Y1G0tmOTfA80z1+/ByGmiUo3k/0hcWQkLuIev0EnNmtD5h7AQE3ZcWKDQitBzy0V86d85f798Nx4xyAboM28+heMDDxOR128PYesb5uleup1+RB3kVJL4kVS229tLd1a0rZkuAAlJlZAZ0Pl82bd8if/vSRblze3mfw8wyX0unu0tcieCz/7FmyXLhwWbf1xYtXoND+V1av3gqdPgnpuyIpKcn6Ypa5evsGJKosQo4Ub5ZN6Qvkj+xoaW3pREpZlQTTKT29FEQKxcfHVz7/fBWcxI1rp1y7dgOpWDtxpbmvaW/Z8JTDYqkD4DS5fj1IPD29sOkshvcWgtAmFOIP4ufnD/mLlZbXBqHSvjKJa4uW6ja+kNsLEo16QpicXCR37vwhO3bsReosgmOW6wwQHx+P2d39F3fdWW+9KmQuHtnQW76+fhohvk/x4YeLUIyLIImrsKvuQJROSWxUnHRYp0Cxdnh06ed3WZYvp/cXQP2+kd9+C8BQU6Gn5/O9nJLgYr1ERETAu/VofcP1DbSwsHCkxxn58st1iNKnEIUVsnbtRmxW+/QVu9TUNNm9+yDm4M9gyzSaERGRqKU3E1ed/+WSBE+5w8PDVWZ5HuvtfQLFzeP8HvT4NUirBMjjOVm3bitGxqVoGT6H99foWenKlZsQjV+wm+dP9v3va81I4tGjR7rphYYmYOaYeqHWXHwm8Rr1kZ6eoam3efMeyDWjch/K1jrxW+9zifwXMuX2k4SuPWQAAAAASUVORK5CYII=;fontSize=10;labelPosition=center;align=center;" parent="1" vertex="1">
          <mxGeometry x="392.91999999999996" y="3800" width="40" height="40" as="geometry" />
        </mxCell>
        <mxCell id="gUHsCTnRIOJ-MTFSnGW0-11" value="관리서버#2" style="shape=image;verticalLabelPosition=top;labelBackgroundColor=none;verticalAlign=bottom;imageAspect=0;image=data:image/png,iVBORw0KGgoAAAANSUhEUgAAADEAAABBCAYAAAB4vkzdAAAAAXNSR0IArs4c6QAAAARnQU1BAACxjwv8YQUAAAAJcEhZcwAAFxEAABcRAcom8z8AABAISURBVGhD3Vr5W1RXts3/1d3pTr+0Q8wLJmocYhyjcWhHjE00toqKrQZiiCYaHEERFVSmKCDIDMqMzCBDAQUyyDwPu9falwtFWVWUgO+Hd75vf1Ui3LvWHtbZ+9z7gfw/WP8nJIaGBqW+vk4aGuqls7NDRkaGJ/5nftZ7J1FXVyOBgcGybt23smnTTjl9+icJCXkoqamZUlxcrOQ6OtplbGxk4i/efb03Ej09XZKQkCDbt3vKV1/tl59+CpFLlx7JiRNXZO/eU7Jq1T/ls8/Wy44d34mPj58EB4dKYmKKZGVlS01NtXR3d05caeb1XkgUFOSJn99FgNwghw/7S0REsrx+3S69vT1IqRbJzy+RmJg0uXUrBuQC5cgRX9myxUtJLVy4EsQPyJkz/vj/+xIXFy8vXmRLbW0N/r574g7T17ySYGrcvh0sGzfulg0bvCQo6ImUllbJwEAfItMtb968gYe7AaZXBgf71ZhKBJiVVQBiqfibKPH1vSoHDvjImjW7ZMGCFbJ06UbZtcsLxM4jNe8gFTMm7miseSExPj4mjx9Hw+s+4uGxBXl/RdLS8gG6U/r6eqW9vd2pdXV1gWCP9Pf3oeCHQKwPf9cuVVW1kpGRi+smyc2bYXLq1M+ye/e/kYbbkJ7bJTPzOepoTO8/ZxIlJcVInQvw/AHZv99XoqPTUcz1ANULL3cAaNtbwJ1ZW5vxuyTG1BsY6Jfh4UFcqwc/b5HCwnLx9w9ChHaIt7e3EueaNYnu7i65ciUARfpvXPSABAQ8xE0qAKBTAdgDfDcjGYMQU5CyXFhYitpKQQ3dkq+/3i5eXl6KgWtWJBITn8nBg8eQ+/9CUV6S5OR8FGwjLtqLm3bBo50AMHdjJBsbmyUpKQ+yHAunRSHqgZDrHXLo0OHZkbBaGyGHp6EkB2XnTh958CAVuWuR1tYWtaam5nmx5ubXcEQXRKFOoqLSoVKxcufOUxCJl/Png2ZHgrl579492bbNE+Yt587dhkxWQjY7cMNWqJIVddA4Z7NYGvVaFks9irpEwsKSoFYx2EPilACJvDOJ4eEhaH6B7NnjidT5Tr7//gJkMAc3oddbEerXuDkJzN0slia18vJaFQcCvn3biIAZhfv3n8nPP7Mm3CIxDpBW+fXX3yFnO8XT008uXw6FElXDU83IfwN8bS096BiUu2axWHHNJqmubpTs7DJ4P1HBm9437e7dBAkNTbQhccg5iY6ON9gln6LP2Y68Pyk//hgMTS4FYONmNTWNuGHDvBidwGuWldVKfHyuAiUBEzjTybQHD5L10yRx+PCRt0mws3z58iX096ysXLkLn9cR1gwFTe/zho6AzNZ4vVevGrBTl8LDSQqanjY8PgXelsTDhykTNbFTjh71AYkexa4kqDpBQSHy5Zdbofs/yu+/R0peXpXmKMNcVVU/b0bgTKHSUno/B5430sYeNImQFL8TfHh4KpyaqZF4i0R/fz+03lvWrt0HDb6LzjMHN6PXG1FkdQj1/Fl5uQWfFs39P/7IRMEauT4dvAH80aMUWCrAp+F3n8uTJy8mSaxf/8/pJKzWJlm9ertcuHAPHmqBZLYp+IKCKqRXtWq1AcAwe2DuWmVlvV4vISHXYc5PgZ8C/vjxCzXzO0mw612z5pvpJBobG9H3eEINYvQHg4PDKO5upFibRoRFV1j4Sq2oqGaSzExmgqf3Kyrq5fnzUgVBubT3Po3pEhGRPgmYn9ONJJ7Lb7/dkWXLvkb2nLInsR818RjFbXSF5hoaGkEv1ItN7Q3Sq0mJMEL8pFdJypkVF9cAvAWyXIc2JQ8an+jU+xERU563B0/i5venT3O1o122bIOSYPfL5ZKE7RoeHgXzPu2L6upeK4nc3EoIQCV27yqQe4VPw/i9sLAaw0yZgqDm37v3tvcJPjIyYxpo0+h1fsbF5YDcc5XgpKRCuXFjDiRs18jIKOaEAaRdD+S3Vb3OdCEhgmeknj3LV4Vh38Od1p5AZKSr1DG8Hh+fhygWoI7ylAC/zxsJ2zU6OobeahBp14c6ateo0MNMHcqnmTKmUe+deZ+E6HGCJuCkpILJT5IwIhEqK1asA4mT7tXEu67x8XH0U20TBGKnESD4qKiMaTluT8AevK1NkQiT5ctdRIJe5WLecy5gHbzramnpUPD37k2lkEnAFXimnz1wW7Ml4TKdxsbG1ZuxsSly8uQNlcOCgkoMKF1ImSH9v5kWlYwkzDowCDj3/pMnWW4RSE5+CTPSaenS1fLDDyddk4iOTpLvvruADeWynDlzE93sA9yUh13VGqH+/qHJId1c5r/NSJgk2DI4SiF3wZtGEpwxSMLDY5VzEqOjhqep7deuRWFjCcU2f187WfZTVBp6lh4pLa3RCPX3D6pajY2NqgOamtoUPEmwdXBEICbGNQFb8CaBlJQid0g80ZpgxnR28pyoXye33NwKhD0DqWU0alScR4+4OVFJ8lRWh4aGNRKjo6Pa9RL8gwcpb4E3CGQ7BG6aPYGUFCMCHAdmJHHrVpSmEy0uLgs74xNcoBBdpxVSxkOubt212TqnphaiGPNROzmSnl6MVmVICYyMjCgJthD2hWxGxFkEHIE3CbhBwoqucB/SJWQiEuPQ+aeY5vzFy+tXpNId7XXS0l4CoFV6e0moS6W0spKdbv0kieHhYackYmOzdfd1h0RqqpE6tjYjiXXr9umwMTxsnEzzkIrHIz4+N+TUqety7lywXLwYptGJjc3SFGtoaEXa9WjaDQ0NqTkjQRUygdqDN3/uigBtxnRau3YnCjhIGz5GgqlDFWL3mZKSD4VJ1v4nMDBGZZftRFxcrl60rKxed+zBwQF8DkzWhEnCVRrZgndFgGaSYAPoUGK/+upbJUGVIQmmTkhIHFQhH6CatcDZmpeU1GidsBbo3adP83DhYqRYH0jwuLFfx04Cpxm/k6OtxEwE0tKKp4G2N5JITzcisWTJMpA4YU9i2zQSlMADBy7KsWMBkNpoeDYZBV0GgM2IEHfzbi149kkcY3t6etEQ9qmRBBXIJJGYmK8g50KA9vx5meTkVCASobJwoYc9CatG4vz561oTLO7s7HI5ezYIRX0bk9RdCQiIUAmm/sfFvdBWu7a2SSPEeYMX45E9P5lO3MiYQmYXam+2BKhujkDbG0lwlgkMDJNFi5Y6I3FVc5ua39PTp4djubnlWsjcuKYmMqON4IbHC1dWNugpNuuoq4sRqtd5mCQYBVcEaI4A21tmZgkibswpM5Lo7x+YUBruwsOa4319/WgIO1DkdbhYscokwTEFWIhMqc7OLk0x7uA80WA6ch6wJ2BPgjnuCLStcU7h8MXs4L3cJsFzf+OJTg+sV41keOpNQnV1PG606HTHPDXrhIfAJMFIOOqNbAkwko5A2xojTQKcEM2JcUYSVBkWJ9PCNAKjtbfT05Rew+P8WWtrpx6s8ZP/Z5JgJLij2xKwJ+EItL3RQQYBzvXVNiScFvZV/JBe5xxtgHTHTEKmOSNhS8DsSF0ZwdtGwBh7q6FO96FOi+TwYW/Fa0Nim5Jgbnd0MGWmA3sXc4eEI9DTrRhRqFTwppEAz8CCgx++fxI8ppkriaysct2XzCjQeAzE08Pw8BhZvPiT90PCTCuesc6FBOXUPgokQCHhKSJJLFiwUA4dckKio4PPyd6dhFnw/O6IhC0BV/0Rzdj8iqdFgWnEPo4P8qOjY+Sjjz4CieOOSFwDkA6Q6HkLpCMz1YrfrdZW3Rz5nTd0RcIRcNMYhezsClUlkwDJMAo830pLy5E9e/aAxAKo01HbIxurrFnzrZw+/ase5Xd28gkoH+FOgXQGvLGxRZ8asV/iQxh+LylxHQlH4E0jiYICQ4VMEpxX2KcFB4fA2evlz39eALybILWBuqdNkqDEHjt2HqF+ic3F0GQe7RMoc91MFRO07eMumvnoit+ZTtzknj2bXT3YSmpxsUVnl6NHj6OYF8vf/rZEdu3yxCgQJi0tLUqAa5LE8eM/4yYFmrO8sZG7xdqlVlU1KHAex5iAnRlJcDeeC4miolp0AzXo056o95k+nCFOn/bF3vECPV7/BHxjTZLw9vZXWeMGw+Iye6O0NJLhQGJoN1sN43HVFHA++bElQbCzIcE2g97Pzi4F4PPw/qcg8Il8880uuX07BJnQoKOC/ZpGgl0rw8ht3pwV6B3egMRoHE7M3ZQHx3wGwdQjsZqaBvx7dpHIyqKs1qD7TZUtW7YB/McYflYhlU7gGonaDjlbkyROnPBHGF+plJGIaYZCGKRMY92QHAmxyzQJsaiLiqoVuLskMjM57LzCZ7FcvnwTwD3k44+XyPr12+Xq1etI5crJgzlna5LEf/7jDyWo1bbB/mmPLSlbsyXGfp/pQGA82bDtYG1J2A5BL15wZ66QyMgE2bfvX/KXv/xdPv10hRw8eAQt/1PtpN1Z00iYuW4+pjXIWN4yV+SYgq4OBRITGY1SeL8K3/Pl0qXr8sUXy+XDD/8O6dwqv/xyEXX3ckbv265JEmfPXpjYtNomZdRiadY8N0mZxv7ImZGEs1mCBCgYeXnVmA6T4fGj8te//g8K+AvZu/d7RCRymnS6uz7gKz70ANWAJ9+csc3Wg3NCY6OxqdkaidE4HHGD5P5g/oy14YxEZmY5UqhSbty4Kxs3bkX6/ENWrlwvZ874gliuniDOZn3AF6M8PNbKtm370ZfEIZRlIMBXPMdx0THkJcdTEprauRktq7VF6qoapaKoThrq2qS5+Y1G0tmOTfA80z1+/ByGmiUo3k/0hcWQkLuIev0EnNmtD5h7AQE3ZcWKDQitBzy0V86d85f798Nx4xyAboM28+heMDDxOR128PYesb5uleup1+RB3kVJL4kVS229tLd1a0rZkuAAlJlZAZ0Pl82bd8if/vSRblze3mfw8wyX0unu0tcieCz/7FmyXLhwWbf1xYtXoND+V1av3gqdPgnpuyIpKcn6Ypa5evsGJKosQo4Ub5ZN6Qvkj+xoaW3pREpZlQTTKT29FEQKxcfHVz7/fBWcxI1rp1y7dgOpWDtxpbmvaW/Z8JTDYqkD4DS5fj1IPD29sOkshvcWgtAmFOIP4ufnD/mLlZbXBqHSvjKJa4uW6ja+kNsLEo16QpicXCR37vwhO3bsReosgmOW6wwQHx+P2d39F3fdWW+9KmQuHtnQW76+fhohvk/x4YeLUIyLIImrsKvuQJROSWxUnHRYp0Cxdnh06ed3WZYvp/cXQP2+kd9+C8BQU6Gn5/O9nJLgYr1ERETAu/VofcP1DbSwsHCkxxn58st1iNKnEIUVsnbtRmxW+/QVu9TUNNm9+yDm4M9gyzSaERGRqKU3E1ed/+WSBE+5w8PDVWZ5HuvtfQLFzeP8HvT4NUirBMjjOVm3bitGxqVoGT6H99foWenKlZsQjV+wm+dP9v3va81I4tGjR7rphYYmYOaYeqHWXHwm8Rr1kZ6eoam3efMeyDWjch/K1jrxW+9zifwXMuX2k4SuPWQAAAAASUVORK5CYII=;fontSize=10;labelPosition=center;align=center;" parent="1" vertex="1">
          <mxGeometry x="462.91999999999996" y="3800" width="40" height="40" as="geometry" />
        </mxCell>
        <mxCell id="gUHsCTnRIOJ-MTFSnGW0-12" value="관리서버#3" style="shape=image;verticalLabelPosition=top;labelBackgroundColor=none;verticalAlign=bottom;imageAspect=0;image=data:image/png,iVBORw0KGgoAAAANSUhEUgAAADEAAABBCAYAAAB4vkzdAAAAAXNSR0IArs4c6QAAAARnQU1BAACxjwv8YQUAAAAJcEhZcwAAFxEAABcRAcom8z8AABAISURBVGhD3Vr5W1RXts3/1d3pTr+0Q8wLJmocYhyjcWhHjE00toqKrQZiiCYaHEERFVSmKCDIDMqMzCBDAQUyyDwPu9falwtFWVWUgO+Hd75vf1Ui3LvWHtbZ+9z7gfw/WP8nJIaGBqW+vk4aGuqls7NDRkaGJ/5nftZ7J1FXVyOBgcGybt23smnTTjl9+icJCXkoqamZUlxcrOQ6OtplbGxk4i/efb03Ej09XZKQkCDbt3vKV1/tl59+CpFLlx7JiRNXZO/eU7Jq1T/ls8/Wy44d34mPj58EB4dKYmKKZGVlS01NtXR3d05caeb1XkgUFOSJn99FgNwghw/7S0REsrx+3S69vT1IqRbJzy+RmJg0uXUrBuQC5cgRX9myxUtJLVy4EsQPyJkz/vj/+xIXFy8vXmRLbW0N/r574g7T17ySYGrcvh0sGzfulg0bvCQo6ImUllbJwEAfItMtb968gYe7AaZXBgf71ZhKBJiVVQBiqfibKPH1vSoHDvjImjW7ZMGCFbJ06UbZtcsLxM4jNe8gFTMm7miseSExPj4mjx9Hw+s+4uGxBXl/RdLS8gG6U/r6eqW9vd2pdXV1gWCP9Pf3oeCHQKwPf9cuVVW1kpGRi+smyc2bYXLq1M+ye/e/kYbbkJ7bJTPzOepoTO8/ZxIlJcVInQvw/AHZv99XoqPTUcz1ANULL3cAaNtbwJ1ZW5vxuyTG1BsY6Jfh4UFcqwc/b5HCwnLx9w9ChHaIt7e3EueaNYnu7i65ciUARfpvXPSABAQ8xE0qAKBTAdgDfDcjGYMQU5CyXFhYitpKQQ3dkq+/3i5eXl6KgWtWJBITn8nBg8eQ+/9CUV6S5OR8FGwjLtqLm3bBo50AMHdjJBsbmyUpKQ+yHAunRSHqgZDrHXLo0OHZkbBaGyGHp6EkB2XnTh958CAVuWuR1tYWtaam5nmx5ubXcEQXRKFOoqLSoVKxcufOUxCJl/Png2ZHgrl579492bbNE+Yt587dhkxWQjY7cMNWqJIVddA4Z7NYGvVaFks9irpEwsKSoFYx2EPilACJvDOJ4eEhaH6B7NnjidT5Tr7//gJkMAc3oddbEerXuDkJzN0slia18vJaFQcCvn3biIAZhfv3n8nPP7Mm3CIxDpBW+fXX3yFnO8XT008uXw6FElXDU83IfwN8bS096BiUu2axWHHNJqmubpTs7DJ4P1HBm9437e7dBAkNTbQhccg5iY6ON9gln6LP2Y68Pyk//hgMTS4FYONmNTWNuGHDvBidwGuWldVKfHyuAiUBEzjTybQHD5L10yRx+PCRt0mws3z58iX096ysXLkLn9cR1gwFTe/zho6AzNZ4vVevGrBTl8LDSQqanjY8PgXelsTDhykTNbFTjh71AYkexa4kqDpBQSHy5Zdbofs/yu+/R0peXpXmKMNcVVU/b0bgTKHSUno/B5430sYeNImQFL8TfHh4KpyaqZF4i0R/fz+03lvWrt0HDb6LzjMHN6PXG1FkdQj1/Fl5uQWfFs39P/7IRMEauT4dvAH80aMUWCrAp+F3n8uTJy8mSaxf/8/pJKzWJlm9ertcuHAPHmqBZLYp+IKCKqRXtWq1AcAwe2DuWmVlvV4vISHXYc5PgZ8C/vjxCzXzO0mw612z5pvpJBobG9H3eEINYvQHg4PDKO5upFibRoRFV1j4Sq2oqGaSzExmgqf3Kyrq5fnzUgVBubT3Po3pEhGRPgmYn9ONJJ7Lb7/dkWXLvkb2nLInsR818RjFbXSF5hoaGkEv1ItN7Q3Sq0mJMEL8pFdJypkVF9cAvAWyXIc2JQ8an+jU+xERU563B0/i5venT3O1o122bIOSYPfL5ZKE7RoeHgXzPu2L6upeK4nc3EoIQCV27yqQe4VPw/i9sLAaw0yZgqDm37v3tvcJPjIyYxpo0+h1fsbF5YDcc5XgpKRCuXFjDiRs18jIKOaEAaRdD+S3Vb3OdCEhgmeknj3LV4Vh38Od1p5AZKSr1DG8Hh+fhygWoI7ylAC/zxsJ2zU6OobeahBp14c6ateo0MNMHcqnmTKmUe+deZ+E6HGCJuCkpILJT5IwIhEqK1asA4mT7tXEu67x8XH0U20TBGKnESD4qKiMaTluT8AevK1NkQiT5ctdRIJe5WLecy5gHbzramnpUPD37k2lkEnAFXimnz1wW7Ml4TKdxsbG1ZuxsSly8uQNlcOCgkoMKF1ImSH9v5kWlYwkzDowCDj3/pMnWW4RSE5+CTPSaenS1fLDDyddk4iOTpLvvruADeWynDlzE93sA9yUh13VGqH+/qHJId1c5r/NSJgk2DI4SiF3wZtGEpwxSMLDY5VzEqOjhqep7deuRWFjCcU2f187WfZTVBp6lh4pLa3RCPX3D6pajY2NqgOamtoUPEmwdXBEICbGNQFb8CaBlJQid0g80ZpgxnR28pyoXye33NwKhD0DqWU0alScR4+4OVFJ8lRWh4aGNRKjo6Pa9RL8gwcpb4E3CGQ7BG6aPYGUFCMCHAdmJHHrVpSmEy0uLgs74xNcoBBdpxVSxkOubt212TqnphaiGPNROzmSnl6MVmVICYyMjCgJthD2hWxGxFkEHIE3CbhBwoqucB/SJWQiEuPQ+aeY5vzFy+tXpNId7XXS0l4CoFV6e0moS6W0spKdbv0kieHhYackYmOzdfd1h0RqqpE6tjYjiXXr9umwMTxsnEzzkIrHIz4+N+TUqety7lywXLwYptGJjc3SFGtoaEXa9WjaDQ0NqTkjQRUygdqDN3/uigBtxnRau3YnCjhIGz5GgqlDFWL3mZKSD4VJ1v4nMDBGZZftRFxcrl60rKxed+zBwQF8DkzWhEnCVRrZgndFgGaSYAPoUGK/+upbJUGVIQmmTkhIHFQhH6CatcDZmpeU1GidsBbo3adP83DhYqRYH0jwuLFfx04Cpxm/k6OtxEwE0tKKp4G2N5JITzcisWTJMpA4YU9i2zQSlMADBy7KsWMBkNpoeDYZBV0GgM2IEHfzbi149kkcY3t6etEQ9qmRBBXIJJGYmK8g50KA9vx5meTkVCASobJwoYc9CatG4vz561oTLO7s7HI5ezYIRX0bk9RdCQiIUAmm/sfFvdBWu7a2SSPEeYMX45E9P5lO3MiYQmYXam+2BKhujkDbG0lwlgkMDJNFi5Y6I3FVc5ua39PTp4djubnlWsjcuKYmMqON4IbHC1dWNugpNuuoq4sRqtd5mCQYBVcEaI4A21tmZgkibswpM5Lo7x+YUBruwsOa4319/WgIO1DkdbhYscokwTEFWIhMqc7OLk0x7uA80WA6ch6wJ2BPgjnuCLStcU7h8MXs4L3cJsFzf+OJTg+sV41keOpNQnV1PG606HTHPDXrhIfAJMFIOOqNbAkwko5A2xojTQKcEM2JcUYSVBkWJ9PCNAKjtbfT05Rew+P8WWtrpx6s8ZP/Z5JgJLij2xKwJ+EItL3RQQYBzvXVNiScFvZV/JBe5xxtgHTHTEKmOSNhS8DsSF0ZwdtGwBh7q6FO96FOi+TwYW/Fa0Nim5Jgbnd0MGWmA3sXc4eEI9DTrRhRqFTwppEAz8CCgx++fxI8ppkriaysct2XzCjQeAzE08Pw8BhZvPiT90PCTCuesc6FBOXUPgokQCHhKSJJLFiwUA4dckKio4PPyd6dhFnw/O6IhC0BV/0Rzdj8iqdFgWnEPo4P8qOjY+Sjjz4CieOOSFwDkA6Q6HkLpCMz1YrfrdZW3Rz5nTd0RcIRcNMYhezsClUlkwDJMAo830pLy5E9e/aAxAKo01HbIxurrFnzrZw+/ase5Xd28gkoH+FOgXQGvLGxRZ8asV/iQxh+LylxHQlH4E0jiYICQ4VMEpxX2KcFB4fA2evlz39eALybILWBuqdNkqDEHjt2HqF+ic3F0GQe7RMoc91MFRO07eMumvnoit+ZTtzknj2bXT3YSmpxsUVnl6NHj6OYF8vf/rZEdu3yxCgQJi0tLUqAa5LE8eM/4yYFmrO8sZG7xdqlVlU1KHAex5iAnRlJcDeeC4miolp0AzXo056o95k+nCFOn/bF3vECPV7/BHxjTZLw9vZXWeMGw+Iye6O0NJLhQGJoN1sN43HVFHA++bElQbCzIcE2g97Pzi4F4PPw/qcg8Il8880uuX07BJnQoKOC/ZpGgl0rw8ht3pwV6B3egMRoHE7M3ZQHx3wGwdQjsZqaBvx7dpHIyqKs1qD7TZUtW7YB/McYflYhlU7gGonaDjlbkyROnPBHGF+plJGIaYZCGKRMY92QHAmxyzQJsaiLiqoVuLskMjM57LzCZ7FcvnwTwD3k44+XyPr12+Xq1etI5crJgzlna5LEf/7jDyWo1bbB/mmPLSlbsyXGfp/pQGA82bDtYG1J2A5BL15wZ66QyMgE2bfvX/KXv/xdPv10hRw8eAQt/1PtpN1Z00iYuW4+pjXIWN4yV+SYgq4OBRITGY1SeL8K3/Pl0qXr8sUXy+XDD/8O6dwqv/xyEXX3ckbv265JEmfPXpjYtNomZdRiadY8N0mZxv7ImZGEs1mCBCgYeXnVmA6T4fGj8te//g8K+AvZu/d7RCRymnS6uz7gKz70ANWAJ9+csc3Wg3NCY6OxqdkaidE4HHGD5P5g/oy14YxEZmY5UqhSbty4Kxs3bkX6/ENWrlwvZ874gliuniDOZn3AF6M8PNbKtm370ZfEIZRlIMBXPMdx0THkJcdTEprauRktq7VF6qoapaKoThrq2qS5+Y1G0tmOTfA80z1+/ByGmiUo3k/0hcWQkLuIev0EnNmtD5h7AQE3ZcWKDQitBzy0V86d85f798Nx4xyAboM28+heMDDxOR128PYesb5uleup1+RB3kVJL4kVS229tLd1a0rZkuAAlJlZAZ0Pl82bd8if/vSRblze3mfw8wyX0unu0tcieCz/7FmyXLhwWbf1xYtXoND+V1av3gqdPgnpuyIpKcn6Ypa5evsGJKosQo4Ub5ZN6Qvkj+xoaW3pREpZlQTTKT29FEQKxcfHVz7/fBWcxI1rp1y7dgOpWDtxpbmvaW/Z8JTDYqkD4DS5fj1IPD29sOkshvcWgtAmFOIP4ufnD/mLlZbXBqHSvjKJa4uW6ja+kNsLEo16QpicXCR37vwhO3bsReosgmOW6wwQHx+P2d39F3fdWW+9KmQuHtnQW76+fhohvk/x4YeLUIyLIImrsKvuQJROSWxUnHRYp0Cxdnh06ed3WZYvp/cXQP2+kd9+C8BQU6Gn5/O9nJLgYr1ERETAu/VofcP1DbSwsHCkxxn58st1iNKnEIUVsnbtRmxW+/QVu9TUNNm9+yDm4M9gyzSaERGRqKU3E1ed/+WSBE+5w8PDVWZ5HuvtfQLFzeP8HvT4NUirBMjjOVm3bitGxqVoGT6H99foWenKlZsQjV+wm+dP9v3va81I4tGjR7rphYYmYOaYeqHWXHwm8Rr1kZ6eoam3efMeyDWjch/K1jrxW+9zifwXMuX2k4SuPWQAAAAASUVORK5CYII=;fontSize=10;labelPosition=center;align=center;" parent="1" vertex="1">
          <mxGeometry x="532.92" y="3800" width="40" height="40" as="geometry" />
        </mxCell>
        <mxCell id="gUHsCTnRIOJ-MTFSnGW0-13" value="컴퓨터서버#1" style="shape=image;verticalLabelPosition=top;labelBackgroundColor=none;verticalAlign=bottom;imageAspect=0;image=data:image/png,iVBORw0KGgoAAAANSUhEUgAAADEAAABBCAYAAAB4vkzdAAAAAXNSR0IArs4c6QAAAARnQU1BAACxjwv8YQUAAAAJcEhZcwAAFxEAABcRAcom8z8AABAISURBVGhD3Vr5W1RXts3/1d3pTr+0Q8wLJmocYhyjcWhHjE00toqKrQZiiCYaHEERFVSmKCDIDMqMzCBDAQUyyDwPu9falwtFWVWUgO+Hd75vf1Ui3LvWHtbZ+9z7gfw/WP8nJIaGBqW+vk4aGuqls7NDRkaGJ/5nftZ7J1FXVyOBgcGybt23smnTTjl9+icJCXkoqamZUlxcrOQ6OtplbGxk4i/efb03Ej09XZKQkCDbt3vKV1/tl59+CpFLlx7JiRNXZO/eU7Jq1T/ls8/Wy44d34mPj58EB4dKYmKKZGVlS01NtXR3d05caeb1XkgUFOSJn99FgNwghw/7S0REsrx+3S69vT1IqRbJzy+RmJg0uXUrBuQC5cgRX9myxUtJLVy4EsQPyJkz/vj/+xIXFy8vXmRLbW0N/r574g7T17ySYGrcvh0sGzfulg0bvCQo6ImUllbJwEAfItMtb968gYe7AaZXBgf71ZhKBJiVVQBiqfibKPH1vSoHDvjImjW7ZMGCFbJ06UbZtcsLxM4jNe8gFTMm7miseSExPj4mjx9Hw+s+4uGxBXl/RdLS8gG6U/r6eqW9vd2pdXV1gWCP9Pf3oeCHQKwPf9cuVVW1kpGRi+smyc2bYXLq1M+ye/e/kYbbkJ7bJTPzOepoTO8/ZxIlJcVInQvw/AHZv99XoqPTUcz1ANULL3cAaNtbwJ1ZW5vxuyTG1BsY6Jfh4UFcqwc/b5HCwnLx9w9ChHaIt7e3EueaNYnu7i65ciUARfpvXPSABAQ8xE0qAKBTAdgDfDcjGYMQU5CyXFhYitpKQQ3dkq+/3i5eXl6KgWtWJBITn8nBg8eQ+/9CUV6S5OR8FGwjLtqLm3bBo50AMHdjJBsbmyUpKQ+yHAunRSHqgZDrHXLo0OHZkbBaGyGHp6EkB2XnTh958CAVuWuR1tYWtaam5nmx5ubXcEQXRKFOoqLSoVKxcufOUxCJl/Png2ZHgrl579492bbNE+Yt587dhkxWQjY7cMNWqJIVddA4Z7NYGvVaFks9irpEwsKSoFYx2EPilACJvDOJ4eEhaH6B7NnjidT5Tr7//gJkMAc3oddbEerXuDkJzN0slia18vJaFQcCvn3biIAZhfv3n8nPP7Mm3CIxDpBW+fXX3yFnO8XT008uXw6FElXDU83IfwN8bS096BiUu2axWHHNJqmubpTs7DJ4P1HBm9437e7dBAkNTbQhccg5iY6ON9gln6LP2Y68Pyk//hgMTS4FYONmNTWNuGHDvBidwGuWldVKfHyuAiUBEzjTybQHD5L10yRx+PCRt0mws3z58iX096ysXLkLn9cR1gwFTe/zho6AzNZ4vVevGrBTl8LDSQqanjY8PgXelsTDhykTNbFTjh71AYkexa4kqDpBQSHy5Zdbofs/yu+/R0peXpXmKMNcVVU/b0bgTKHSUno/B5430sYeNImQFL8TfHh4KpyaqZF4i0R/fz+03lvWrt0HDb6LzjMHN6PXG1FkdQj1/Fl5uQWfFs39P/7IRMEauT4dvAH80aMUWCrAp+F3n8uTJy8mSaxf/8/pJKzWJlm9ertcuHAPHmqBZLYp+IKCKqRXtWq1AcAwe2DuWmVlvV4vISHXYc5PgZ8C/vjxCzXzO0mw612z5pvpJBobG9H3eEINYvQHg4PDKO5upFibRoRFV1j4Sq2oqGaSzExmgqf3Kyrq5fnzUgVBubT3Po3pEhGRPgmYn9ONJJ7Lb7/dkWXLvkb2nLInsR818RjFbXSF5hoaGkEv1ItN7Q3Sq0mJMEL8pFdJypkVF9cAvAWyXIc2JQ8an+jU+xERU563B0/i5venT3O1o122bIOSYPfL5ZKE7RoeHgXzPu2L6upeK4nc3EoIQCV27yqQe4VPw/i9sLAaw0yZgqDm37v3tvcJPjIyYxpo0+h1fsbF5YDcc5XgpKRCuXFjDiRs18jIKOaEAaRdD+S3Vb3OdCEhgmeknj3LV4Vh38Od1p5AZKSr1DG8Hh+fhygWoI7ylAC/zxsJ2zU6OobeahBp14c6ateo0MNMHcqnmTKmUe+deZ+E6HGCJuCkpILJT5IwIhEqK1asA4mT7tXEu67x8XH0U20TBGKnESD4qKiMaTluT8AevK1NkQiT5ctdRIJe5WLecy5gHbzramnpUPD37k2lkEnAFXimnz1wW7Ml4TKdxsbG1ZuxsSly8uQNlcOCgkoMKF1ImSH9v5kWlYwkzDowCDj3/pMnWW4RSE5+CTPSaenS1fLDDyddk4iOTpLvvruADeWynDlzE93sA9yUh13VGqH+/qHJId1c5r/NSJgk2DI4SiF3wZtGEpwxSMLDY5VzEqOjhqep7deuRWFjCcU2f187WfZTVBp6lh4pLa3RCPX3D6pajY2NqgOamtoUPEmwdXBEICbGNQFb8CaBlJQid0g80ZpgxnR28pyoXye33NwKhD0DqWU0alScR4+4OVFJ8lRWh4aGNRKjo6Pa9RL8gwcpb4E3CGQ7BG6aPYGUFCMCHAdmJHHrVpSmEy0uLgs74xNcoBBdpxVSxkOubt212TqnphaiGPNROzmSnl6MVmVICYyMjCgJthD2hWxGxFkEHIE3CbhBwoqucB/SJWQiEuPQ+aeY5vzFy+tXpNId7XXS0l4CoFV6e0moS6W0spKdbv0kieHhYackYmOzdfd1h0RqqpE6tjYjiXXr9umwMTxsnEzzkIrHIz4+N+TUqety7lywXLwYptGJjc3SFGtoaEXa9WjaDQ0NqTkjQRUygdqDN3/uigBtxnRau3YnCjhIGz5GgqlDFWL3mZKSD4VJ1v4nMDBGZZftRFxcrl60rKxed+zBwQF8DkzWhEnCVRrZgndFgGaSYAPoUGK/+upbJUGVIQmmTkhIHFQhH6CatcDZmpeU1GidsBbo3adP83DhYqRYH0jwuLFfx04Cpxm/k6OtxEwE0tKKp4G2N5JITzcisWTJMpA4YU9i2zQSlMADBy7KsWMBkNpoeDYZBV0GgM2IEHfzbi149kkcY3t6etEQ9qmRBBXIJJGYmK8g50KA9vx5meTkVCASobJwoYc9CatG4vz561oTLO7s7HI5ezYIRX0bk9RdCQiIUAmm/sfFvdBWu7a2SSPEeYMX45E9P5lO3MiYQmYXam+2BKhujkDbG0lwlgkMDJNFi5Y6I3FVc5ua39PTp4djubnlWsjcuKYmMqON4IbHC1dWNugpNuuoq4sRqtd5mCQYBVcEaI4A21tmZgkibswpM5Lo7x+YUBruwsOa4319/WgIO1DkdbhYscokwTEFWIhMqc7OLk0x7uA80WA6ch6wJ2BPgjnuCLStcU7h8MXs4L3cJsFzf+OJTg+sV41keOpNQnV1PG606HTHPDXrhIfAJMFIOOqNbAkwko5A2xojTQKcEM2JcUYSVBkWJ9PCNAKjtbfT05Rew+P8WWtrpx6s8ZP/Z5JgJLij2xKwJ+EItL3RQQYBzvXVNiScFvZV/JBe5xxtgHTHTEKmOSNhS8DsSF0ZwdtGwBh7q6FO96FOi+TwYW/Fa0Nim5Jgbnd0MGWmA3sXc4eEI9DTrRhRqFTwppEAz8CCgx++fxI8ppkriaysct2XzCjQeAzE08Pw8BhZvPiT90PCTCuesc6FBOXUPgokQCHhKSJJLFiwUA4dckKio4PPyd6dhFnw/O6IhC0BV/0Rzdj8iqdFgWnEPo4P8qOjY+Sjjz4CieOOSFwDkA6Q6HkLpCMz1YrfrdZW3Rz5nTd0RcIRcNMYhezsClUlkwDJMAo830pLy5E9e/aAxAKo01HbIxurrFnzrZw+/ase5Xd28gkoH+FOgXQGvLGxRZ8asV/iQxh+LylxHQlH4E0jiYICQ4VMEpxX2KcFB4fA2evlz39eALybILWBuqdNkqDEHjt2HqF+ic3F0GQe7RMoc91MFRO07eMumvnoit+ZTtzknj2bXT3YSmpxsUVnl6NHj6OYF8vf/rZEdu3yxCgQJi0tLUqAa5LE8eM/4yYFmrO8sZG7xdqlVlU1KHAex5iAnRlJcDeeC4miolp0AzXo056o95k+nCFOn/bF3vECPV7/BHxjTZLw9vZXWeMGw+Iye6O0NJLhQGJoN1sN43HVFHA++bElQbCzIcE2g97Pzi4F4PPw/qcg8Il8880uuX07BJnQoKOC/ZpGgl0rw8ht3pwV6B3egMRoHE7M3ZQHx3wGwdQjsZqaBvx7dpHIyqKs1qD7TZUtW7YB/McYflYhlU7gGonaDjlbkyROnPBHGF+plJGIaYZCGKRMY92QHAmxyzQJsaiLiqoVuLskMjM57LzCZ7FcvnwTwD3k44+XyPr12+Xq1etI5crJgzlna5LEf/7jDyWo1bbB/mmPLSlbsyXGfp/pQGA82bDtYG1J2A5BL15wZ66QyMgE2bfvX/KXv/xdPv10hRw8eAQt/1PtpN1Z00iYuW4+pjXIWN4yV+SYgq4OBRITGY1SeL8K3/Pl0qXr8sUXy+XDD/8O6dwqv/xyEXX3ckbv265JEmfPXpjYtNomZdRiadY8N0mZxv7ImZGEs1mCBCgYeXnVmA6T4fGj8te//g8K+AvZu/d7RCRymnS6uz7gKz70ANWAJ9+csc3Wg3NCY6OxqdkaidE4HHGD5P5g/oy14YxEZmY5UqhSbty4Kxs3bkX6/ENWrlwvZ874gliuniDOZn3AF6M8PNbKtm370ZfEIZRlIMBXPMdx0THkJcdTEprauRktq7VF6qoapaKoThrq2qS5+Y1G0tmOTfA80z1+/ByGmiUo3k/0hcWQkLuIev0EnNmtD5h7AQE3ZcWKDQitBzy0V86d85f798Nx4xyAboM28+heMDDxOR128PYesb5uleup1+RB3kVJL4kVS229tLd1a0rZkuAAlJlZAZ0Pl82bd8if/vSRblze3mfw8wyX0unu0tcieCz/7FmyXLhwWbf1xYtXoND+V1av3gqdPgnpuyIpKcn6Ypa5evsGJKosQo4Ub5ZN6Qvkj+xoaW3pREpZlQTTKT29FEQKxcfHVz7/fBWcxI1rp1y7dgOpWDtxpbmvaW/Z8JTDYqkD4DS5fj1IPD29sOkshvcWgtAmFOIP4ufnD/mLlZbXBqHSvjKJa4uW6ja+kNsLEo16QpicXCR37vwhO3bsReosgmOW6wwQHx+P2d39F3fdWW+9KmQuHtnQW76+fhohvk/x4YeLUIyLIImrsKvuQJROSWxUnHRYp0Cxdnh06ed3WZYvp/cXQP2+kd9+C8BQU6Gn5/O9nJLgYr1ERETAu/VofcP1DbSwsHCkxxn58st1iNKnEIUVsnbtRmxW+/QVu9TUNNm9+yDm4M9gyzSaERGRqKU3E1ed/+WSBE+5w8PDVWZ5HuvtfQLFzeP8HvT4NUirBMjjOVm3bitGxqVoGT6H99foWenKlZsQjV+wm+dP9v3va81I4tGjR7rphYYmYOaYeqHWXHwm8Rr1kZ6eoam3efMeyDWjch/K1jrxW+9zifwXMuX2k4SuPWQAAAAASUVORK5CYII=;fontSize=10;labelPosition=center;align=center;" parent="1" vertex="1">
          <mxGeometry x="392.91999999999996" y="3860" width="40" height="40" as="geometry" />
        </mxCell>
        <mxCell id="gUHsCTnRIOJ-MTFSnGW0-14" value="컴퓨터서버#2" style="shape=image;verticalLabelPosition=top;labelBackgroundColor=none;verticalAlign=bottom;imageAspect=0;image=data:image/png,iVBORw0KGgoAAAANSUhEUgAAADEAAABBCAYAAAB4vkzdAAAAAXNSR0IArs4c6QAAAARnQU1BAACxjwv8YQUAAAAJcEhZcwAAFxEAABcRAcom8z8AABAISURBVGhD3Vr5W1RXts3/1d3pTr+0Q8wLJmocYhyjcWhHjE00toqKrQZiiCYaHEERFVSmKCDIDMqMzCBDAQUyyDwPu9falwtFWVWUgO+Hd75vf1Ui3LvWHtbZ+9z7gfw/WP8nJIaGBqW+vk4aGuqls7NDRkaGJ/5nftZ7J1FXVyOBgcGybt23smnTTjl9+icJCXkoqamZUlxcrOQ6OtplbGxk4i/efb03Ej09XZKQkCDbt3vKV1/tl59+CpFLlx7JiRNXZO/eU7Jq1T/ls8/Wy44d34mPj58EB4dKYmKKZGVlS01NtXR3d05caeb1XkgUFOSJn99FgNwghw/7S0REsrx+3S69vT1IqRbJzy+RmJg0uXUrBuQC5cgRX9myxUtJLVy4EsQPyJkz/vj/+xIXFy8vXmRLbW0N/r574g7T17ySYGrcvh0sGzfulg0bvCQo6ImUllbJwEAfItMtb968gYe7AaZXBgf71ZhKBJiVVQBiqfibKPH1vSoHDvjImjW7ZMGCFbJ06UbZtcsLxM4jNe8gFTMm7miseSExPj4mjx9Hw+s+4uGxBXl/RdLS8gG6U/r6eqW9vd2pdXV1gWCP9Pf3oeCHQKwPf9cuVVW1kpGRi+smyc2bYXLq1M+ye/e/kYbbkJ7bJTPzOepoTO8/ZxIlJcVInQvw/AHZv99XoqPTUcz1ANULL3cAaNtbwJ1ZW5vxuyTG1BsY6Jfh4UFcqwc/b5HCwnLx9w9ChHaIt7e3EueaNYnu7i65ciUARfpvXPSABAQ8xE0qAKBTAdgDfDcjGYMQU5CyXFhYitpKQQ3dkq+/3i5eXl6KgWtWJBITn8nBg8eQ+/9CUV6S5OR8FGwjLtqLm3bBo50AMHdjJBsbmyUpKQ+yHAunRSHqgZDrHXLo0OHZkbBaGyGHp6EkB2XnTh958CAVuWuR1tYWtaam5nmx5ubXcEQXRKFOoqLSoVKxcufOUxCJl/Png2ZHgrl579492bbNE+Yt587dhkxWQjY7cMNWqJIVddA4Z7NYGvVaFks9irpEwsKSoFYx2EPilACJvDOJ4eEhaH6B7NnjidT5Tr7//gJkMAc3oddbEerXuDkJzN0slia18vJaFQcCvn3biIAZhfv3n8nPP7Mm3CIxDpBW+fXX3yFnO8XT008uXw6FElXDU83IfwN8bS096BiUu2axWHHNJqmubpTs7DJ4P1HBm9437e7dBAkNTbQhccg5iY6ON9gln6LP2Y68Pyk//hgMTS4FYONmNTWNuGHDvBidwGuWldVKfHyuAiUBEzjTybQHD5L10yRx+PCRt0mws3z58iX096ysXLkLn9cR1gwFTe/zho6AzNZ4vVevGrBTl8LDSQqanjY8PgXelsTDhykTNbFTjh71AYkexa4kqDpBQSHy5Zdbofs/yu+/R0peXpXmKMNcVVU/b0bgTKHSUno/B5430sYeNImQFL8TfHh4KpyaqZF4i0R/fz+03lvWrt0HDb6LzjMHN6PXG1FkdQj1/Fl5uQWfFs39P/7IRMEauT4dvAH80aMUWCrAp+F3n8uTJy8mSaxf/8/pJKzWJlm9ertcuHAPHmqBZLYp+IKCKqRXtWq1AcAwe2DuWmVlvV4vISHXYc5PgZ8C/vjxCzXzO0mw612z5pvpJBobG9H3eEINYvQHg4PDKO5upFibRoRFV1j4Sq2oqGaSzExmgqf3Kyrq5fnzUgVBubT3Po3pEhGRPgmYn9ONJJ7Lb7/dkWXLvkb2nLInsR818RjFbXSF5hoaGkEv1ItN7Q3Sq0mJMEL8pFdJypkVF9cAvAWyXIc2JQ8an+jU+xERU563B0/i5venT3O1o122bIOSYPfL5ZKE7RoeHgXzPu2L6upeK4nc3EoIQCV27yqQe4VPw/i9sLAaw0yZgqDm37v3tvcJPjIyYxpo0+h1fsbF5YDcc5XgpKRCuXFjDiRs18jIKOaEAaRdD+S3Vb3OdCEhgmeknj3LV4Vh38Od1p5AZKSr1DG8Hh+fhygWoI7ylAC/zxsJ2zU6OobeahBp14c6ateo0MNMHcqnmTKmUe+deZ+E6HGCJuCkpILJT5IwIhEqK1asA4mT7tXEu67x8XH0U20TBGKnESD4qKiMaTluT8AevK1NkQiT5ctdRIJe5WLecy5gHbzramnpUPD37k2lkEnAFXimnz1wW7Ml4TKdxsbG1ZuxsSly8uQNlcOCgkoMKF1ImSH9v5kWlYwkzDowCDj3/pMnWW4RSE5+CTPSaenS1fLDDyddk4iOTpLvvruADeWynDlzE93sA9yUh13VGqH+/qHJId1c5r/NSJgk2DI4SiF3wZtGEpwxSMLDY5VzEqOjhqep7deuRWFjCcU2f187WfZTVBp6lh4pLa3RCPX3D6pajY2NqgOamtoUPEmwdXBEICbGNQFb8CaBlJQid0g80ZpgxnR28pyoXye33NwKhD0DqWU0alScR4+4OVFJ8lRWh4aGNRKjo6Pa9RL8gwcpb4E3CGQ7BG6aPYGUFCMCHAdmJHHrVpSmEy0uLgs74xNcoBBdpxVSxkOubt212TqnphaiGPNROzmSnl6MVmVICYyMjCgJthD2hWxGxFkEHIE3CbhBwoqucB/SJWQiEuPQ+aeY5vzFy+tXpNId7XXS0l4CoFV6e0moS6W0spKdbv0kieHhYackYmOzdfd1h0RqqpE6tjYjiXXr9umwMTxsnEzzkIrHIz4+N+TUqety7lywXLwYptGJjc3SFGtoaEXa9WjaDQ0NqTkjQRUygdqDN3/uigBtxnRau3YnCjhIGz5GgqlDFWL3mZKSD4VJ1v4nMDBGZZftRFxcrl60rKxed+zBwQF8DkzWhEnCVRrZgndFgGaSYAPoUGK/+upbJUGVIQmmTkhIHFQhH6CatcDZmpeU1GidsBbo3adP83DhYqRYH0jwuLFfx04Cpxm/k6OtxEwE0tKKp4G2N5JITzcisWTJMpA4YU9i2zQSlMADBy7KsWMBkNpoeDYZBV0GgM2IEHfzbi149kkcY3t6etEQ9qmRBBXIJJGYmK8g50KA9vx5meTkVCASobJwoYc9CatG4vz561oTLO7s7HI5ezYIRX0bk9RdCQiIUAmm/sfFvdBWu7a2SSPEeYMX45E9P5lO3MiYQmYXam+2BKhujkDbG0lwlgkMDJNFi5Y6I3FVc5ua39PTp4djubnlWsjcuKYmMqON4IbHC1dWNugpNuuoq4sRqtd5mCQYBVcEaI4A21tmZgkibswpM5Lo7x+YUBruwsOa4319/WgIO1DkdbhYscokwTEFWIhMqc7OLk0x7uA80WA6ch6wJ2BPgjnuCLStcU7h8MXs4L3cJsFzf+OJTg+sV41keOpNQnV1PG606HTHPDXrhIfAJMFIOOqNbAkwko5A2xojTQKcEM2JcUYSVBkWJ9PCNAKjtbfT05Rew+P8WWtrpx6s8ZP/Z5JgJLij2xKwJ+EItL3RQQYBzvXVNiScFvZV/JBe5xxtgHTHTEKmOSNhS8DsSF0ZwdtGwBh7q6FO96FOi+TwYW/Fa0Nim5Jgbnd0MGWmA3sXc4eEI9DTrRhRqFTwppEAz8CCgx++fxI8ppkriaysct2XzCjQeAzE08Pw8BhZvPiT90PCTCuesc6FBOXUPgokQCHhKSJJLFiwUA4dckKio4PPyd6dhFnw/O6IhC0BV/0Rzdj8iqdFgWnEPo4P8qOjY+Sjjz4CieOOSFwDkA6Q6HkLpCMz1YrfrdZW3Rz5nTd0RcIRcNMYhezsClUlkwDJMAo830pLy5E9e/aAxAKo01HbIxurrFnzrZw+/ase5Xd28gkoH+FOgXQGvLGxRZ8asV/iQxh+LylxHQlH4E0jiYICQ4VMEpxX2KcFB4fA2evlz39eALybILWBuqdNkqDEHjt2HqF+ic3F0GQe7RMoc91MFRO07eMumvnoit+ZTtzknj2bXT3YSmpxsUVnl6NHj6OYF8vf/rZEdu3yxCgQJi0tLUqAa5LE8eM/4yYFmrO8sZG7xdqlVlU1KHAex5iAnRlJcDeeC4miolp0AzXo056o95k+nCFOn/bF3vECPV7/BHxjTZLw9vZXWeMGw+Iye6O0NJLhQGJoN1sN43HVFHA++bElQbCzIcE2g97Pzi4F4PPw/qcg8Il8880uuX07BJnQoKOC/ZpGgl0rw8ht3pwV6B3egMRoHE7M3ZQHx3wGwdQjsZqaBvx7dpHIyqKs1qD7TZUtW7YB/McYflYhlU7gGonaDjlbkyROnPBHGF+plJGIaYZCGKRMY92QHAmxyzQJsaiLiqoVuLskMjM57LzCZ7FcvnwTwD3k44+XyPr12+Xq1etI5crJgzlna5LEf/7jDyWo1bbB/mmPLSlbsyXGfp/pQGA82bDtYG1J2A5BL15wZ66QyMgE2bfvX/KXv/xdPv10hRw8eAQt/1PtpN1Z00iYuW4+pjXIWN4yV+SYgq4OBRITGY1SeL8K3/Pl0qXr8sUXy+XDD/8O6dwqv/xyEXX3ckbv265JEmfPXpjYtNomZdRiadY8N0mZxv7ImZGEs1mCBCgYeXnVmA6T4fGj8te//g8K+AvZu/d7RCRymnS6uz7gKz70ANWAJ9+csc3Wg3NCY6OxqdkaidE4HHGD5P5g/oy14YxEZmY5UqhSbty4Kxs3bkX6/ENWrlwvZ874gliuniDOZn3AF6M8PNbKtm370ZfEIZRlIMBXPMdx0THkJcdTEprauRktq7VF6qoapaKoThrq2qS5+Y1G0tmOTfA80z1+/ByGmiUo3k/0hcWQkLuIev0EnNmtD5h7AQE3ZcWKDQitBzy0V86d85f798Nx4xyAboM28+heMDDxOR128PYesb5uleup1+RB3kVJL4kVS229tLd1a0rZkuAAlJlZAZ0Pl82bd8if/vSRblze3mfw8wyX0unu0tcieCz/7FmyXLhwWbf1xYtXoND+V1av3gqdPgnpuyIpKcn6Ypa5evsGJKosQo4Ub5ZN6Qvkj+xoaW3pREpZlQTTKT29FEQKxcfHVz7/fBWcxI1rp1y7dgOpWDtxpbmvaW/Z8JTDYqkD4DS5fj1IPD29sOkshvcWgtAmFOIP4ufnD/mLlZbXBqHSvjKJa4uW6ja+kNsLEo16QpicXCR37vwhO3bsReosgmOW6wwQHx+P2d39F3fdWW+9KmQuHtnQW76+fhohvk/x4YeLUIyLIImrsKvuQJROSWxUnHRYp0Cxdnh06ed3WZYvp/cXQP2+kd9+C8BQU6Gn5/O9nJLgYr1ERETAu/VofcP1DbSwsHCkxxn58st1iNKnEIUVsnbtRmxW+/QVu9TUNNm9+yDm4M9gyzSaERGRqKU3E1ed/+WSBE+5w8PDVWZ5HuvtfQLFzeP8HvT4NUirBMjjOVm3bitGxqVoGT6H99foWenKlZsQjV+wm+dP9v3va81I4tGjR7rphYYmYOaYeqHWXHwm8Rr1kZ6eoam3efMeyDWjch/K1jrxW+9zifwXMuX2k4SuPWQAAAAASUVORK5CYII=;fontSize=10;labelPosition=center;align=center;" parent="1" vertex="1">
          <mxGeometry x="462.91999999999996" y="3860" width="40" height="40" as="geometry" />
        </mxCell>
        <mxCell id="gUHsCTnRIOJ-MTFSnGW0-15" value="컴퓨터서버#3" style="shape=image;verticalLabelPosition=top;labelBackgroundColor=none;verticalAlign=bottom;imageAspect=0;image=data:image/png,iVBORw0KGgoAAAANSUhEUgAAADEAAABBCAYAAAB4vkzdAAAAAXNSR0IArs4c6QAAAARnQU1BAACxjwv8YQUAAAAJcEhZcwAAFxEAABcRAcom8z8AABAISURBVGhD3Vr5W1RXts3/1d3pTr+0Q8wLJmocYhyjcWhHjE00toqKrQZiiCYaHEERFVSmKCDIDMqMzCBDAQUyyDwPu9falwtFWVWUgO+Hd75vf1Ui3LvWHtbZ+9z7gfw/WP8nJIaGBqW+vk4aGuqls7NDRkaGJ/5nftZ7J1FXVyOBgcGybt23smnTTjl9+icJCXkoqamZUlxcrOQ6OtplbGxk4i/efb03Ej09XZKQkCDbt3vKV1/tl59+CpFLlx7JiRNXZO/eU7Jq1T/ls8/Wy44d34mPj58EB4dKYmKKZGVlS01NtXR3d05caeb1XkgUFOSJn99FgNwghw/7S0REsrx+3S69vT1IqRbJzy+RmJg0uXUrBuQC5cgRX9myxUtJLVy4EsQPyJkz/vj/+xIXFy8vXmRLbW0N/r574g7T17ySYGrcvh0sGzfulg0bvCQo6ImUllbJwEAfItMtb968gYe7AaZXBgf71ZhKBJiVVQBiqfibKPH1vSoHDvjImjW7ZMGCFbJ06UbZtcsLxM4jNe8gFTMm7miseSExPj4mjx9Hw+s+4uGxBXl/RdLS8gG6U/r6eqW9vd2pdXV1gWCP9Pf3oeCHQKwPf9cuVVW1kpGRi+smyc2bYXLq1M+ye/e/kYbbkJ7bJTPzOepoTO8/ZxIlJcVInQvw/AHZv99XoqPTUcz1ANULL3cAaNtbwJ1ZW5vxuyTG1BsY6Jfh4UFcqwc/b5HCwnLx9w9ChHaIt7e3EueaNYnu7i65ciUARfpvXPSABAQ8xE0qAKBTAdgDfDcjGYMQU5CyXFhYitpKQQ3dkq+/3i5eXl6KgWtWJBITn8nBg8eQ+/9CUV6S5OR8FGwjLtqLm3bBo50AMHdjJBsbmyUpKQ+yHAunRSHqgZDrHXLo0OHZkbBaGyGHp6EkB2XnTh958CAVuWuR1tYWtaam5nmx5ubXcEQXRKFOoqLSoVKxcufOUxCJl/Png2ZHgrl579492bbNE+Yt587dhkxWQjY7cMNWqJIVddA4Z7NYGvVaFks9irpEwsKSoFYx2EPilACJvDOJ4eEhaH6B7NnjidT5Tr7//gJkMAc3oddbEerXuDkJzN0slia18vJaFQcCvn3biIAZhfv3n8nPP7Mm3CIxDpBW+fXX3yFnO8XT008uXw6FElXDU83IfwN8bS096BiUu2axWHHNJqmubpTs7DJ4P1HBm9437e7dBAkNTbQhccg5iY6ON9gln6LP2Y68Pyk//hgMTS4FYONmNTWNuGHDvBidwGuWldVKfHyuAiUBEzjTybQHD5L10yRx+PCRt0mws3z58iX096ysXLkLn9cR1gwFTe/zho6AzNZ4vVevGrBTl8LDSQqanjY8PgXelsTDhykTNbFTjh71AYkexa4kqDpBQSHy5Zdbofs/yu+/R0peXpXmKMNcVVU/b0bgTKHSUno/B5430sYeNImQFL8TfHh4KpyaqZF4i0R/fz+03lvWrt0HDb6LzjMHN6PXG1FkdQj1/Fl5uQWfFs39P/7IRMEauT4dvAH80aMUWCrAp+F3n8uTJy8mSaxf/8/pJKzWJlm9ertcuHAPHmqBZLYp+IKCKqRXtWq1AcAwe2DuWmVlvV4vISHXYc5PgZ8C/vjxCzXzO0mw612z5pvpJBobG9H3eEINYvQHg4PDKO5upFibRoRFV1j4Sq2oqGaSzExmgqf3Kyrq5fnzUgVBubT3Po3pEhGRPgmYn9ONJJ7Lb7/dkWXLvkb2nLInsR818RjFbXSF5hoaGkEv1ItN7Q3Sq0mJMEL8pFdJypkVF9cAvAWyXIc2JQ8an+jU+xERU563B0/i5venT3O1o122bIOSYPfL5ZKE7RoeHgXzPu2L6upeK4nc3EoIQCV27yqQe4VPw/i9sLAaw0yZgqDm37v3tvcJPjIyYxpo0+h1fsbF5YDcc5XgpKRCuXFjDiRs18jIKOaEAaRdD+S3Vb3OdCEhgmeknj3LV4Vh38Od1p5AZKSr1DG8Hh+fhygWoI7ylAC/zxsJ2zU6OobeahBp14c6ateo0MNMHcqnmTKmUe+deZ+E6HGCJuCkpILJT5IwIhEqK1asA4mT7tXEu67x8XH0U20TBGKnESD4qKiMaTluT8AevK1NkQiT5ctdRIJe5WLecy5gHbzramnpUPD37k2lkEnAFXimnz1wW7Ml4TKdxsbG1ZuxsSly8uQNlcOCgkoMKF1ImSH9v5kWlYwkzDowCDj3/pMnWW4RSE5+CTPSaenS1fLDDyddk4iOTpLvvruADeWynDlzE93sA9yUh13VGqH+/qHJId1c5r/NSJgk2DI4SiF3wZtGEpwxSMLDY5VzEqOjhqep7deuRWFjCcU2f187WfZTVBp6lh4pLa3RCPX3D6pajY2NqgOamtoUPEmwdXBEICbGNQFb8CaBlJQid0g80ZpgxnR28pyoXye33NwKhD0DqWU0alScR4+4OVFJ8lRWh4aGNRKjo6Pa9RL8gwcpb4E3CGQ7BG6aPYGUFCMCHAdmJHHrVpSmEy0uLgs74xNcoBBdpxVSxkOubt212TqnphaiGPNROzmSnl6MVmVICYyMjCgJthD2hWxGxFkEHIE3CbhBwoqucB/SJWQiEuPQ+aeY5vzFy+tXpNId7XXS0l4CoFV6e0moS6W0spKdbv0kieHhYackYmOzdfd1h0RqqpE6tjYjiXXr9umwMTxsnEzzkIrHIz4+N+TUqety7lywXLwYptGJjc3SFGtoaEXa9WjaDQ0NqTkjQRUygdqDN3/uigBtxnRau3YnCjhIGz5GgqlDFWL3mZKSD4VJ1v4nMDBGZZftRFxcrl60rKxed+zBwQF8DkzWhEnCVRrZgndFgGaSYAPoUGK/+upbJUGVIQmmTkhIHFQhH6CatcDZmpeU1GidsBbo3adP83DhYqRYH0jwuLFfx04Cpxm/k6OtxEwE0tKKp4G2N5JITzcisWTJMpA4YU9i2zQSlMADBy7KsWMBkNpoeDYZBV0GgM2IEHfzbi149kkcY3t6etEQ9qmRBBXIJJGYmK8g50KA9vx5meTkVCASobJwoYc9CatG4vz561oTLO7s7HI5ezYIRX0bk9RdCQiIUAmm/sfFvdBWu7a2SSPEeYMX45E9P5lO3MiYQmYXam+2BKhujkDbG0lwlgkMDJNFi5Y6I3FVc5ua39PTp4djubnlWsjcuKYmMqON4IbHC1dWNugpNuuoq4sRqtd5mCQYBVcEaI4A21tmZgkibswpM5Lo7x+YUBruwsOa4319/WgIO1DkdbhYscokwTEFWIhMqc7OLk0x7uA80WA6ch6wJ2BPgjnuCLStcU7h8MXs4L3cJsFzf+OJTg+sV41keOpNQnV1PG606HTHPDXrhIfAJMFIOOqNbAkwko5A2xojTQKcEM2JcUYSVBkWJ9PCNAKjtbfT05Rew+P8WWtrpx6s8ZP/Z5JgJLij2xKwJ+EItL3RQQYBzvXVNiScFvZV/JBe5xxtgHTHTEKmOSNhS8DsSF0ZwdtGwBh7q6FO96FOi+TwYW/Fa0Nim5Jgbnd0MGWmA3sXc4eEI9DTrRhRqFTwppEAz8CCgx++fxI8ppkriaysct2XzCjQeAzE08Pw8BhZvPiT90PCTCuesc6FBOXUPgokQCHhKSJJLFiwUA4dckKio4PPyd6dhFnw/O6IhC0BV/0Rzdj8iqdFgWnEPo4P8qOjY+Sjjz4CieOOSFwDkA6Q6HkLpCMz1YrfrdZW3Rz5nTd0RcIRcNMYhezsClUlkwDJMAo830pLy5E9e/aAxAKo01HbIxurrFnzrZw+/ase5Xd28gkoH+FOgXQGvLGxRZ8asV/iQxh+LylxHQlH4E0jiYICQ4VMEpxX2KcFB4fA2evlz39eALybILWBuqdNkqDEHjt2HqF+ic3F0GQe7RMoc91MFRO07eMumvnoit+ZTtzknj2bXT3YSmpxsUVnl6NHj6OYF8vf/rZEdu3yxCgQJi0tLUqAa5LE8eM/4yYFmrO8sZG7xdqlVlU1KHAex5iAnRlJcDeeC4miolp0AzXo056o95k+nCFOn/bF3vECPV7/BHxjTZLw9vZXWeMGw+Iye6O0NJLhQGJoN1sN43HVFHA++bElQbCzIcE2g97Pzi4F4PPw/qcg8Il8880uuX07BJnQoKOC/ZpGgl0rw8ht3pwV6B3egMRoHE7M3ZQHx3wGwdQjsZqaBvx7dpHIyqKs1qD7TZUtW7YB/McYflYhlU7gGonaDjlbkyROnPBHGF+plJGIaYZCGKRMY92QHAmxyzQJsaiLiqoVuLskMjM57LzCZ7FcvnwTwD3k44+XyPr12+Xq1etI5crJgzlna5LEf/7jDyWo1bbB/mmPLSlbsyXGfp/pQGA82bDtYG1J2A5BL15wZ66QyMgE2bfvX/KXv/xdPv10hRw8eAQt/1PtpN1Z00iYuW4+pjXIWN4yV+SYgq4OBRITGY1SeL8K3/Pl0qXr8sUXy+XDD/8O6dwqv/xyEXX3ckbv265JEmfPXpjYtNomZdRiadY8N0mZxv7ImZGEs1mCBCgYeXnVmA6T4fGj8te//g8K+AvZu/d7RCRymnS6uz7gKz70ANWAJ9+csc3Wg3NCY6OxqdkaidE4HHGD5P5g/oy14YxEZmY5UqhSbty4Kxs3bkX6/ENWrlwvZ874gliuniDOZn3AF6M8PNbKtm370ZfEIZRlIMBXPMdx0THkJcdTEprauRktq7VF6qoapaKoThrq2qS5+Y1G0tmOTfA80z1+/ByGmiUo3k/0hcWQkLuIev0EnNmtD5h7AQE3ZcWKDQitBzy0V86d85f798Nx4xyAboM28+heMDDxOR128PYesb5uleup1+RB3kVJL4kVS229tLd1a0rZkuAAlJlZAZ0Pl82bd8if/vSRblze3mfw8wyX0unu0tcieCz/7FmyXLhwWbf1xYtXoND+V1av3gqdPgnpuyIpKcn6Ypa5evsGJKosQo4Ub5ZN6Qvkj+xoaW3pREpZlQTTKT29FEQKxcfHVz7/fBWcxI1rp1y7dgOpWDtxpbmvaW/Z8JTDYqkD4DS5fj1IPD29sOkshvcWgtAmFOIP4ufnD/mLlZbXBqHSvjKJa4uW6ja+kNsLEo16QpicXCR37vwhO3bsReosgmOW6wwQHx+P2d39F3fdWW+9KmQuHtnQW76+fhohvk/x4YeLUIyLIImrsKvuQJROSWxUnHRYp0Cxdnh06ed3WZYvp/cXQP2+kd9+C8BQU6Gn5/O9nJLgYr1ERETAu/VofcP1DbSwsHCkxxn58st1iNKnEIUVsnbtRmxW+/QVu9TUNNm9+yDm4M9gyzSaERGRqKU3E1ed/+WSBE+5w8PDVWZ5HuvtfQLFzeP8HvT4NUirBMjjOVm3bitGxqVoGT6H99foWenKlZsQjV+wm+dP9v3va81I4tGjR7rphYYmYOaYeqHWXHwm8Rr1kZ6eoam3efMeyDWjch/K1jrxW+9zifwXMuX2k4SuPWQAAAAASUVORK5CYII=;fontSize=10;labelPosition=center;align=center;" parent="1" vertex="1">
          <mxGeometry x="532.92" y="3860" width="40" height="40" as="geometry" />
        </mxCell>
        <mxCell id="gUHsCTnRIOJ-MTFSnGW0-16" value="EPP" style="shape=image;verticalLabelPosition=top;labelBackgroundColor=none;verticalAlign=bottom;imageAspect=0;image=data:image/png,iVBORw0KGgoAAAANSUhEUgAAADEAAABBCAYAAAB4vkzdAAAAAXNSR0IArs4c6QAAAARnQU1BAACxjwv8YQUAAAAJcEhZcwAAFxEAABcRAcom8z8AABAISURBVGhD3Vr5W1RXts3/1d3pTr+0Q8wLJmocYhyjcWhHjE00toqKrQZiiCYaHEERFVSmKCDIDMqMzCBDAQUyyDwPu9falwtFWVWUgO+Hd75vf1Ui3LvWHtbZ+9z7gfw/WP8nJIaGBqW+vk4aGuqls7NDRkaGJ/5nftZ7J1FXVyOBgcGybt23smnTTjl9+icJCXkoqamZUlxcrOQ6OtplbGxk4i/efb03Ej09XZKQkCDbt3vKV1/tl59+CpFLlx7JiRNXZO/eU7Jq1T/ls8/Wy44d34mPj58EB4dKYmKKZGVlS01NtXR3d05caeb1XkgUFOSJn99FgNwghw/7S0REsrx+3S69vT1IqRbJzy+RmJg0uXUrBuQC5cgRX9myxUtJLVy4EsQPyJkz/vj/+xIXFy8vXmRLbW0N/r574g7T17ySYGrcvh0sGzfulg0bvCQo6ImUllbJwEAfItMtb968gYe7AaZXBgf71ZhKBJiVVQBiqfibKPH1vSoHDvjImjW7ZMGCFbJ06UbZtcsLxM4jNe8gFTMm7miseSExPj4mjx9Hw+s+4uGxBXl/RdLS8gG6U/r6eqW9vd2pdXV1gWCP9Pf3oeCHQKwPf9cuVVW1kpGRi+smyc2bYXLq1M+ye/e/kYbbkJ7bJTPzOepoTO8/ZxIlJcVInQvw/AHZv99XoqPTUcz1ANULL3cAaNtbwJ1ZW5vxuyTG1BsY6Jfh4UFcqwc/b5HCwnLx9w9ChHaIt7e3EueaNYnu7i65ciUARfpvXPSABAQ8xE0qAKBTAdgDfDcjGYMQU5CyXFhYitpKQQ3dkq+/3i5eXl6KgWtWJBITn8nBg8eQ+/9CUV6S5OR8FGwjLtqLm3bBo50AMHdjJBsbmyUpKQ+yHAunRSHqgZDrHXLo0OHZkbBaGyGHp6EkB2XnTh958CAVuWuR1tYWtaam5nmx5ubXcEQXRKFOoqLSoVKxcufOUxCJl/Png2ZHgrl579492bbNE+Yt587dhkxWQjY7cMNWqJIVddA4Z7NYGvVaFks9irpEwsKSoFYx2EPilACJvDOJ4eEhaH6B7NnjidT5Tr7//gJkMAc3oddbEerXuDkJzN0slia18vJaFQcCvn3biIAZhfv3n8nPP7Mm3CIxDpBW+fXX3yFnO8XT008uXw6FElXDU83IfwN8bS096BiUu2axWHHNJqmubpTs7DJ4P1HBm9437e7dBAkNTbQhccg5iY6ON9gln6LP2Y68Pyk//hgMTS4FYONmNTWNuGHDvBidwGuWldVKfHyuAiUBEzjTybQHD5L10yRx+PCRt0mws3z58iX096ysXLkLn9cR1gwFTe/zho6AzNZ4vVevGrBTl8LDSQqanjY8PgXelsTDhykTNbFTjh71AYkexa4kqDpBQSHy5Zdbofs/yu+/R0peXpXmKMNcVVU/b0bgTKHSUno/B5430sYeNImQFL8TfHh4KpyaqZF4i0R/fz+03lvWrt0HDb6LzjMHN6PXG1FkdQj1/Fl5uQWfFs39P/7IRMEauT4dvAH80aMUWCrAp+F3n8uTJy8mSaxf/8/pJKzWJlm9ertcuHAPHmqBZLYp+IKCKqRXtWq1AcAwe2DuWmVlvV4vISHXYc5PgZ8C/vjxCzXzO0mw612z5pvpJBobG9H3eEINYvQHg4PDKO5upFibRoRFV1j4Sq2oqGaSzExmgqf3Kyrq5fnzUgVBubT3Po3pEhGRPgmYn9ONJJ7Lb7/dkWXLvkb2nLInsR818RjFbXSF5hoaGkEv1ItN7Q3Sq0mJMEL8pFdJypkVF9cAvAWyXIc2JQ8an+jU+xERU563B0/i5venT3O1o122bIOSYPfL5ZKE7RoeHgXzPu2L6upeK4nc3EoIQCV27yqQe4VPw/i9sLAaw0yZgqDm37v3tvcJPjIyYxpo0+h1fsbF5YDcc5XgpKRCuXFjDiRs18jIKOaEAaRdD+S3Vb3OdCEhgmeknj3LV4Vh38Od1p5AZKSr1DG8Hh+fhygWoI7ylAC/zxsJ2zU6OobeahBp14c6ateo0MNMHcqnmTKmUe+deZ+E6HGCJuCkpILJT5IwIhEqK1asA4mT7tXEu67x8XH0U20TBGKnESD4qKiMaTluT8AevK1NkQiT5ctdRIJe5WLecy5gHbzramnpUPD37k2lkEnAFXimnz1wW7Ml4TKdxsbG1ZuxsSly8uQNlcOCgkoMKF1ImSH9v5kWlYwkzDowCDj3/pMnWW4RSE5+CTPSaenS1fLDDyddk4iOTpLvvruADeWynDlzE93sA9yUh13VGqH+/qHJId1c5r/NSJgk2DI4SiF3wZtGEpwxSMLDY5VzEqOjhqep7deuRWFjCcU2f187WfZTVBp6lh4pLa3RCPX3D6pajY2NqgOamtoUPEmwdXBEICbGNQFb8CaBlJQid0g80ZpgxnR28pyoXye33NwKhD0DqWU0alScR4+4OVFJ8lRWh4aGNRKjo6Pa9RL8gwcpb4E3CGQ7BG6aPYGUFCMCHAdmJHHrVpSmEy0uLgs74xNcoBBdpxVSxkOubt212TqnphaiGPNROzmSnl6MVmVICYyMjCgJthD2hWxGxFkEHIE3CbhBwoqucB/SJWQiEuPQ+aeY5vzFy+tXpNId7XXS0l4CoFV6e0moS6W0spKdbv0kieHhYackYmOzdfd1h0RqqpE6tjYjiXXr9umwMTxsnEzzkIrHIz4+N+TUqety7lywXLwYptGJjc3SFGtoaEXa9WjaDQ0NqTkjQRUygdqDN3/uigBtxnRau3YnCjhIGz5GgqlDFWL3mZKSD4VJ1v4nMDBGZZftRFxcrl60rKxed+zBwQF8DkzWhEnCVRrZgndFgGaSYAPoUGK/+upbJUGVIQmmTkhIHFQhH6CatcDZmpeU1GidsBbo3adP83DhYqRYH0jwuLFfx04Cpxm/k6OtxEwE0tKKp4G2N5JITzcisWTJMpA4YU9i2zQSlMADBy7KsWMBkNpoeDYZBV0GgM2IEHfzbi149kkcY3t6etEQ9qmRBBXIJJGYmK8g50KA9vx5meTkVCASobJwoYc9CatG4vz561oTLO7s7HI5ezYIRX0bk9RdCQiIUAmm/sfFvdBWu7a2SSPEeYMX45E9P5lO3MiYQmYXam+2BKhujkDbG0lwlgkMDJNFi5Y6I3FVc5ua39PTp4djubnlWsjcuKYmMqON4IbHC1dWNugpNuuoq4sRqtd5mCQYBVcEaI4A21tmZgkibswpM5Lo7x+YUBruwsOa4319/WgIO1DkdbhYscokwTEFWIhMqc7OLk0x7uA80WA6ch6wJ2BPgjnuCLStcU7h8MXs4L3cJsFzf+OJTg+sV41keOpNQnV1PG606HTHPDXrhIfAJMFIOOqNbAkwko5A2xojTQKcEM2JcUYSVBkWJ9PCNAKjtbfT05Rew+P8WWtrpx6s8ZP/Z5JgJLij2xKwJ+EItL3RQQYBzvXVNiScFvZV/JBe5xxtgHTHTEKmOSNhS8DsSF0ZwdtGwBh7q6FO96FOi+TwYW/Fa0Nim5Jgbnd0MGWmA3sXc4eEI9DTrRhRqFTwppEAz8CCgx++fxI8ppkriaysct2XzCjQeAzE08Pw8BhZvPiT90PCTCuesc6FBOXUPgokQCHhKSJJLFiwUA4dckKio4PPyd6dhFnw/O6IhC0BV/0Rzdj8iqdFgWnEPo4P8qOjY+Sjjz4CieOOSFwDkA6Q6HkLpCMz1YrfrdZW3Rz5nTd0RcIRcNMYhezsClUlkwDJMAo830pLy5E9e/aAxAKo01HbIxurrFnzrZw+/ase5Xd28gkoH+FOgXQGvLGxRZ8asV/iQxh+LylxHQlH4E0jiYICQ4VMEpxX2KcFB4fA2evlz39eALybILWBuqdNkqDEHjt2HqF+ic3F0GQe7RMoc91MFRO07eMumvnoit+ZTtzknj2bXT3YSmpxsUVnl6NHj6OYF8vf/rZEdu3yxCgQJi0tLUqAa5LE8eM/4yYFmrO8sZG7xdqlVlU1KHAex5iAnRlJcDeeC4miolp0AzXo056o95k+nCFOn/bF3vECPV7/BHxjTZLw9vZXWeMGw+Iye6O0NJLhQGJoN1sN43HVFHA++bElQbCzIcE2g97Pzi4F4PPw/qcg8Il8880uuX07BJnQoKOC/ZpGgl0rw8ht3pwV6B3egMRoHE7M3ZQHx3wGwdQjsZqaBvx7dpHIyqKs1qD7TZUtW7YB/McYflYhlU7gGonaDjlbkyROnPBHGF+plJGIaYZCGKRMY92QHAmxyzQJsaiLiqoVuLskMjM57LzCZ7FcvnwTwD3k44+XyPr12+Xq1etI5crJgzlna5LEf/7jDyWo1bbB/mmPLSlbsyXGfp/pQGA82bDtYG1J2A5BL15wZ66QyMgE2bfvX/KXv/xdPv10hRw8eAQt/1PtpN1Z00iYuW4+pjXIWN4yV+SYgq4OBRITGY1SeL8K3/Pl0qXr8sUXy+XDD/8O6dwqv/xyEXX3ckbv265JEmfPXpjYtNomZdRiadY8N0mZxv7ImZGEs1mCBCgYeXnVmA6T4fGj8te//g8K+AvZu/d7RCRymnS6uz7gKz70ANWAJ9+csc3Wg3NCY6OxqdkaidE4HHGD5P5g/oy14YxEZmY5UqhSbty4Kxs3bkX6/ENWrlwvZ874gliuniDOZn3AF6M8PNbKtm370ZfEIZRlIMBXPMdx0THkJcdTEprauRktq7VF6qoapaKoThrq2qS5+Y1G0tmOTfA80z1+/ByGmiUo3k/0hcWQkLuIev0EnNmtD5h7AQE3ZcWKDQitBzy0V86d85f798Nx4xyAboM28+heMDDxOR128PYesb5uleup1+RB3kVJL4kVS229tLd1a0rZkuAAlJlZAZ0Pl82bd8if/vSRblze3mfw8wyX0unu0tcieCz/7FmyXLhwWbf1xYtXoND+V1av3gqdPgnpuyIpKcn6Ypa5evsGJKosQo4Ub5ZN6Qvkj+xoaW3pREpZlQTTKT29FEQKxcfHVz7/fBWcxI1rp1y7dgOpWDtxpbmvaW/Z8JTDYqkD4DS5fj1IPD29sOkshvcWgtAmFOIP4ufnD/mLlZbXBqHSvjKJa4uW6ja+kNsLEo16QpicXCR37vwhO3bsReosgmOW6wwQHx+P2d39F3fdWW+9KmQuHtnQW76+fhohvk/x4YeLUIyLIImrsKvuQJROSWxUnHRYp0Cxdnh06ed3WZYvp/cXQP2+kd9+C8BQU6Gn5/O9nJLgYr1ERETAu/VofcP1DbSwsHCkxxn58st1iNKnEIUVsnbtRmxW+/QVu9TUNNm9+yDm4M9gyzSaERGRqKU3E1ed/+WSBE+5w8PDVWZ5HuvtfQLFzeP8HvT4NUirBMjjOVm3bitGxqVoGT6H99foWenKlZsQjV+wm+dP9v3va81I4tGjR7rphYYmYOaYeqHWXHwm8Rr1kZ6eoam3efMeyDWjch/K1jrxW+9zifwXMuX2k4SuPWQAAAAASUVORK5CYII=;fontSize=10;labelPosition=center;align=center;" parent="1" vertex="1">
          <mxGeometry x="373.67999999999995" y="3920" width="40" height="40" as="geometry" />
        </mxCell>
        <mxCell id="gUHsCTnRIOJ-MTFSnGW0-17" value="Log 수집" style="shape=image;verticalLabelPosition=top;labelBackgroundColor=none;verticalAlign=bottom;imageAspect=0;image=data:image/png,iVBORw0KGgoAAAANSUhEUgAAADEAAABBCAYAAAB4vkzdAAAAAXNSR0IArs4c6QAAAARnQU1BAACxjwv8YQUAAAAJcEhZcwAAFxEAABcRAcom8z8AABAISURBVGhD3Vr5W1RXts3/1d3pTr+0Q8wLJmocYhyjcWhHjE00toqKrQZiiCYaHEERFVSmKCDIDMqMzCBDAQUyyDwPu9falwtFWVWUgO+Hd75vf1Ui3LvWHtbZ+9z7gfw/WP8nJIaGBqW+vk4aGuqls7NDRkaGJ/5nftZ7J1FXVyOBgcGybt23smnTTjl9+icJCXkoqamZUlxcrOQ6OtplbGxk4i/efb03Ej09XZKQkCDbt3vKV1/tl59+CpFLlx7JiRNXZO/eU7Jq1T/ls8/Wy44d34mPj58EB4dKYmKKZGVlS01NtXR3d05caeb1XkgUFOSJn99FgNwghw/7S0REsrx+3S69vT1IqRbJzy+RmJg0uXUrBuQC5cgRX9myxUtJLVy4EsQPyJkz/vj/+xIXFy8vXmRLbW0N/r574g7T17ySYGrcvh0sGzfulg0bvCQo6ImUllbJwEAfItMtb968gYe7AaZXBgf71ZhKBJiVVQBiqfibKPH1vSoHDvjImjW7ZMGCFbJ06UbZtcsLxM4jNe8gFTMm7miseSExPj4mjx9Hw+s+4uGxBXl/RdLS8gG6U/r6eqW9vd2pdXV1gWCP9Pf3oeCHQKwPf9cuVVW1kpGRi+smyc2bYXLq1M+ye/e/kYbbkJ7bJTPzOepoTO8/ZxIlJcVInQvw/AHZv99XoqPTUcz1ANULL3cAaNtbwJ1ZW5vxuyTG1BsY6Jfh4UFcqwc/b5HCwnLx9w9ChHaIt7e3EueaNYnu7i65ciUARfpvXPSABAQ8xE0qAKBTAdgDfDcjGYMQU5CyXFhYitpKQQ3dkq+/3i5eXl6KgWtWJBITn8nBg8eQ+/9CUV6S5OR8FGwjLtqLm3bBo50AMHdjJBsbmyUpKQ+yHAunRSHqgZDrHXLo0OHZkbBaGyGHp6EkB2XnTh958CAVuWuR1tYWtaam5nmx5ubXcEQXRKFOoqLSoVKxcufOUxCJl/Png2ZHgrl579492bbNE+Yt587dhkxWQjY7cMNWqJIVddA4Z7NYGvVaFks9irpEwsKSoFYx2EPilACJvDOJ4eEhaH6B7NnjidT5Tr7//gJkMAc3oddbEerXuDkJzN0slia18vJaFQcCvn3biIAZhfv3n8nPP7Mm3CIxDpBW+fXX3yFnO8XT008uXw6FElXDU83IfwN8bS096BiUu2axWHHNJqmubpTs7DJ4P1HBm9437e7dBAkNTbQhccg5iY6ON9gln6LP2Y68Pyk//hgMTS4FYONmNTWNuGHDvBidwGuWldVKfHyuAiUBEzjTybQHD5L10yRx+PCRt0mws3z58iX096ysXLkLn9cR1gwFTe/zho6AzNZ4vVevGrBTl8LDSQqanjY8PgXelsTDhykTNbFTjh71AYkexa4kqDpBQSHy5Zdbofs/yu+/R0peXpXmKMNcVVU/b0bgTKHSUno/B5430sYeNImQFL8TfHh4KpyaqZF4i0R/fz+03lvWrt0HDb6LzjMHN6PXG1FkdQj1/Fl5uQWfFs39P/7IRMEauT4dvAH80aMUWCrAp+F3n8uTJy8mSaxf/8/pJKzWJlm9ertcuHAPHmqBZLYp+IKCKqRXtWq1AcAwe2DuWmVlvV4vISHXYc5PgZ8C/vjxCzXzO0mw612z5pvpJBobG9H3eEINYvQHg4PDKO5upFibRoRFV1j4Sq2oqGaSzExmgqf3Kyrq5fnzUgVBubT3Po3pEhGRPgmYn9ONJJ7Lb7/dkWXLvkb2nLInsR818RjFbXSF5hoaGkEv1ItN7Q3Sq0mJMEL8pFdJypkVF9cAvAWyXIc2JQ8an+jU+xERU563B0/i5venT3O1o122bIOSYPfL5ZKE7RoeHgXzPu2L6upeK4nc3EoIQCV27yqQe4VPw/i9sLAaw0yZgqDm37v3tvcJPjIyYxpo0+h1fsbF5YDcc5XgpKRCuXFjDiRs18jIKOaEAaRdD+S3Vb3OdCEhgmeknj3LV4Vh38Od1p5AZKSr1DG8Hh+fhygWoI7ylAC/zxsJ2zU6OobeahBp14c6ateo0MNMHcqnmTKmUe+deZ+E6HGCJuCkpILJT5IwIhEqK1asA4mT7tXEu67x8XH0U20TBGKnESD4qKiMaTluT8AevK1NkQiT5ctdRIJe5WLecy5gHbzramnpUPD37k2lkEnAFXimnz1wW7Ml4TKdxsbG1ZuxsSly8uQNlcOCgkoMKF1ImSH9v5kWlYwkzDowCDj3/pMnWW4RSE5+CTPSaenS1fLDDyddk4iOTpLvvruADeWynDlzE93sA9yUh13VGqH+/qHJId1c5r/NSJgk2DI4SiF3wZtGEpwxSMLDY5VzEqOjhqep7deuRWFjCcU2f187WfZTVBp6lh4pLa3RCPX3D6pajY2NqgOamtoUPEmwdXBEICbGNQFb8CaBlJQid0g80ZpgxnR28pyoXye33NwKhD0DqWU0alScR4+4OVFJ8lRWh4aGNRKjo6Pa9RL8gwcpb4E3CGQ7BG6aPYGUFCMCHAdmJHHrVpSmEy0uLgs74xNcoBBdpxVSxkOubt212TqnphaiGPNROzmSnl6MVmVICYyMjCgJthD2hWxGxFkEHIE3CbhBwoqucB/SJWQiEuPQ+aeY5vzFy+tXpNId7XXS0l4CoFV6e0moS6W0spKdbv0kieHhYackYmOzdfd1h0RqqpE6tjYjiXXr9umwMTxsnEzzkIrHIz4+N+TUqety7lywXLwYptGJjc3SFGtoaEXa9WjaDQ0NqTkjQRUygdqDN3/uigBtxnRau3YnCjhIGz5GgqlDFWL3mZKSD4VJ1v4nMDBGZZftRFxcrl60rKxed+zBwQF8DkzWhEnCVRrZgndFgGaSYAPoUGK/+upbJUGVIQmmTkhIHFQhH6CatcDZmpeU1GidsBbo3adP83DhYqRYH0jwuLFfx04Cpxm/k6OtxEwE0tKKp4G2N5JITzcisWTJMpA4YU9i2zQSlMADBy7KsWMBkNpoeDYZBV0GgM2IEHfzbi149kkcY3t6etEQ9qmRBBXIJJGYmK8g50KA9vx5meTkVCASobJwoYc9CatG4vz561oTLO7s7HI5ezYIRX0bk9RdCQiIUAmm/sfFvdBWu7a2SSPEeYMX45E9P5lO3MiYQmYXam+2BKhujkDbG0lwlgkMDJNFi5Y6I3FVc5ua39PTp4djubnlWsjcuKYmMqON4IbHC1dWNugpNuuoq4sRqtd5mCQYBVcEaI4A21tmZgkibswpM5Lo7x+YUBruwsOa4319/WgIO1DkdbhYscokwTEFWIhMqc7OLk0x7uA80WA6ch6wJ2BPgjnuCLStcU7h8MXs4L3cJsFzf+OJTg+sV41keOpNQnV1PG606HTHPDXrhIfAJMFIOOqNbAkwko5A2xojTQKcEM2JcUYSVBkWJ9PCNAKjtbfT05Rew+P8WWtrpx6s8ZP/Z5JgJLij2xKwJ+EItL3RQQYBzvXVNiScFvZV/JBe5xxtgHTHTEKmOSNhS8DsSF0ZwdtGwBh7q6FO96FOi+TwYW/Fa0Nim5Jgbnd0MGWmA3sXc4eEI9DTrRhRqFTwppEAz8CCgx++fxI8ppkriaysct2XzCjQeAzE08Pw8BhZvPiT90PCTCuesc6FBOXUPgokQCHhKSJJLFiwUA4dckKio4PPyd6dhFnw/O6IhC0BV/0Rzdj8iqdFgWnEPo4P8qOjY+Sjjz4CieOOSFwDkA6Q6HkLpCMz1YrfrdZW3Rz5nTd0RcIRcNMYhezsClUlkwDJMAo830pLy5E9e/aAxAKo01HbIxurrFnzrZw+/ase5Xd28gkoH+FOgXQGvLGxRZ8asV/iQxh+LylxHQlH4E0jiYICQ4VMEpxX2KcFB4fA2evlz39eALybILWBuqdNkqDEHjt2HqF+ic3F0GQe7RMoc91MFRO07eMumvnoit+ZTtzknj2bXT3YSmpxsUVnl6NHj6OYF8vf/rZEdu3yxCgQJi0tLUqAa5LE8eM/4yYFmrO8sZG7xdqlVlU1KHAex5iAnRlJcDeeC4miolp0AzXo056o95k+nCFOn/bF3vECPV7/BHxjTZLw9vZXWeMGw+Iye6O0NJLhQGJoN1sN43HVFHA++bElQbCzIcE2g97Pzi4F4PPw/qcg8Il8880uuX07BJnQoKOC/ZpGgl0rw8ht3pwV6B3egMRoHE7M3ZQHx3wGwdQjsZqaBvx7dpHIyqKs1qD7TZUtW7YB/McYflYhlU7gGonaDjlbkyROnPBHGF+plJGIaYZCGKRMY92QHAmxyzQJsaiLiqoVuLskMjM57LzCZ7FcvnwTwD3k44+XyPr12+Xq1etI5crJgzlna5LEf/7jDyWo1bbB/mmPLSlbsyXGfp/pQGA82bDtYG1J2A5BL15wZ66QyMgE2bfvX/KXv/xdPv10hRw8eAQt/1PtpN1Z00iYuW4+pjXIWN4yV+SYgq4OBRITGY1SeL8K3/Pl0qXr8sUXy+XDD/8O6dwqv/xyEXX3ckbv265JEmfPXpjYtNomZdRiadY8N0mZxv7ImZGEs1mCBCgYeXnVmA6T4fGj8te//g8K+AvZu/d7RCRymnS6uz7gKz70ANWAJ9+csc3Wg3NCY6OxqdkaidE4HHGD5P5g/oy14YxEZmY5UqhSbty4Kxs3bkX6/ENWrlwvZ874gliuniDOZn3AF6M8PNbKtm370ZfEIZRlIMBXPMdx0THkJcdTEprauRktq7VF6qoapaKoThrq2qS5+Y1G0tmOTfA80z1+/ByGmiUo3k/0hcWQkLuIev0EnNmtD5h7AQE3ZcWKDQitBzy0V86d85f798Nx4xyAboM28+heMDDxOR128PYesb5uleup1+RB3kVJL4kVS229tLd1a0rZkuAAlJlZAZ0Pl82bd8if/vSRblze3mfw8wyX0unu0tcieCz/7FmyXLhwWbf1xYtXoND+V1av3gqdPgnpuyIpKcn6Ypa5evsGJKosQo4Ub5ZN6Qvkj+xoaW3pREpZlQTTKT29FEQKxcfHVz7/fBWcxI1rp1y7dgOpWDtxpbmvaW/Z8JTDYqkD4DS5fj1IPD29sOkshvcWgtAmFOIP4ufnD/mLlZbXBqHSvjKJa4uW6ja+kNsLEo16QpicXCR37vwhO3bsReosgmOW6wwQHx+P2d39F3fdWW+9KmQuHtnQW76+fhohvk/x4YeLUIyLIImrsKvuQJROSWxUnHRYp0Cxdnh06ed3WZYvp/cXQP2+kd9+C8BQU6Gn5/O9nJLgYr1ERETAu/VofcP1DbSwsHCkxxn58st1iNKnEIUVsnbtRmxW+/QVu9TUNNm9+yDm4M9gyzSaERGRqKU3E1ed/+WSBE+5w8PDVWZ5HuvtfQLFzeP8HvT4NUirBMjjOVm3bitGxqVoGT6H99foWenKlZsQjV+wm+dP9v3va81I4tGjR7rphYYmYOaYeqHWXHwm8Rr1kZ6eoam3efMeyDWjch/K1jrxW+9zifwXMuX2k4SuPWQAAAAASUVORK5CYII=;fontSize=10;labelPosition=center;align=center;" parent="1" vertex="1">
          <mxGeometry x="433.67999999999995" y="3920" width="40" height="40" as="geometry" />
        </mxCell>
        <mxCell id="gUHsCTnRIOJ-MTFSnGW0-18" value="Monitoring" style="shape=image;verticalLabelPosition=top;labelBackgroundColor=none;verticalAlign=bottom;imageAspect=0;image=data:image/png,iVBORw0KGgoAAAANSUhEUgAAADEAAABBCAYAAAB4vkzdAAAAAXNSR0IArs4c6QAAAARnQU1BAACxjwv8YQUAAAAJcEhZcwAAFxEAABcRAcom8z8AABAISURBVGhD3Vr5W1RXts3/1d3pTr+0Q8wLJmocYhyjcWhHjE00toqKrQZiiCYaHEERFVSmKCDIDMqMzCBDAQUyyDwPu9falwtFWVWUgO+Hd75vf1Ui3LvWHtbZ+9z7gfw/WP8nJIaGBqW+vk4aGuqls7NDRkaGJ/5nftZ7J1FXVyOBgcGybt23smnTTjl9+icJCXkoqamZUlxcrOQ6OtplbGxk4i/efb03Ej09XZKQkCDbt3vKV1/tl59+CpFLlx7JiRNXZO/eU7Jq1T/ls8/Wy44d34mPj58EB4dKYmKKZGVlS01NtXR3d05caeb1XkgUFOSJn99FgNwghw/7S0REsrx+3S69vT1IqRbJzy+RmJg0uXUrBuQC5cgRX9myxUtJLVy4EsQPyJkz/vj/+xIXFy8vXmRLbW0N/r574g7T17ySYGrcvh0sGzfulg0bvCQo6ImUllbJwEAfItMtb968gYe7AaZXBgf71ZhKBJiVVQBiqfibKPH1vSoHDvjImjW7ZMGCFbJ06UbZtcsLxM4jNe8gFTMm7miseSExPj4mjx9Hw+s+4uGxBXl/RdLS8gG6U/r6eqW9vd2pdXV1gWCP9Pf3oeCHQKwPf9cuVVW1kpGRi+smyc2bYXLq1M+ye/e/kYbbkJ7bJTPzOepoTO8/ZxIlJcVInQvw/AHZv99XoqPTUcz1ANULL3cAaNtbwJ1ZW5vxuyTG1BsY6Jfh4UFcqwc/b5HCwnLx9w9ChHaIt7e3EueaNYnu7i65ciUARfpvXPSABAQ8xE0qAKBTAdgDfDcjGYMQU5CyXFhYitpKQQ3dkq+/3i5eXl6KgWtWJBITn8nBg8eQ+/9CUV6S5OR8FGwjLtqLm3bBo50AMHdjJBsbmyUpKQ+yHAunRSHqgZDrHXLo0OHZkbBaGyGHp6EkB2XnTh958CAVuWuR1tYWtaam5nmx5ubXcEQXRKFOoqLSoVKxcufOUxCJl/Png2ZHgrl579492bbNE+Yt587dhkxWQjY7cMNWqJIVddA4Z7NYGvVaFks9irpEwsKSoFYx2EPilACJvDOJ4eEhaH6B7NnjidT5Tr7//gJkMAc3oddbEerXuDkJzN0slia18vJaFQcCvn3biIAZhfv3n8nPP7Mm3CIxDpBW+fXX3yFnO8XT008uXw6FElXDU83IfwN8bS096BiUu2axWHHNJqmubpTs7DJ4P1HBm9437e7dBAkNTbQhccg5iY6ON9gln6LP2Y68Pyk//hgMTS4FYONmNTWNuGHDvBidwGuWldVKfHyuAiUBEzjTybQHD5L10yRx+PCRt0mws3z58iX096ysXLkLn9cR1gwFTe/zho6AzNZ4vVevGrBTl8LDSQqanjY8PgXelsTDhykTNbFTjh71AYkexa4kqDpBQSHy5Zdbofs/yu+/R0peXpXmKMNcVVU/b0bgTKHSUno/B5430sYeNImQFL8TfHh4KpyaqZF4i0R/fz+03lvWrt0HDb6LzjMHN6PXG1FkdQj1/Fl5uQWfFs39P/7IRMEauT4dvAH80aMUWCrAp+F3n8uTJy8mSaxf/8/pJKzWJlm9ertcuHAPHmqBZLYp+IKCKqRXtWq1AcAwe2DuWmVlvV4vISHXYc5PgZ8C/vjxCzXzO0mw612z5pvpJBobG9H3eEINYvQHg4PDKO5upFibRoRFV1j4Sq2oqGaSzExmgqf3Kyrq5fnzUgVBubT3Po3pEhGRPgmYn9ONJJ7Lb7/dkWXLvkb2nLInsR818RjFbXSF5hoaGkEv1ItN7Q3Sq0mJMEL8pFdJypkVF9cAvAWyXIc2JQ8an+jU+xERU563B0/i5venT3O1o122bIOSYPfL5ZKE7RoeHgXzPu2L6upeK4nc3EoIQCV27yqQe4VPw/i9sLAaw0yZgqDm37v3tvcJPjIyYxpo0+h1fsbF5YDcc5XgpKRCuXFjDiRs18jIKOaEAaRdD+S3Vb3OdCEhgmeknj3LV4Vh38Od1p5AZKSr1DG8Hh+fhygWoI7ylAC/zxsJ2zU6OobeahBp14c6ateo0MNMHcqnmTKmUe+deZ+E6HGCJuCkpILJT5IwIhEqK1asA4mT7tXEu67x8XH0U20TBGKnESD4qKiMaTluT8AevK1NkQiT5ctdRIJe5WLecy5gHbzramnpUPD37k2lkEnAFXimnz1wW7Ml4TKdxsbG1ZuxsSly8uQNlcOCgkoMKF1ImSH9v5kWlYwkzDowCDj3/pMnWW4RSE5+CTPSaenS1fLDDyddk4iOTpLvvruADeWynDlzE93sA9yUh13VGqH+/qHJId1c5r/NSJgk2DI4SiF3wZtGEpwxSMLDY5VzEqOjhqep7deuRWFjCcU2f187WfZTVBp6lh4pLa3RCPX3D6pajY2NqgOamtoUPEmwdXBEICbGNQFb8CaBlJQid0g80ZpgxnR28pyoXye33NwKhD0DqWU0alScR4+4OVFJ8lRWh4aGNRKjo6Pa9RL8gwcpb4E3CGQ7BG6aPYGUFCMCHAdmJHHrVpSmEy0uLgs74xNcoBBdpxVSxkOubt212TqnphaiGPNROzmSnl6MVmVICYyMjCgJthD2hWxGxFkEHIE3CbhBwoqucB/SJWQiEuPQ+aeY5vzFy+tXpNId7XXS0l4CoFV6e0moS6W0spKdbv0kieHhYackYmOzdfd1h0RqqpE6tjYjiXXr9umwMTxsnEzzkIrHIz4+N+TUqety7lywXLwYptGJjc3SFGtoaEXa9WjaDQ0NqTkjQRUygdqDN3/uigBtxnRau3YnCjhIGz5GgqlDFWL3mZKSD4VJ1v4nMDBGZZftRFxcrl60rKxed+zBwQF8DkzWhEnCVRrZgndFgGaSYAPoUGK/+upbJUGVIQmmTkhIHFQhH6CatcDZmpeU1GidsBbo3adP83DhYqRYH0jwuLFfx04Cpxm/k6OtxEwE0tKKp4G2N5JITzcisWTJMpA4YU9i2zQSlMADBy7KsWMBkNpoeDYZBV0GgM2IEHfzbi149kkcY3t6etEQ9qmRBBXIJJGYmK8g50KA9vx5meTkVCASobJwoYc9CatG4vz561oTLO7s7HI5ezYIRX0bk9RdCQiIUAmm/sfFvdBWu7a2SSPEeYMX45E9P5lO3MiYQmYXam+2BKhujkDbG0lwlgkMDJNFi5Y6I3FVc5ua39PTp4djubnlWsjcuKYmMqON4IbHC1dWNugpNuuoq4sRqtd5mCQYBVcEaI4A21tmZgkibswpM5Lo7x+YUBruwsOa4319/WgIO1DkdbhYscokwTEFWIhMqc7OLk0x7uA80WA6ch6wJ2BPgjnuCLStcU7h8MXs4L3cJsFzf+OJTg+sV41keOpNQnV1PG606HTHPDXrhIfAJMFIOOqNbAkwko5A2xojTQKcEM2JcUYSVBkWJ9PCNAKjtbfT05Rew+P8WWtrpx6s8ZP/Z5JgJLij2xKwJ+EItL3RQQYBzvXVNiScFvZV/JBe5xxtgHTHTEKmOSNhS8DsSF0ZwdtGwBh7q6FO96FOi+TwYW/Fa0Nim5Jgbnd0MGWmA3sXc4eEI9DTrRhRqFTwppEAz8CCgx++fxI8ppkriaysct2XzCjQeAzE08Pw8BhZvPiT90PCTCuesc6FBOXUPgokQCHhKSJJLFiwUA4dckKio4PPyd6dhFnw/O6IhC0BV/0Rzdj8iqdFgWnEPo4P8qOjY+Sjjz4CieOOSFwDkA6Q6HkLpCMz1YrfrdZW3Rz5nTd0RcIRcNMYhezsClUlkwDJMAo830pLy5E9e/aAxAKo01HbIxurrFnzrZw+/ase5Xd28gkoH+FOgXQGvLGxRZ8asV/iQxh+LylxHQlH4E0jiYICQ4VMEpxX2KcFB4fA2evlz39eALybILWBuqdNkqDEHjt2HqF+ic3F0GQe7RMoc91MFRO07eMumvnoit+ZTtzknj2bXT3YSmpxsUVnl6NHj6OYF8vf/rZEdu3yxCgQJi0tLUqAa5LE8eM/4yYFmrO8sZG7xdqlVlU1KHAex5iAnRlJcDeeC4miolp0AzXo056o95k+nCFOn/bF3vECPV7/BHxjTZLw9vZXWeMGw+Iye6O0NJLhQGJoN1sN43HVFHA++bElQbCzIcE2g97Pzi4F4PPw/qcg8Il8880uuX07BJnQoKOC/ZpGgl0rw8ht3pwV6B3egMRoHE7M3ZQHx3wGwdQjsZqaBvx7dpHIyqKs1qD7TZUtW7YB/McYflYhlU7gGonaDjlbkyROnPBHGF+plJGIaYZCGKRMY92QHAmxyzQJsaiLiqoVuLskMjM57LzCZ7FcvnwTwD3k44+XyPr12+Xq1etI5crJgzlna5LEf/7jDyWo1bbB/mmPLSlbsyXGfp/pQGA82bDtYG1J2A5BL15wZ66QyMgE2bfvX/KXv/xdPv10hRw8eAQt/1PtpN1Z00iYuW4+pjXIWN4yV+SYgq4OBRITGY1SeL8K3/Pl0qXr8sUXy+XDD/8O6dwqv/xyEXX3ckbv265JEmfPXpjYtNomZdRiadY8N0mZxv7ImZGEs1mCBCgYeXnVmA6T4fGj8te//g8K+AvZu/d7RCRymnS6uz7gKz70ANWAJ9+csc3Wg3NCY6OxqdkaidE4HHGD5P5g/oy14YxEZmY5UqhSbty4Kxs3bkX6/ENWrlwvZ874gliuniDOZn3AF6M8PNbKtm370ZfEIZRlIMBXPMdx0THkJcdTEprauRktq7VF6qoapaKoThrq2qS5+Y1G0tmOTfA80z1+/ByGmiUo3k/0hcWQkLuIev0EnNmtD5h7AQE3ZcWKDQitBzy0V86d85f798Nx4xyAboM28+heMDDxOR128PYesb5uleup1+RB3kVJL4kVS229tLd1a0rZkuAAlJlZAZ0Pl82bd8if/vSRblze3mfw8wyX0unu0tcieCz/7FmyXLhwWbf1xYtXoND+V1av3gqdPgnpuyIpKcn6Ypa5evsGJKosQo4Ub5ZN6Qvkj+xoaW3pREpZlQTTKT29FEQKxcfHVz7/fBWcxI1rp1y7dgOpWDtxpbmvaW/Z8JTDYqkD4DS5fj1IPD29sOkshvcWgtAmFOIP4ufnD/mLlZbXBqHSvjKJa4uW6ja+kNsLEo16QpicXCR37vwhO3bsReosgmOW6wwQHx+P2d39F3fdWW+9KmQuHtnQW76+fhohvk/x4YeLUIyLIImrsKvuQJROSWxUnHRYp0Cxdnh06ed3WZYvp/cXQP2+kd9+C8BQU6Gn5/O9nJLgYr1ERETAu/VofcP1DbSwsHCkxxn58st1iNKnEIUVsnbtRmxW+/QVu9TUNNm9+yDm4M9gyzSaERGRqKU3E1ed/+WSBE+5w8PDVWZ5HuvtfQLFzeP8HvT4NUirBMjjOVm3bitGxqVoGT6H99foWenKlZsQjV+wm+dP9v3va81I4tGjR7rphYYmYOaYeqHWXHwm8Rr1kZ6eoam3efMeyDWjch/K1jrxW+9zifwXMuX2k4SuPWQAAAAASUVORK5CYII=;fontSize=10;labelPosition=center;align=center;" parent="1" vertex="1">
          <mxGeometry x="493.67999999999995" y="3920" width="40" height="40" as="geometry" />
        </mxCell>
        <mxCell id="gUHsCTnRIOJ-MTFSnGW0-19" value="DB제어" style="shape=image;verticalLabelPosition=top;labelBackgroundColor=none;verticalAlign=bottom;imageAspect=0;image=data:image/png,iVBORw0KGgoAAAANSUhEUgAAADEAAABBCAYAAAB4vkzdAAAAAXNSR0IArs4c6QAAAARnQU1BAACxjwv8YQUAAAAJcEhZcwAAFxEAABcRAcom8z8AABAISURBVGhD3Vr5W1RXts3/1d3pTr+0Q8wLJmocYhyjcWhHjE00toqKrQZiiCYaHEERFVSmKCDIDMqMzCBDAQUyyDwPu9falwtFWVWUgO+Hd75vf1Ui3LvWHtbZ+9z7gfw/WP8nJIaGBqW+vk4aGuqls7NDRkaGJ/5nftZ7J1FXVyOBgcGybt23smnTTjl9+icJCXkoqamZUlxcrOQ6OtplbGxk4i/efb03Ej09XZKQkCDbt3vKV1/tl59+CpFLlx7JiRNXZO/eU7Jq1T/ls8/Wy44d34mPj58EB4dKYmKKZGVlS01NtXR3d05caeb1XkgUFOSJn99FgNwghw/7S0REsrx+3S69vT1IqRbJzy+RmJg0uXUrBuQC5cgRX9myxUtJLVy4EsQPyJkz/vj/+xIXFy8vXmRLbW0N/r574g7T17ySYGrcvh0sGzfulg0bvCQo6ImUllbJwEAfItMtb968gYe7AaZXBgf71ZhKBJiVVQBiqfibKPH1vSoHDvjImjW7ZMGCFbJ06UbZtcsLxM4jNe8gFTMm7miseSExPj4mjx9Hw+s+4uGxBXl/RdLS8gG6U/r6eqW9vd2pdXV1gWCP9Pf3oeCHQKwPf9cuVVW1kpGRi+smyc2bYXLq1M+ye/e/kYbbkJ7bJTPzOepoTO8/ZxIlJcVInQvw/AHZv99XoqPTUcz1ANULL3cAaNtbwJ1ZW5vxuyTG1BsY6Jfh4UFcqwc/b5HCwnLx9w9ChHaIt7e3EueaNYnu7i65ciUARfpvXPSABAQ8xE0qAKBTAdgDfDcjGYMQU5CyXFhYitpKQQ3dkq+/3i5eXl6KgWtWJBITn8nBg8eQ+/9CUV6S5OR8FGwjLtqLm3bBo50AMHdjJBsbmyUpKQ+yHAunRSHqgZDrHXLo0OHZkbBaGyGHp6EkB2XnTh958CAVuWuR1tYWtaam5nmx5ubXcEQXRKFOoqLSoVKxcufOUxCJl/Png2ZHgrl579492bbNE+Yt587dhkxWQjY7cMNWqJIVddA4Z7NYGvVaFks9irpEwsKSoFYx2EPilACJvDOJ4eEhaH6B7NnjidT5Tr7//gJkMAc3oddbEerXuDkJzN0slia18vJaFQcCvn3biIAZhfv3n8nPP7Mm3CIxDpBW+fXX3yFnO8XT008uXw6FElXDU83IfwN8bS096BiUu2axWHHNJqmubpTs7DJ4P1HBm9437e7dBAkNTbQhccg5iY6ON9gln6LP2Y68Pyk//hgMTS4FYONmNTWNuGHDvBidwGuWldVKfHyuAiUBEzjTybQHD5L10yRx+PCRt0mws3z58iX096ysXLkLn9cR1gwFTe/zho6AzNZ4vVevGrBTl8LDSQqanjY8PgXelsTDhykTNbFTjh71AYkexa4kqDpBQSHy5Zdbofs/yu+/R0peXpXmKMNcVVU/b0bgTKHSUno/B5430sYeNImQFL8TfHh4KpyaqZF4i0R/fz+03lvWrt0HDb6LzjMHN6PXG1FkdQj1/Fl5uQWfFs39P/7IRMEauT4dvAH80aMUWCrAp+F3n8uTJy8mSaxf/8/pJKzWJlm9ertcuHAPHmqBZLYp+IKCKqRXtWq1AcAwe2DuWmVlvV4vISHXYc5PgZ8C/vjxCzXzO0mw612z5pvpJBobG9H3eEINYvQHg4PDKO5upFibRoRFV1j4Sq2oqGaSzExmgqf3Kyrq5fnzUgVBubT3Po3pEhGRPgmYn9ONJJ7Lb7/dkWXLvkb2nLInsR818RjFbXSF5hoaGkEv1ItN7Q3Sq0mJMEL8pFdJypkVF9cAvAWyXIc2JQ8an+jU+xERU563B0/i5venT3O1o122bIOSYPfL5ZKE7RoeHgXzPu2L6upeK4nc3EoIQCV27yqQe4VPw/i9sLAaw0yZgqDm37v3tvcJPjIyYxpo0+h1fsbF5YDcc5XgpKRCuXFjDiRs18jIKOaEAaRdD+S3Vb3OdCEhgmeknj3LV4Vh38Od1p5AZKSr1DG8Hh+fhygWoI7ylAC/zxsJ2zU6OobeahBp14c6ateo0MNMHcqnmTKmUe+deZ+E6HGCJuCkpILJT5IwIhEqK1asA4mT7tXEu67x8XH0U20TBGKnESD4qKiMaTluT8AevK1NkQiT5ctdRIJe5WLecy5gHbzramnpUPD37k2lkEnAFXimnz1wW7Ml4TKdxsbG1ZuxsSly8uQNlcOCgkoMKF1ImSH9v5kWlYwkzDowCDj3/pMnWW4RSE5+CTPSaenS1fLDDyddk4iOTpLvvruADeWynDlzE93sA9yUh13VGqH+/qHJId1c5r/NSJgk2DI4SiF3wZtGEpwxSMLDY5VzEqOjhqep7deuRWFjCcU2f187WfZTVBp6lh4pLa3RCPX3D6pajY2NqgOamtoUPEmwdXBEICbGNQFb8CaBlJQid0g80ZpgxnR28pyoXye33NwKhD0DqWU0alScR4+4OVFJ8lRWh4aGNRKjo6Pa9RL8gwcpb4E3CGQ7BG6aPYGUFCMCHAdmJHHrVpSmEy0uLgs74xNcoBBdpxVSxkOubt212TqnphaiGPNROzmSnl6MVmVICYyMjCgJthD2hWxGxFkEHIE3CbhBwoqucB/SJWQiEuPQ+aeY5vzFy+tXpNId7XXS0l4CoFV6e0moS6W0spKdbv0kieHhYackYmOzdfd1h0RqqpE6tjYjiXXr9umwMTxsnEzzkIrHIz4+N+TUqety7lywXLwYptGJjc3SFGtoaEXa9WjaDQ0NqTkjQRUygdqDN3/uigBtxnRau3YnCjhIGz5GgqlDFWL3mZKSD4VJ1v4nMDBGZZftRFxcrl60rKxed+zBwQF8DkzWhEnCVRrZgndFgGaSYAPoUGK/+upbJUGVIQmmTkhIHFQhH6CatcDZmpeU1GidsBbo3adP83DhYqRYH0jwuLFfx04Cpxm/k6OtxEwE0tKKp4G2N5JITzcisWTJMpA4YU9i2zQSlMADBy7KsWMBkNpoeDYZBV0GgM2IEHfzbi149kkcY3t6etEQ9qmRBBXIJJGYmK8g50KA9vx5meTkVCASobJwoYc9CatG4vz561oTLO7s7HI5ezYIRX0bk9RdCQiIUAmm/sfFvdBWu7a2SSPEeYMX45E9P5lO3MiYQmYXam+2BKhujkDbG0lwlgkMDJNFi5Y6I3FVc5ua39PTp4djubnlWsjcuKYmMqON4IbHC1dWNugpNuuoq4sRqtd5mCQYBVcEaI4A21tmZgkibswpM5Lo7x+YUBruwsOa4319/WgIO1DkdbhYscokwTEFWIhMqc7OLk0x7uA80WA6ch6wJ2BPgjnuCLStcU7h8MXs4L3cJsFzf+OJTg+sV41keOpNQnV1PG606HTHPDXrhIfAJMFIOOqNbAkwko5A2xojTQKcEM2JcUYSVBkWJ9PCNAKjtbfT05Rew+P8WWtrpx6s8ZP/Z5JgJLij2xKwJ+EItL3RQQYBzvXVNiScFvZV/JBe5xxtgHTHTEKmOSNhS8DsSF0ZwdtGwBh7q6FO96FOi+TwYW/Fa0Nim5Jgbnd0MGWmA3sXc4eEI9DTrRhRqFTwppEAz8CCgx++fxI8ppkriaysct2XzCjQeAzE08Pw8BhZvPiT90PCTCuesc6FBOXUPgokQCHhKSJJLFiwUA4dckKio4PPyd6dhFnw/O6IhC0BV/0Rzdj8iqdFgWnEPo4P8qOjY+Sjjz4CieOOSFwDkA6Q6HkLpCMz1YrfrdZW3Rz5nTd0RcIRcNMYhezsClUlkwDJMAo830pLy5E9e/aAxAKo01HbIxurrFnzrZw+/ase5Xd28gkoH+FOgXQGvLGxRZ8asV/iQxh+LylxHQlH4E0jiYICQ4VMEpxX2KcFB4fA2evlz39eALybILWBuqdNkqDEHjt2HqF+ic3F0GQe7RMoc91MFRO07eMumvnoit+ZTtzknj2bXT3YSmpxsUVnl6NHj6OYF8vf/rZEdu3yxCgQJi0tLUqAa5LE8eM/4yYFmrO8sZG7xdqlVlU1KHAex5iAnRlJcDeeC4miolp0AzXo056o95k+nCFOn/bF3vECPV7/BHxjTZLw9vZXWeMGw+Iye6O0NJLhQGJoN1sN43HVFHA++bElQbCzIcE2g97Pzi4F4PPw/qcg8Il8880uuX07BJnQoKOC/ZpGgl0rw8ht3pwV6B3egMRoHE7M3ZQHx3wGwdQjsZqaBvx7dpHIyqKs1qD7TZUtW7YB/McYflYhlU7gGonaDjlbkyROnPBHGF+plJGIaYZCGKRMY92QHAmxyzQJsaiLiqoVuLskMjM57LzCZ7FcvnwTwD3k44+XyPr12+Xq1etI5crJgzlna5LEf/7jDyWo1bbB/mmPLSlbsyXGfp/pQGA82bDtYG1J2A5BL15wZ66QyMgE2bfvX/KXv/xdPv10hRw8eAQt/1PtpN1Z00iYuW4+pjXIWN4yV+SYgq4OBRITGY1SeL8K3/Pl0qXr8sUXy+XDD/8O6dwqv/xyEXX3ckbv265JEmfPXpjYtNomZdRiadY8N0mZxv7ImZGEs1mCBCgYeXnVmA6T4fGj8te//g8K+AvZu/d7RCRymnS6uz7gKz70ANWAJ9+csc3Wg3NCY6OxqdkaidE4HHGD5P5g/oy14YxEZmY5UqhSbty4Kxs3bkX6/ENWrlwvZ874gliuniDOZn3AF6M8PNbKtm370ZfEIZRlIMBXPMdx0THkJcdTEprauRktq7VF6qoapaKoThrq2qS5+Y1G0tmOTfA80z1+/ByGmiUo3k/0hcWQkLuIev0EnNmtD5h7AQE3ZcWKDQitBzy0V86d85f798Nx4xyAboM28+heMDDxOR128PYesb5uleup1+RB3kVJL4kVS229tLd1a0rZkuAAlJlZAZ0Pl82bd8if/vSRblze3mfw8wyX0unu0tcieCz/7FmyXLhwWbf1xYtXoND+V1av3gqdPgnpuyIpKcn6Ypa5evsGJKosQo4Ub5ZN6Qvkj+xoaW3pREpZlQTTKT29FEQKxcfHVz7/fBWcxI1rp1y7dgOpWDtxpbmvaW/Z8JTDYqkD4DS5fj1IPD29sOkshvcWgtAmFOIP4ufnD/mLlZbXBqHSvjKJa4uW6ja+kNsLEo16QpicXCR37vwhO3bsReosgmOW6wwQHx+P2d39F3fdWW+9KmQuHtnQW76+fhohvk/x4YeLUIyLIImrsKvuQJROSWxUnHRYp0Cxdnh06ed3WZYvp/cXQP2+kd9+C8BQU6Gn5/O9nJLgYr1ERETAu/VofcP1DbSwsHCkxxn58st1iNKnEIUVsnbtRmxW+/QVu9TUNNm9+yDm4M9gyzSaERGRqKU3E1ed/+WSBE+5w8PDVWZ5HuvtfQLFzeP8HvT4NUirBMjjOVm3bitGxqVoGT6H99foWenKlZsQjV+wm+dP9v3va81I4tGjR7rphYYmYOaYeqHWXHwm8Rr1kZ6eoam3efMeyDWjch/K1jrxW+9zifwXMuX2k4SuPWQAAAAASUVORK5CYII=;fontSize=10;labelPosition=center;align=center;" parent="1" vertex="1">
          <mxGeometry x="552.15" y="3920" width="40" height="40" as="geometry" />
        </mxCell>
        <mxCell id="gUHsCTnRIOJ-MTFSnGW0-20" value="" style="html=1;strokeWidth=1;shadow=0;dashed=0;shape=mxgraph.ios7.misc.vpn;fillColor=#007AFF;strokeColor=none;buttonText=;strokeColor2=#222222;fontColor=#222222;fontSize=8;verticalLabelPosition=bottom;verticalAlign=top;align=center;sketch=0;" parent="1" vertex="1">
          <mxGeometry x="607.66" y="3800" width="30" height="30" as="geometry" />
        </mxCell>
        <mxCell id="gUHsCTnRIOJ-MTFSnGW0-21" value="IPsec VPN" style="edgeStyle=orthogonalEdgeStyle;rounded=0;orthogonalLoop=1;jettySize=auto;html=1;entryX=0.996;entryY=0.533;entryDx=0;entryDy=0;entryPerimeter=0;endArrow=none;endFill=0;strokeWidth=2;fillColor=#cce5ff;strokeColor=#66B2FF;labelBackgroundColor=none;labelPosition=center;verticalLabelPosition=top;align=center;verticalAlign=bottom;fontStyle=1;exitX=0.041;exitY=0.497;exitDx=0;exitDy=0;exitPerimeter=0;" parent="1" source="gUHsCTnRIOJ-MTFSnGW0-24" target="gUHsCTnRIOJ-MTFSnGW0-20" edge="1">
          <mxGeometry relative="1" as="geometry">
            <Array as="points">
              <mxPoint x="704" y="3816" />
            </Array>
          </mxGeometry>
        </mxCell>
        <mxCell id="gUHsCTnRIOJ-MTFSnGW0-24" value="" style="html=1;strokeWidth=1;shadow=0;dashed=0;shape=mxgraph.ios7.misc.vpn;fillColor=#007AFF;strokeColor=none;buttonText=;strokeColor2=#222222;fontColor=#222222;fontSize=8;verticalLabelPosition=bottom;verticalAlign=top;align=center;sketch=0;" parent="1" vertex="1">
          <mxGeometry x="702.92" y="3800" width="30" height="30" as="geometry" />
        </mxCell>
        <mxCell id="gUHsCTnRIOJ-MTFSnGW0-26" value="" style="shape=flexArrow;endArrow=classic;html=1;rounded=0;fillColor=#000075;strokeColor=none;width=18.77777777777778;endSize=9.203333333333333;exitX=0.5;exitY=1;exitDx=0;exitDy=0;" parent="1" source="gUHsCTnRIOJ-MTFSnGW0-36" target="gUHsCTnRIOJ-MTFSnGW0-9" edge="1">
          <mxGeometry width="50" height="50" relative="1" as="geometry">
            <mxPoint x="442.91999999999996" y="3680" as="sourcePoint" />
            <mxPoint x="442.91999999999996" y="3740" as="targetPoint" />
            <Array as="points" />
          </mxGeometry>
        </mxCell>
        <mxCell id="gUHsCTnRIOJ-MTFSnGW0-27" value="DR Zone" style="rounded=0;whiteSpace=wrap;html=1;fillColor=#000075;fontColor=#ffffff;fontStyle=1;fontSize=16;" parent="1" vertex="1">
          <mxGeometry x="718.14" y="3740" width="250" height="30" as="geometry" />
        </mxCell>
        <mxCell id="gUHsCTnRIOJ-MTFSnGW0-28" value="통합서버#1" style="shape=image;verticalLabelPosition=top;labelBackgroundColor=none;verticalAlign=bottom;imageAspect=0;image=data:image/png,iVBORw0KGgoAAAANSUhEUgAAADEAAABBCAYAAAB4vkzdAAAAAXNSR0IArs4c6QAAAARnQU1BAACxjwv8YQUAAAAJcEhZcwAAFxEAABcRAcom8z8AABAISURBVGhD3Vr5W1RXts3/1d3pTr+0Q8wLJmocYhyjcWhHjE00toqKrQZiiCYaHEERFVSmKCDIDMqMzCBDAQUyyDwPu9falwtFWVWUgO+Hd75vf1Ui3LvWHtbZ+9z7gfw/WP8nJIaGBqW+vk4aGuqls7NDRkaGJ/5nftZ7J1FXVyOBgcGybt23smnTTjl9+icJCXkoqamZUlxcrOQ6OtplbGxk4i/efb03Ej09XZKQkCDbt3vKV1/tl59+CpFLlx7JiRNXZO/eU7Jq1T/ls8/Wy44d34mPj58EB4dKYmKKZGVlS01NtXR3d05caeb1XkgUFOSJn99FgNwghw/7S0REsrx+3S69vT1IqRbJzy+RmJg0uXUrBuQC5cgRX9myxUtJLVy4EsQPyJkz/vj/+xIXFy8vXmRLbW0N/r574g7T17ySYGrcvh0sGzfulg0bvCQo6ImUllbJwEAfItMtb968gYe7AaZXBgf71ZhKBJiVVQBiqfibKPH1vSoHDvjImjW7ZMGCFbJ06UbZtcsLxM4jNe8gFTMm7miseSExPj4mjx9Hw+s+4uGxBXl/RdLS8gG6U/r6eqW9vd2pdXV1gWCP9Pf3oeCHQKwPf9cuVVW1kpGRi+smyc2bYXLq1M+ye/e/kYbbkJ7bJTPzOepoTO8/ZxIlJcVInQvw/AHZv99XoqPTUcz1ANULL3cAaNtbwJ1ZW5vxuyTG1BsY6Jfh4UFcqwc/b5HCwnLx9w9ChHaIt7e3EueaNYnu7i65ciUARfpvXPSABAQ8xE0qAKBTAdgDfDcjGYMQU5CyXFhYitpKQQ3dkq+/3i5eXl6KgWtWJBITn8nBg8eQ+/9CUV6S5OR8FGwjLtqLm3bBo50AMHdjJBsbmyUpKQ+yHAunRSHqgZDrHXLo0OHZkbBaGyGHp6EkB2XnTh958CAVuWuR1tYWtaam5nmx5ubXcEQXRKFOoqLSoVKxcufOUxCJl/Png2ZHgrl579492bbNE+Yt587dhkxWQjY7cMNWqJIVddA4Z7NYGvVaFks9irpEwsKSoFYx2EPilACJvDOJ4eEhaH6B7NnjidT5Tr7//gJkMAc3oddbEerXuDkJzN0slia18vJaFQcCvn3biIAZhfv3n8nPP7Mm3CIxDpBW+fXX3yFnO8XT008uXw6FElXDU83IfwN8bS096BiUu2axWHHNJqmubpTs7DJ4P1HBm9437e7dBAkNTbQhccg5iY6ON9gln6LP2Y68Pyk//hgMTS4FYONmNTWNuGHDvBidwGuWldVKfHyuAiUBEzjTybQHD5L10yRx+PCRt0mws3z58iX096ysXLkLn9cR1gwFTe/zho6AzNZ4vVevGrBTl8LDSQqanjY8PgXelsTDhykTNbFTjh71AYkexa4kqDpBQSHy5Zdbofs/yu+/R0peXpXmKMNcVVU/b0bgTKHSUno/B5430sYeNImQFL8TfHh4KpyaqZF4i0R/fz+03lvWrt0HDb6LzjMHN6PXG1FkdQj1/Fl5uQWfFs39P/7IRMEauT4dvAH80aMUWCrAp+F3n8uTJy8mSaxf/8/pJKzWJlm9ertcuHAPHmqBZLYp+IKCKqRXtWq1AcAwe2DuWmVlvV4vISHXYc5PgZ8C/vjxCzXzO0mw612z5pvpJBobG9H3eEINYvQHg4PDKO5upFibRoRFV1j4Sq2oqGaSzExmgqf3Kyrq5fnzUgVBubT3Po3pEhGRPgmYn9ONJJ7Lb7/dkWXLvkb2nLInsR818RjFbXSF5hoaGkEv1ItN7Q3Sq0mJMEL8pFdJypkVF9cAvAWyXIc2JQ8an+jU+xERU563B0/i5venT3O1o122bIOSYPfL5ZKE7RoeHgXzPu2L6upeK4nc3EoIQCV27yqQe4VPw/i9sLAaw0yZgqDm37v3tvcJPjIyYxpo0+h1fsbF5YDcc5XgpKRCuXFjDiRs18jIKOaEAaRdD+S3Vb3OdCEhgmeknj3LV4Vh38Od1p5AZKSr1DG8Hh+fhygWoI7ylAC/zxsJ2zU6OobeahBp14c6ateo0MNMHcqnmTKmUe+deZ+E6HGCJuCkpILJT5IwIhEqK1asA4mT7tXEu67x8XH0U20TBGKnESD4qKiMaTluT8AevK1NkQiT5ctdRIJe5WLecy5gHbzramnpUPD37k2lkEnAFXimnz1wW7Ml4TKdxsbG1ZuxsSly8uQNlcOCgkoMKF1ImSH9v5kWlYwkzDowCDj3/pMnWW4RSE5+CTPSaenS1fLDDyddk4iOTpLvvruADeWynDlzE93sA9yUh13VGqH+/qHJId1c5r/NSJgk2DI4SiF3wZtGEpwxSMLDY5VzEqOjhqep7deuRWFjCcU2f187WfZTVBp6lh4pLa3RCPX3D6pajY2NqgOamtoUPEmwdXBEICbGNQFb8CaBlJQid0g80ZpgxnR28pyoXye33NwKhD0DqWU0alScR4+4OVFJ8lRWh4aGNRKjo6Pa9RL8gwcpb4E3CGQ7BG6aPYGUFCMCHAdmJHHrVpSmEy0uLgs74xNcoBBdpxVSxkOubt212TqnphaiGPNROzmSnl6MVmVICYyMjCgJthD2hWxGxFkEHIE3CbhBwoqucB/SJWQiEuPQ+aeY5vzFy+tXpNId7XXS0l4CoFV6e0moS6W0spKdbv0kieHhYackYmOzdfd1h0RqqpE6tjYjiXXr9umwMTxsnEzzkIrHIz4+N+TUqety7lywXLwYptGJjc3SFGtoaEXa9WjaDQ0NqTkjQRUygdqDN3/uigBtxnRau3YnCjhIGz5GgqlDFWL3mZKSD4VJ1v4nMDBGZZftRFxcrl60rKxed+zBwQF8DkzWhEnCVRrZgndFgGaSYAPoUGK/+upbJUGVIQmmTkhIHFQhH6CatcDZmpeU1GidsBbo3adP83DhYqRYH0jwuLFfx04Cpxm/k6OtxEwE0tKKp4G2N5JITzcisWTJMpA4YU9i2zQSlMADBy7KsWMBkNpoeDYZBV0GgM2IEHfzbi149kkcY3t6etEQ9qmRBBXIJJGYmK8g50KA9vx5meTkVCASobJwoYc9CatG4vz561oTLO7s7HI5ezYIRX0bk9RdCQiIUAmm/sfFvdBWu7a2SSPEeYMX45E9P5lO3MiYQmYXam+2BKhujkDbG0lwlgkMDJNFi5Y6I3FVc5ua39PTp4djubnlWsjcuKYmMqON4IbHC1dWNugpNuuoq4sRqtd5mCQYBVcEaI4A21tmZgkibswpM5Lo7x+YUBruwsOa4319/WgIO1DkdbhYscokwTEFWIhMqc7OLk0x7uA80WA6ch6wJ2BPgjnuCLStcU7h8MXs4L3cJsFzf+OJTg+sV41keOpNQnV1PG606HTHPDXrhIfAJMFIOOqNbAkwko5A2xojTQKcEM2JcUYSVBkWJ9PCNAKjtbfT05Rew+P8WWtrpx6s8ZP/Z5JgJLij2xKwJ+EItL3RQQYBzvXVNiScFvZV/JBe5xxtgHTHTEKmOSNhS8DsSF0ZwdtGwBh7q6FO96FOi+TwYW/Fa0Nim5Jgbnd0MGWmA3sXc4eEI9DTrRhRqFTwppEAz8CCgx++fxI8ppkriaysct2XzCjQeAzE08Pw8BhZvPiT90PCTCuesc6FBOXUPgokQCHhKSJJLFiwUA4dckKio4PPyd6dhFnw/O6IhC0BV/0Rzdj8iqdFgWnEPo4P8qOjY+Sjjz4CieOOSFwDkA6Q6HkLpCMz1YrfrdZW3Rz5nTd0RcIRcNMYhezsClUlkwDJMAo830pLy5E9e/aAxAKo01HbIxurrFnzrZw+/ase5Xd28gkoH+FOgXQGvLGxRZ8asV/iQxh+LylxHQlH4E0jiYICQ4VMEpxX2KcFB4fA2evlz39eALybILWBuqdNkqDEHjt2HqF+ic3F0GQe7RMoc91MFRO07eMumvnoit+ZTtzknj2bXT3YSmpxsUVnl6NHj6OYF8vf/rZEdu3yxCgQJi0tLUqAa5LE8eM/4yYFmrO8sZG7xdqlVlU1KHAex5iAnRlJcDeeC4miolp0AzXo056o95k+nCFOn/bF3vECPV7/BHxjTZLw9vZXWeMGw+Iye6O0NJLhQGJoN1sN43HVFHA++bElQbCzIcE2g97Pzi4F4PPw/qcg8Il8880uuX07BJnQoKOC/ZpGgl0rw8ht3pwV6B3egMRoHE7M3ZQHx3wGwdQjsZqaBvx7dpHIyqKs1qD7TZUtW7YB/McYflYhlU7gGonaDjlbkyROnPBHGF+plJGIaYZCGKRMY92QHAmxyzQJsaiLiqoVuLskMjM57LzCZ7FcvnwTwD3k44+XyPr12+Xq1etI5crJgzlna5LEf/7jDyWo1bbB/mmPLSlbsyXGfp/pQGA82bDtYG1J2A5BL15wZ66QyMgE2bfvX/KXv/xdPv10hRw8eAQt/1PtpN1Z00iYuW4+pjXIWN4yV+SYgq4OBRITGY1SeL8K3/Pl0qXr8sUXy+XDD/8O6dwqv/xyEXX3ckbv265JEmfPXpjYtNomZdRiadY8N0mZxv7ImZGEs1mCBCgYeXnVmA6T4fGj8te//g8K+AvZu/d7RCRymnS6uz7gKz70ANWAJ9+csc3Wg3NCY6OxqdkaidE4HHGD5P5g/oy14YxEZmY5UqhSbty4Kxs3bkX6/ENWrlwvZ874gliuniDOZn3AF6M8PNbKtm370ZfEIZRlIMBXPMdx0THkJcdTEprauRktq7VF6qoapaKoThrq2qS5+Y1G0tmOTfA80z1+/ByGmiUo3k/0hcWQkLuIev0EnNmtD5h7AQE3ZcWKDQitBzy0V86d85f798Nx4xyAboM28+heMDDxOR128PYesb5uleup1+RB3kVJL4kVS229tLd1a0rZkuAAlJlZAZ0Pl82bd8if/vSRblze3mfw8wyX0unu0tcieCz/7FmyXLhwWbf1xYtXoND+V1av3gqdPgnpuyIpKcn6Ypa5evsGJKosQo4Ub5ZN6Qvkj+xoaW3pREpZlQTTKT29FEQKxcfHVz7/fBWcxI1rp1y7dgOpWDtxpbmvaW/Z8JTDYqkD4DS5fj1IPD29sOkshvcWgtAmFOIP4ufnD/mLlZbXBqHSvjKJa4uW6ja+kNsLEo16QpicXCR37vwhO3bsReosgmOW6wwQHx+P2d39F3fdWW+9KmQuHtnQW76+fhohvk/x4YeLUIyLIImrsKvuQJROSWxUnHRYp0Cxdnh06ed3WZYvp/cXQP2+kd9+C8BQU6Gn5/O9nJLgYr1ERETAu/VofcP1DbSwsHCkxxn58st1iNKnEIUVsnbtRmxW+/QVu9TUNNm9+yDm4M9gyzSaERGRqKU3E1ed/+WSBE+5w8PDVWZ5HuvtfQLFzeP8HvT4NUirBMjjOVm3bitGxqVoGT6H99foWenKlZsQjV+wm+dP9v3va81I4tGjR7rphYYmYOaYeqHWXHwm8Rr1kZ6eoam3efMeyDWjch/K1jrxW+9zifwXMuX2k4SuPWQAAAAASUVORK5CYII=;fontSize=10;labelPosition=center;align=center;" parent="1" vertex="1">
          <mxGeometry x="753.8542857142857" y="3800" width="35.714285714285715" height="30" as="geometry" />
        </mxCell>
        <mxCell id="gUHsCTnRIOJ-MTFSnGW0-29" value="통합서버#2" style="shape=image;verticalLabelPosition=top;labelBackgroundColor=none;verticalAlign=bottom;imageAspect=0;image=data:image/png,iVBORw0KGgoAAAANSUhEUgAAADEAAABBCAYAAAB4vkzdAAAAAXNSR0IArs4c6QAAAARnQU1BAACxjwv8YQUAAAAJcEhZcwAAFxEAABcRAcom8z8AABAISURBVGhD3Vr5W1RXts3/1d3pTr+0Q8wLJmocYhyjcWhHjE00toqKrQZiiCYaHEERFVSmKCDIDMqMzCBDAQUyyDwPu9falwtFWVWUgO+Hd75vf1Ui3LvWHtbZ+9z7gfw/WP8nJIaGBqW+vk4aGuqls7NDRkaGJ/5nftZ7J1FXVyOBgcGybt23smnTTjl9+icJCXkoqamZUlxcrOQ6OtplbGxk4i/efb03Ej09XZKQkCDbt3vKV1/tl59+CpFLlx7JiRNXZO/eU7Jq1T/ls8/Wy44d34mPj58EB4dKYmKKZGVlS01NtXR3d05caeb1XkgUFOSJn99FgNwghw/7S0REsrx+3S69vT1IqRbJzy+RmJg0uXUrBuQC5cgRX9myxUtJLVy4EsQPyJkz/vj/+xIXFy8vXmRLbW0N/r574g7T17ySYGrcvh0sGzfulg0bvCQo6ImUllbJwEAfItMtb968gYe7AaZXBgf71ZhKBJiVVQBiqfibKPH1vSoHDvjImjW7ZMGCFbJ06UbZtcsLxM4jNe8gFTMm7miseSExPj4mjx9Hw+s+4uGxBXl/RdLS8gG6U/r6eqW9vd2pdXV1gWCP9Pf3oeCHQKwPf9cuVVW1kpGRi+smyc2bYXLq1M+ye/e/kYbbkJ7bJTPzOepoTO8/ZxIlJcVInQvw/AHZv99XoqPTUcz1ANULL3cAaNtbwJ1ZW5vxuyTG1BsY6Jfh4UFcqwc/b5HCwnLx9w9ChHaIt7e3EueaNYnu7i65ciUARfpvXPSABAQ8xE0qAKBTAdgDfDcjGYMQU5CyXFhYitpKQQ3dkq+/3i5eXl6KgWtWJBITn8nBg8eQ+/9CUV6S5OR8FGwjLtqLm3bBo50AMHdjJBsbmyUpKQ+yHAunRSHqgZDrHXLo0OHZkbBaGyGHp6EkB2XnTh958CAVuWuR1tYWtaam5nmx5ubXcEQXRKFOoqLSoVKxcufOUxCJl/Png2ZHgrl579492bbNE+Yt587dhkxWQjY7cMNWqJIVddA4Z7NYGvVaFks9irpEwsKSoFYx2EPilACJvDOJ4eEhaH6B7NnjidT5Tr7//gJkMAc3oddbEerXuDkJzN0slia18vJaFQcCvn3biIAZhfv3n8nPP7Mm3CIxDpBW+fXX3yFnO8XT008uXw6FElXDU83IfwN8bS096BiUu2axWHHNJqmubpTs7DJ4P1HBm9437e7dBAkNTbQhccg5iY6ON9gln6LP2Y68Pyk//hgMTS4FYONmNTWNuGHDvBidwGuWldVKfHyuAiUBEzjTybQHD5L10yRx+PCRt0mws3z58iX096ysXLkLn9cR1gwFTe/zho6AzNZ4vVevGrBTl8LDSQqanjY8PgXelsTDhykTNbFTjh71AYkexa4kqDpBQSHy5Zdbofs/yu+/R0peXpXmKMNcVVU/b0bgTKHSUno/B5430sYeNImQFL8TfHh4KpyaqZF4i0R/fz+03lvWrt0HDb6LzjMHN6PXG1FkdQj1/Fl5uQWfFs39P/7IRMEauT4dvAH80aMUWCrAp+F3n8uTJy8mSaxf/8/pJKzWJlm9ertcuHAPHmqBZLYp+IKCKqRXtWq1AcAwe2DuWmVlvV4vISHXYc5PgZ8C/vjxCzXzO0mw612z5pvpJBobG9H3eEINYvQHg4PDKO5upFibRoRFV1j4Sq2oqGaSzExmgqf3Kyrq5fnzUgVBubT3Po3pEhGRPgmYn9ONJJ7Lb7/dkWXLvkb2nLInsR818RjFbXSF5hoaGkEv1ItN7Q3Sq0mJMEL8pFdJypkVF9cAvAWyXIc2JQ8an+jU+xERU563B0/i5venT3O1o122bIOSYPfL5ZKE7RoeHgXzPu2L6upeK4nc3EoIQCV27yqQe4VPw/i9sLAaw0yZgqDm37v3tvcJPjIyYxpo0+h1fsbF5YDcc5XgpKRCuXFjDiRs18jIKOaEAaRdD+S3Vb3OdCEhgmeknj3LV4Vh38Od1p5AZKSr1DG8Hh+fhygWoI7ylAC/zxsJ2zU6OobeahBp14c6ateo0MNMHcqnmTKmUe+deZ+E6HGCJuCkpILJT5IwIhEqK1asA4mT7tXEu67x8XH0U20TBGKnESD4qKiMaTluT8AevK1NkQiT5ctdRIJe5WLecy5gHbzramnpUPD37k2lkEnAFXimnz1wW7Ml4TKdxsbG1ZuxsSly8uQNlcOCgkoMKF1ImSH9v5kWlYwkzDowCDj3/pMnWW4RSE5+CTPSaenS1fLDDyddk4iOTpLvvruADeWynDlzE93sA9yUh13VGqH+/qHJId1c5r/NSJgk2DI4SiF3wZtGEpwxSMLDY5VzEqOjhqep7deuRWFjCcU2f187WfZTVBp6lh4pLa3RCPX3D6pajY2NqgOamtoUPEmwdXBEICbGNQFb8CaBlJQid0g80ZpgxnR28pyoXye33NwKhD0DqWU0alScR4+4OVFJ8lRWh4aGNRKjo6Pa9RL8gwcpb4E3CGQ7BG6aPYGUFCMCHAdmJHHrVpSmEy0uLgs74xNcoBBdpxVSxkOubt212TqnphaiGPNROzmSnl6MVmVICYyMjCgJthD2hWxGxFkEHIE3CbhBwoqucB/SJWQiEuPQ+aeY5vzFy+tXpNId7XXS0l4CoFV6e0moS6W0spKdbv0kieHhYackYmOzdfd1h0RqqpE6tjYjiXXr9umwMTxsnEzzkIrHIz4+N+TUqety7lywXLwYptGJjc3SFGtoaEXa9WjaDQ0NqTkjQRUygdqDN3/uigBtxnRau3YnCjhIGz5GgqlDFWL3mZKSD4VJ1v4nMDBGZZftRFxcrl60rKxed+zBwQF8DkzWhEnCVRrZgndFgGaSYAPoUGK/+upbJUGVIQmmTkhIHFQhH6CatcDZmpeU1GidsBbo3adP83DhYqRYH0jwuLFfx04Cpxm/k6OtxEwE0tKKp4G2N5JITzcisWTJMpA4YU9i2zQSlMADBy7KsWMBkNpoeDYZBV0GgM2IEHfzbi149kkcY3t6etEQ9qmRBBXIJJGYmK8g50KA9vx5meTkVCASobJwoYc9CatG4vz561oTLO7s7HI5ezYIRX0bk9RdCQiIUAmm/sfFvdBWu7a2SSPEeYMX45E9P5lO3MiYQmYXam+2BKhujkDbG0lwlgkMDJNFi5Y6I3FVc5ua39PTp4djubnlWsjcuKYmMqON4IbHC1dWNugpNuuoq4sRqtd5mCQYBVcEaI4A21tmZgkibswpM5Lo7x+YUBruwsOa4319/WgIO1DkdbhYscokwTEFWIhMqc7OLk0x7uA80WA6ch6wJ2BPgjnuCLStcU7h8MXs4L3cJsFzf+OJTg+sV41keOpNQnV1PG606HTHPDXrhIfAJMFIOOqNbAkwko5A2xojTQKcEM2JcUYSVBkWJ9PCNAKjtbfT05Rew+P8WWtrpx6s8ZP/Z5JgJLij2xKwJ+EItL3RQQYBzvXVNiScFvZV/JBe5xxtgHTHTEKmOSNhS8DsSF0ZwdtGwBh7q6FO96FOi+TwYW/Fa0Nim5Jgbnd0MGWmA3sXc4eEI9DTrRhRqFTwppEAz8CCgx++fxI8ppkriaysct2XzCjQeAzE08Pw8BhZvPiT90PCTCuesc6FBOXUPgokQCHhKSJJLFiwUA4dckKio4PPyd6dhFnw/O6IhC0BV/0Rzdj8iqdFgWnEPo4P8qOjY+Sjjz4CieOOSFwDkA6Q6HkLpCMz1YrfrdZW3Rz5nTd0RcIRcNMYhezsClUlkwDJMAo830pLy5E9e/aAxAKo01HbIxurrFnzrZw+/ase5Xd28gkoH+FOgXQGvLGxRZ8asV/iQxh+LylxHQlH4E0jiYICQ4VMEpxX2KcFB4fA2evlz39eALybILWBuqdNkqDEHjt2HqF+ic3F0GQe7RMoc91MFRO07eMumvnoit+ZTtzknj2bXT3YSmpxsUVnl6NHj6OYF8vf/rZEdu3yxCgQJi0tLUqAa5LE8eM/4yYFmrO8sZG7xdqlVlU1KHAex5iAnRlJcDeeC4miolp0AzXo056o95k+nCFOn/bF3vECPV7/BHxjTZLw9vZXWeMGw+Iye6O0NJLhQGJoN1sN43HVFHA++bElQbCzIcE2g97Pzi4F4PPw/qcg8Il8880uuX07BJnQoKOC/ZpGgl0rw8ht3pwV6B3egMRoHE7M3ZQHx3wGwdQjsZqaBvx7dpHIyqKs1qD7TZUtW7YB/McYflYhlU7gGonaDjlbkyROnPBHGF+plJGIaYZCGKRMY92QHAmxyzQJsaiLiqoVuLskMjM57LzCZ7FcvnwTwD3k44+XyPr12+Xq1etI5crJgzlna5LEf/7jDyWo1bbB/mmPLSlbsyXGfp/pQGA82bDtYG1J2A5BL15wZ66QyMgE2bfvX/KXv/xdPv10hRw8eAQt/1PtpN1Z00iYuW4+pjXIWN4yV+SYgq4OBRITGY1SeL8K3/Pl0qXr8sUXy+XDD/8O6dwqv/xyEXX3ckbv265JEmfPXpjYtNomZdRiadY8N0mZxv7ImZGEs1mCBCgYeXnVmA6T4fGj8te//g8K+AvZu/d7RCRymnS6uz7gKz70ANWAJ9+csc3Wg3NCY6OxqdkaidE4HHGD5P5g/oy14YxEZmY5UqhSbty4Kxs3bkX6/ENWrlwvZ874gliuniDOZn3AF6M8PNbKtm370ZfEIZRlIMBXPMdx0THkJcdTEprauRktq7VF6qoapaKoThrq2qS5+Y1G0tmOTfA80z1+/ByGmiUo3k/0hcWQkLuIev0EnNmtD5h7AQE3ZcWKDQitBzy0V86d85f798Nx4xyAboM28+heMDDxOR128PYesb5uleup1+RB3kVJL4kVS229tLd1a0rZkuAAlJlZAZ0Pl82bd8if/vSRblze3mfw8wyX0unu0tcieCz/7FmyXLhwWbf1xYtXoND+V1av3gqdPgnpuyIpKcn6Ypa5evsGJKosQo4Ub5ZN6Qvkj+xoaW3pREpZlQTTKT29FEQKxcfHVz7/fBWcxI1rp1y7dgOpWDtxpbmvaW/Z8JTDYqkD4DS5fj1IPD29sOkshvcWgtAmFOIP4ufnD/mLlZbXBqHSvjKJa4uW6ja+kNsLEo16QpicXCR37vwhO3bsReosgmOW6wwQHx+P2d39F3fdWW+9KmQuHtnQW76+fhohvk/x4YeLUIyLIImrsKvuQJROSWxUnHRYp0Cxdnh06ed3WZYvp/cXQP2+kd9+C8BQU6Gn5/O9nJLgYr1ERETAu/VofcP1DbSwsHCkxxn58st1iNKnEIUVsnbtRmxW+/QVu9TUNNm9+yDm4M9gyzSaERGRqKU3E1ed/+WSBE+5w8PDVWZ5HuvtfQLFzeP8HvT4NUirBMjjOVm3bitGxqVoGT6H99foWenKlZsQjV+wm+dP9v3va81I4tGjR7rphYYmYOaYeqHWXHwm8Rr1kZ6eoam3efMeyDWjch/K1jrxW+9zifwXMuX2k4SuPWQAAAAASUVORK5CYII=;fontSize=10;labelPosition=center;align=center;" parent="1" vertex="1">
          <mxGeometry x="825.2828571428571" y="3800" width="35.714285714285715" height="30" as="geometry" />
        </mxCell>
        <mxCell id="gUHsCTnRIOJ-MTFSnGW0-30" value="통합서버#3" style="shape=image;verticalLabelPosition=top;labelBackgroundColor=none;verticalAlign=bottom;imageAspect=0;image=data:image/png,iVBORw0KGgoAAAANSUhEUgAAADEAAABBCAYAAAB4vkzdAAAAAXNSR0IArs4c6QAAAARnQU1BAACxjwv8YQUAAAAJcEhZcwAAFxEAABcRAcom8z8AABAISURBVGhD3Vr5W1RXts3/1d3pTr+0Q8wLJmocYhyjcWhHjE00toqKrQZiiCYaHEERFVSmKCDIDMqMzCBDAQUyyDwPu9falwtFWVWUgO+Hd75vf1Ui3LvWHtbZ+9z7gfw/WP8nJIaGBqW+vk4aGuqls7NDRkaGJ/5nftZ7J1FXVyOBgcGybt23smnTTjl9+icJCXkoqamZUlxcrOQ6OtplbGxk4i/efb03Ej09XZKQkCDbt3vKV1/tl59+CpFLlx7JiRNXZO/eU7Jq1T/ls8/Wy44d34mPj58EB4dKYmKKZGVlS01NtXR3d05caeb1XkgUFOSJn99FgNwghw/7S0REsrx+3S69vT1IqRbJzy+RmJg0uXUrBuQC5cgRX9myxUtJLVy4EsQPyJkz/vj/+xIXFy8vXmRLbW0N/r574g7T17ySYGrcvh0sGzfulg0bvCQo6ImUllbJwEAfItMtb968gYe7AaZXBgf71ZhKBJiVVQBiqfibKPH1vSoHDvjImjW7ZMGCFbJ06UbZtcsLxM4jNe8gFTMm7miseSExPj4mjx9Hw+s+4uGxBXl/RdLS8gG6U/r6eqW9vd2pdXV1gWCP9Pf3oeCHQKwPf9cuVVW1kpGRi+smyc2bYXLq1M+ye/e/kYbbkJ7bJTPzOepoTO8/ZxIlJcVInQvw/AHZv99XoqPTUcz1ANULL3cAaNtbwJ1ZW5vxuyTG1BsY6Jfh4UFcqwc/b5HCwnLx9w9ChHaIt7e3EueaNYnu7i65ciUARfpvXPSABAQ8xE0qAKBTAdgDfDcjGYMQU5CyXFhYitpKQQ3dkq+/3i5eXl6KgWtWJBITn8nBg8eQ+/9CUV6S5OR8FGwjLtqLm3bBo50AMHdjJBsbmyUpKQ+yHAunRSHqgZDrHXLo0OHZkbBaGyGHp6EkB2XnTh958CAVuWuR1tYWtaam5nmx5ubXcEQXRKFOoqLSoVKxcufOUxCJl/Png2ZHgrl579492bbNE+Yt587dhkxWQjY7cMNWqJIVddA4Z7NYGvVaFks9irpEwsKSoFYx2EPilACJvDOJ4eEhaH6B7NnjidT5Tr7//gJkMAc3oddbEerXuDkJzN0slia18vJaFQcCvn3biIAZhfv3n8nPP7Mm3CIxDpBW+fXX3yFnO8XT008uXw6FElXDU83IfwN8bS096BiUu2axWHHNJqmubpTs7DJ4P1HBm9437e7dBAkNTbQhccg5iY6ON9gln6LP2Y68Pyk//hgMTS4FYONmNTWNuGHDvBidwGuWldVKfHyuAiUBEzjTybQHD5L10yRx+PCRt0mws3z58iX096ysXLkLn9cR1gwFTe/zho6AzNZ4vVevGrBTl8LDSQqanjY8PgXelsTDhykTNbFTjh71AYkexa4kqDpBQSHy5Zdbofs/yu+/R0peXpXmKMNcVVU/b0bgTKHSUno/B5430sYeNImQFL8TfHh4KpyaqZF4i0R/fz+03lvWrt0HDb6LzjMHN6PXG1FkdQj1/Fl5uQWfFs39P/7IRMEauT4dvAH80aMUWCrAp+F3n8uTJy8mSaxf/8/pJKzWJlm9ertcuHAPHmqBZLYp+IKCKqRXtWq1AcAwe2DuWmVlvV4vISHXYc5PgZ8C/vjxCzXzO0mw612z5pvpJBobG9H3eEINYvQHg4PDKO5upFibRoRFV1j4Sq2oqGaSzExmgqf3Kyrq5fnzUgVBubT3Po3pEhGRPgmYn9ONJJ7Lb7/dkWXLvkb2nLInsR818RjFbXSF5hoaGkEv1ItN7Q3Sq0mJMEL8pFdJypkVF9cAvAWyXIc2JQ8an+jU+xERU563B0/i5venT3O1o122bIOSYPfL5ZKE7RoeHgXzPu2L6upeK4nc3EoIQCV27yqQe4VPw/i9sLAaw0yZgqDm37v3tvcJPjIyYxpo0+h1fsbF5YDcc5XgpKRCuXFjDiRs18jIKOaEAaRdD+S3Vb3OdCEhgmeknj3LV4Vh38Od1p5AZKSr1DG8Hh+fhygWoI7ylAC/zxsJ2zU6OobeahBp14c6ateo0MNMHcqnmTKmUe+deZ+E6HGCJuCkpILJT5IwIhEqK1asA4mT7tXEu67x8XH0U20TBGKnESD4qKiMaTluT8AevK1NkQiT5ctdRIJe5WLecy5gHbzramnpUPD37k2lkEnAFXimnz1wW7Ml4TKdxsbG1ZuxsSly8uQNlcOCgkoMKF1ImSH9v5kWlYwkzDowCDj3/pMnWW4RSE5+CTPSaenS1fLDDyddk4iOTpLvvruADeWynDlzE93sA9yUh13VGqH+/qHJId1c5r/NSJgk2DI4SiF3wZtGEpwxSMLDY5VzEqOjhqep7deuRWFjCcU2f187WfZTVBp6lh4pLa3RCPX3D6pajY2NqgOamtoUPEmwdXBEICbGNQFb8CaBlJQid0g80ZpgxnR28pyoXye33NwKhD0DqWU0alScR4+4OVFJ8lRWh4aGNRKjo6Pa9RL8gwcpb4E3CGQ7BG6aPYGUFCMCHAdmJHHrVpSmEy0uLgs74xNcoBBdpxVSxkOubt212TqnphaiGPNROzmSnl6MVmVICYyMjCgJthD2hWxGxFkEHIE3CbhBwoqucB/SJWQiEuPQ+aeY5vzFy+tXpNId7XXS0l4CoFV6e0moS6W0spKdbv0kieHhYackYmOzdfd1h0RqqpE6tjYjiXXr9umwMTxsnEzzkIrHIz4+N+TUqety7lywXLwYptGJjc3SFGtoaEXa9WjaDQ0NqTkjQRUygdqDN3/uigBtxnRau3YnCjhIGz5GgqlDFWL3mZKSD4VJ1v4nMDBGZZftRFxcrl60rKxed+zBwQF8DkzWhEnCVRrZgndFgGaSYAPoUGK/+upbJUGVIQmmTkhIHFQhH6CatcDZmpeU1GidsBbo3adP83DhYqRYH0jwuLFfx04Cpxm/k6OtxEwE0tKKp4G2N5JITzcisWTJMpA4YU9i2zQSlMADBy7KsWMBkNpoeDYZBV0GgM2IEHfzbi149kkcY3t6etEQ9qmRBBXIJJGYmK8g50KA9vx5meTkVCASobJwoYc9CatG4vz561oTLO7s7HI5ezYIRX0bk9RdCQiIUAmm/sfFvdBWu7a2SSPEeYMX45E9P5lO3MiYQmYXam+2BKhujkDbG0lwlgkMDJNFi5Y6I3FVc5ua39PTp4djubnlWsjcuKYmMqON4IbHC1dWNugpNuuoq4sRqtd5mCQYBVcEaI4A21tmZgkibswpM5Lo7x+YUBruwsOa4319/WgIO1DkdbhYscokwTEFWIhMqc7OLk0x7uA80WA6ch6wJ2BPgjnuCLStcU7h8MXs4L3cJsFzf+OJTg+sV41keOpNQnV1PG606HTHPDXrhIfAJMFIOOqNbAkwko5A2xojTQKcEM2JcUYSVBkWJ9PCNAKjtbfT05Rew+P8WWtrpx6s8ZP/Z5JgJLij2xKwJ+EItL3RQQYBzvXVNiScFvZV/JBe5xxtgHTHTEKmOSNhS8DsSF0ZwdtGwBh7q6FO96FOi+TwYW/Fa0Nim5Jgbnd0MGWmA3sXc4eEI9DTrRhRqFTwppEAz8CCgx++fxI8ppkriaysct2XzCjQeAzE08Pw8BhZvPiT90PCTCuesc6FBOXUPgokQCHhKSJJLFiwUA4dckKio4PPyd6dhFnw/O6IhC0BV/0Rzdj8iqdFgWnEPo4P8qOjY+Sjjz4CieOOSFwDkA6Q6HkLpCMz1YrfrdZW3Rz5nTd0RcIRcNMYhezsClUlkwDJMAo830pLy5E9e/aAxAKo01HbIxurrFnzrZw+/ase5Xd28gkoH+FOgXQGvLGxRZ8asV/iQxh+LylxHQlH4E0jiYICQ4VMEpxX2KcFB4fA2evlz39eALybILWBuqdNkqDEHjt2HqF+ic3F0GQe7RMoc91MFRO07eMumvnoit+ZTtzknj2bXT3YSmpxsUVnl6NHj6OYF8vf/rZEdu3yxCgQJi0tLUqAa5LE8eM/4yYFmrO8sZG7xdqlVlU1KHAex5iAnRlJcDeeC4miolp0AzXo056o95k+nCFOn/bF3vECPV7/BHxjTZLw9vZXWeMGw+Iye6O0NJLhQGJoN1sN43HVFHA++bElQbCzIcE2g97Pzi4F4PPw/qcg8Il8880uuX07BJnQoKOC/ZpGgl0rw8ht3pwV6B3egMRoHE7M3ZQHx3wGwdQjsZqaBvx7dpHIyqKs1qD7TZUtW7YB/McYflYhlU7gGonaDjlbkyROnPBHGF+plJGIaYZCGKRMY92QHAmxyzQJsaiLiqoVuLskMjM57LzCZ7FcvnwTwD3k44+XyPr12+Xq1etI5crJgzlna5LEf/7jDyWo1bbB/mmPLSlbsyXGfp/pQGA82bDtYG1J2A5BL15wZ66QyMgE2bfvX/KXv/xdPv10hRw8eAQt/1PtpN1Z00iYuW4+pjXIWN4yV+SYgq4OBRITGY1SeL8K3/Pl0qXr8sUXy+XDD/8O6dwqv/xyEXX3ckbv265JEmfPXpjYtNomZdRiadY8N0mZxv7ImZGEs1mCBCgYeXnVmA6T4fGj8te//g8K+AvZu/d7RCRymnS6uz7gKz70ANWAJ9+csc3Wg3NCY6OxqdkaidE4HHGD5P5g/oy14YxEZmY5UqhSbty4Kxs3bkX6/ENWrlwvZ874gliuniDOZn3AF6M8PNbKtm370ZfEIZRlIMBXPMdx0THkJcdTEprauRktq7VF6qoapaKoThrq2qS5+Y1G0tmOTfA80z1+/ByGmiUo3k/0hcWQkLuIev0EnNmtD5h7AQE3ZcWKDQitBzy0V86d85f798Nx4xyAboM28+heMDDxOR128PYesb5uleup1+RB3kVJL4kVS229tLd1a0rZkuAAlJlZAZ0Pl82bd8if/vSRblze3mfw8wyX0unu0tcieCz/7FmyXLhwWbf1xYtXoND+V1av3gqdPgnpuyIpKcn6Ypa5evsGJKosQo4Ub5ZN6Qvkj+xoaW3pREpZlQTTKT29FEQKxcfHVz7/fBWcxI1rp1y7dgOpWDtxpbmvaW/Z8JTDYqkD4DS5fj1IPD29sOkshvcWgtAmFOIP4ufnD/mLlZbXBqHSvjKJa4uW6ja+kNsLEo16QpicXCR37vwhO3bsReosgmOW6wwQHx+P2d39F3fdWW+9KmQuHtnQW76+fhohvk/x4YeLUIyLIImrsKvuQJROSWxUnHRYp0Cxdnh06ed3WZYvp/cXQP2+kd9+C8BQU6Gn5/O9nJLgYr1ERETAu/VofcP1DbSwsHCkxxn58st1iNKnEIUVsnbtRmxW+/QVu9TUNNm9+yDm4M9gyzSaERGRqKU3E1ed/+WSBE+5w8PDVWZ5HuvtfQLFzeP8HvT4NUirBMjjOVm3bitGxqVoGT6H99foWenKlZsQjV+wm+dP9v3va81I4tGjR7rphYYmYOaYeqHWXHwm8Rr1kZ6eoam3efMeyDWjch/K1jrxW+9zifwXMuX2k4SuPWQAAAAASUVORK5CYII=;fontSize=10;labelPosition=center;align=center;" parent="1" vertex="1">
          <mxGeometry x="896.7114285714285" y="3800" width="35.714285714285715" height="30" as="geometry" />
        </mxCell>
        <mxCell id="gUHsCTnRIOJ-MTFSnGW0-31" value="" style="rounded=0;whiteSpace=wrap;html=1;fillColor=none;movable=1;resizable=1;rotatable=1;deletable=1;editable=1;locked=0;connectable=1;" parent="1" vertex="1">
          <mxGeometry x="717.92" y="3880" width="250" height="100" as="geometry" />
        </mxCell>
        <mxCell id="gUHsCTnRIOJ-MTFSnGW0-32" value="DB" style="rounded=0;whiteSpace=wrap;html=1;fillColor=#000075;fontColor=#ffffff;fontStyle=1;fontSize=16;" parent="1" vertex="1">
          <mxGeometry x="718.14" y="3880" width="250" height="30" as="geometry" />
        </mxCell>
        <mxCell id="gUHsCTnRIOJ-MTFSnGW0-33" value="DB서버#1" style="shape=image;verticalLabelPosition=top;labelBackgroundColor=none;verticalAlign=bottom;imageAspect=0;image=data:image/png,iVBORw0KGgoAAAANSUhEUgAAADEAAABBCAYAAAB4vkzdAAAAAXNSR0IArs4c6QAAAARnQU1BAACxjwv8YQUAAAAJcEhZcwAAFxEAABcRAcom8z8AABAISURBVGhD3Vr5W1RXts3/1d3pTr+0Q8wLJmocYhyjcWhHjE00toqKrQZiiCYaHEERFVSmKCDIDMqMzCBDAQUyyDwPu9falwtFWVWUgO+Hd75vf1Ui3LvWHtbZ+9z7gfw/WP8nJIaGBqW+vk4aGuqls7NDRkaGJ/5nftZ7J1FXVyOBgcGybt23smnTTjl9+icJCXkoqamZUlxcrOQ6OtplbGxk4i/efb03Ej09XZKQkCDbt3vKV1/tl59+CpFLlx7JiRNXZO/eU7Jq1T/ls8/Wy44d34mPj58EB4dKYmKKZGVlS01NtXR3d05caeb1XkgUFOSJn99FgNwghw/7S0REsrx+3S69vT1IqRbJzy+RmJg0uXUrBuQC5cgRX9myxUtJLVy4EsQPyJkz/vj/+xIXFy8vXmRLbW0N/r574g7T17ySYGrcvh0sGzfulg0bvCQo6ImUllbJwEAfItMtb968gYe7AaZXBgf71ZhKBJiVVQBiqfibKPH1vSoHDvjImjW7ZMGCFbJ06UbZtcsLxM4jNe8gFTMm7miseSExPj4mjx9Hw+s+4uGxBXl/RdLS8gG6U/r6eqW9vd2pdXV1gWCP9Pf3oeCHQKwPf9cuVVW1kpGRi+smyc2bYXLq1M+ye/e/kYbbkJ7bJTPzOepoTO8/ZxIlJcVInQvw/AHZv99XoqPTUcz1ANULL3cAaNtbwJ1ZW5vxuyTG1BsY6Jfh4UFcqwc/b5HCwnLx9w9ChHaIt7e3EueaNYnu7i65ciUARfpvXPSABAQ8xE0qAKBTAdgDfDcjGYMQU5CyXFhYitpKQQ3dkq+/3i5eXl6KgWtWJBITn8nBg8eQ+/9CUV6S5OR8FGwjLtqLm3bBo50AMHdjJBsbmyUpKQ+yHAunRSHqgZDrHXLo0OHZkbBaGyGHp6EkB2XnTh958CAVuWuR1tYWtaam5nmx5ubXcEQXRKFOoqLSoVKxcufOUxCJl/Png2ZHgrl579492bbNE+Yt587dhkxWQjY7cMNWqJIVddA4Z7NYGvVaFks9irpEwsKSoFYx2EPilACJvDOJ4eEhaH6B7NnjidT5Tr7//gJkMAc3oddbEerXuDkJzN0slia18vJaFQcCvn3biIAZhfv3n8nPP7Mm3CIxDpBW+fXX3yFnO8XT008uXw6FElXDU83IfwN8bS096BiUu2axWHHNJqmubpTs7DJ4P1HBm9437e7dBAkNTbQhccg5iY6ON9gln6LP2Y68Pyk//hgMTS4FYONmNTWNuGHDvBidwGuWldVKfHyuAiUBEzjTybQHD5L10yRx+PCRt0mws3z58iX096ysXLkLn9cR1gwFTe/zho6AzNZ4vVevGrBTl8LDSQqanjY8PgXelsTDhykTNbFTjh71AYkexa4kqDpBQSHy5Zdbofs/yu+/R0peXpXmKMNcVVU/b0bgTKHSUno/B5430sYeNImQFL8TfHh4KpyaqZF4i0R/fz+03lvWrt0HDb6LzjMHN6PXG1FkdQj1/Fl5uQWfFs39P/7IRMEauT4dvAH80aMUWCrAp+F3n8uTJy8mSaxf/8/pJKzWJlm9ertcuHAPHmqBZLYp+IKCKqRXtWq1AcAwe2DuWmVlvV4vISHXYc5PgZ8C/vjxCzXzO0mw612z5pvpJBobG9H3eEINYvQHg4PDKO5upFibRoRFV1j4Sq2oqGaSzExmgqf3Kyrq5fnzUgVBubT3Po3pEhGRPgmYn9ONJJ7Lb7/dkWXLvkb2nLInsR818RjFbXSF5hoaGkEv1ItN7Q3Sq0mJMEL8pFdJypkVF9cAvAWyXIc2JQ8an+jU+xERU563B0/i5venT3O1o122bIOSYPfL5ZKE7RoeHgXzPu2L6upeK4nc3EoIQCV27yqQe4VPw/i9sLAaw0yZgqDm37v3tvcJPjIyYxpo0+h1fsbF5YDcc5XgpKRCuXFjDiRs18jIKOaEAaRdD+S3Vb3OdCEhgmeknj3LV4Vh38Od1p5AZKSr1DG8Hh+fhygWoI7ylAC/zxsJ2zU6OobeahBp14c6ateo0MNMHcqnmTKmUe+deZ+E6HGCJuCkpILJT5IwIhEqK1asA4mT7tXEu67x8XH0U20TBGKnESD4qKiMaTluT8AevK1NkQiT5ctdRIJe5WLecy5gHbzramnpUPD37k2lkEnAFXimnz1wW7Ml4TKdxsbG1ZuxsSly8uQNlcOCgkoMKF1ImSH9v5kWlYwkzDowCDj3/pMnWW4RSE5+CTPSaenS1fLDDyddk4iOTpLvvruADeWynDlzE93sA9yUh13VGqH+/qHJId1c5r/NSJgk2DI4SiF3wZtGEpwxSMLDY5VzEqOjhqep7deuRWFjCcU2f187WfZTVBp6lh4pLa3RCPX3D6pajY2NqgOamtoUPEmwdXBEICbGNQFb8CaBlJQid0g80ZpgxnR28pyoXye33NwKhD0DqWU0alScR4+4OVFJ8lRWh4aGNRKjo6Pa9RL8gwcpb4E3CGQ7BG6aPYGUFCMCHAdmJHHrVpSmEy0uLgs74xNcoBBdpxVSxkOubt212TqnphaiGPNROzmSnl6MVmVICYyMjCgJthD2hWxGxFkEHIE3CbhBwoqucB/SJWQiEuPQ+aeY5vzFy+tXpNId7XXS0l4CoFV6e0moS6W0spKdbv0kieHhYackYmOzdfd1h0RqqpE6tjYjiXXr9umwMTxsnEzzkIrHIz4+N+TUqety7lywXLwYptGJjc3SFGtoaEXa9WjaDQ0NqTkjQRUygdqDN3/uigBtxnRau3YnCjhIGz5GgqlDFWL3mZKSD4VJ1v4nMDBGZZftRFxcrl60rKxed+zBwQF8DkzWhEnCVRrZgndFgGaSYAPoUGK/+upbJUGVIQmmTkhIHFQhH6CatcDZmpeU1GidsBbo3adP83DhYqRYH0jwuLFfx04Cpxm/k6OtxEwE0tKKp4G2N5JITzcisWTJMpA4YU9i2zQSlMADBy7KsWMBkNpoeDYZBV0GgM2IEHfzbi149kkcY3t6etEQ9qmRBBXIJJGYmK8g50KA9vx5meTkVCASobJwoYc9CatG4vz561oTLO7s7HI5ezYIRX0bk9RdCQiIUAmm/sfFvdBWu7a2SSPEeYMX45E9P5lO3MiYQmYXam+2BKhujkDbG0lwlgkMDJNFi5Y6I3FVc5ua39PTp4djubnlWsjcuKYmMqON4IbHC1dWNugpNuuoq4sRqtd5mCQYBVcEaI4A21tmZgkibswpM5Lo7x+YUBruwsOa4319/WgIO1DkdbhYscokwTEFWIhMqc7OLk0x7uA80WA6ch6wJ2BPgjnuCLStcU7h8MXs4L3cJsFzf+OJTg+sV41keOpNQnV1PG606HTHPDXrhIfAJMFIOOqNbAkwko5A2xojTQKcEM2JcUYSVBkWJ9PCNAKjtbfT05Rew+P8WWtrpx6s8ZP/Z5JgJLij2xKwJ+EItL3RQQYBzvXVNiScFvZV/JBe5xxtgHTHTEKmOSNhS8DsSF0ZwdtGwBh7q6FO96FOi+TwYW/Fa0Nim5Jgbnd0MGWmA3sXc4eEI9DTrRhRqFTwppEAz8CCgx++fxI8ppkriaysct2XzCjQeAzE08Pw8BhZvPiT90PCTCuesc6FBOXUPgokQCHhKSJJLFiwUA4dckKio4PPyd6dhFnw/O6IhC0BV/0Rzdj8iqdFgWnEPo4P8qOjY+Sjjz4CieOOSFwDkA6Q6HkLpCMz1YrfrdZW3Rz5nTd0RcIRcNMYhezsClUlkwDJMAo830pLy5E9e/aAxAKo01HbIxurrFnzrZw+/ase5Xd28gkoH+FOgXQGvLGxRZ8asV/iQxh+LylxHQlH4E0jiYICQ4VMEpxX2KcFB4fA2evlz39eALybILWBuqdNkqDEHjt2HqF+ic3F0GQe7RMoc91MFRO07eMumvnoit+ZTtzknj2bXT3YSmpxsUVnl6NHj6OYF8vf/rZEdu3yxCgQJi0tLUqAa5LE8eM/4yYFmrO8sZG7xdqlVlU1KHAex5iAnRlJcDeeC4miolp0AzXo056o95k+nCFOn/bF3vECPV7/BHxjTZLw9vZXWeMGw+Iye6O0NJLhQGJoN1sN43HVFHA++bElQbCzIcE2g97Pzi4F4PPw/qcg8Il8880uuX07BJnQoKOC/ZpGgl0rw8ht3pwV6B3egMRoHE7M3ZQHx3wGwdQjsZqaBvx7dpHIyqKs1qD7TZUtW7YB/McYflYhlU7gGonaDjlbkyROnPBHGF+plJGIaYZCGKRMY92QHAmxyzQJsaiLiqoVuLskMjM57LzCZ7FcvnwTwD3k44+XyPr12+Xq1etI5crJgzlna5LEf/7jDyWo1bbB/mmPLSlbsyXGfp/pQGA82bDtYG1J2A5BL15wZ66QyMgE2bfvX/KXv/xdPv10hRw8eAQt/1PtpN1Z00iYuW4+pjXIWN4yV+SYgq4OBRITGY1SeL8K3/Pl0qXr8sUXy+XDD/8O6dwqv/xyEXX3ckbv265JEmfPXpjYtNomZdRiadY8N0mZxv7ImZGEs1mCBCgYeXnVmA6T4fGj8te//g8K+AvZu/d7RCRymnS6uz7gKz70ANWAJ9+csc3Wg3NCY6OxqdkaidE4HHGD5P5g/oy14YxEZmY5UqhSbty4Kxs3bkX6/ENWrlwvZ874gliuniDOZn3AF6M8PNbKtm370ZfEIZRlIMBXPMdx0THkJcdTEprauRktq7VF6qoapaKoThrq2qS5+Y1G0tmOTfA80z1+/ByGmiUo3k/0hcWQkLuIev0EnNmtD5h7AQE3ZcWKDQitBzy0V86d85f798Nx4xyAboM28+heMDDxOR128PYesb5uleup1+RB3kVJL4kVS229tLd1a0rZkuAAlJlZAZ0Pl82bd8if/vSRblze3mfw8wyX0unu0tcieCz/7FmyXLhwWbf1xYtXoND+V1av3gqdPgnpuyIpKcn6Ypa5evsGJKosQo4Ub5ZN6Qvkj+xoaW3pREpZlQTTKT29FEQKxcfHVz7/fBWcxI1rp1y7dgOpWDtxpbmvaW/Z8JTDYqkD4DS5fj1IPD29sOkshvcWgtAmFOIP4ufnD/mLlZbXBqHSvjKJa4uW6ja+kNsLEo16QpicXCR37vwhO3bsReosgmOW6wwQHx+P2d39F3fdWW+9KmQuHtnQW76+fhohvk/x4YeLUIyLIImrsKvuQJROSWxUnHRYp0Cxdnh06ed3WZYvp/cXQP2+kd9+C8BQU6Gn5/O9nJLgYr1ERETAu/VofcP1DbSwsHCkxxn58st1iNKnEIUVsnbtRmxW+/QVu9TUNNm9+yDm4M9gyzSaERGRqKU3E1ed/+WSBE+5w8PDVWZ5HuvtfQLFzeP8HvT4NUirBMjjOVm3bitGxqVoGT6H99foWenKlZsQjV+wm+dP9v3va81I4tGjR7rphYYmYOaYeqHWXHwm8Rr1kZ6eoam3efMeyDWjch/K1jrxW+9zifwXMuX2k4SuPWQAAAAASUVORK5CYII=;fontSize=10;labelPosition=center;align=center;fontStyle=0" parent="1" vertex="1">
          <mxGeometry x="783.7533333333333" y="3930" width="29.166666666666668" height="40" as="geometry" />
        </mxCell>
        <mxCell id="gUHsCTnRIOJ-MTFSnGW0-34" value="DB서버#2" style="shape=image;verticalLabelPosition=top;labelBackgroundColor=none;verticalAlign=bottom;imageAspect=0;image=data:image/png,iVBORw0KGgoAAAANSUhEUgAAADEAAABBCAYAAAB4vkzdAAAAAXNSR0IArs4c6QAAAARnQU1BAACxjwv8YQUAAAAJcEhZcwAAFxEAABcRAcom8z8AABAISURBVGhD3Vr5W1RXts3/1d3pTr+0Q8wLJmocYhyjcWhHjE00toqKrQZiiCYaHEERFVSmKCDIDMqMzCBDAQUyyDwPu9falwtFWVWUgO+Hd75vf1Ui3LvWHtbZ+9z7gfw/WP8nJIaGBqW+vk4aGuqls7NDRkaGJ/5nftZ7J1FXVyOBgcGybt23smnTTjl9+icJCXkoqamZUlxcrOQ6OtplbGxk4i/efb03Ej09XZKQkCDbt3vKV1/tl59+CpFLlx7JiRNXZO/eU7Jq1T/ls8/Wy44d34mPj58EB4dKYmKKZGVlS01NtXR3d05caeb1XkgUFOSJn99FgNwghw/7S0REsrx+3S69vT1IqRbJzy+RmJg0uXUrBuQC5cgRX9myxUtJLVy4EsQPyJkz/vj/+xIXFy8vXmRLbW0N/r574g7T17ySYGrcvh0sGzfulg0bvCQo6ImUllbJwEAfItMtb968gYe7AaZXBgf71ZhKBJiVVQBiqfibKPH1vSoHDvjImjW7ZMGCFbJ06UbZtcsLxM4jNe8gFTMm7miseSExPj4mjx9Hw+s+4uGxBXl/RdLS8gG6U/r6eqW9vd2pdXV1gWCP9Pf3oeCHQKwPf9cuVVW1kpGRi+smyc2bYXLq1M+ye/e/kYbbkJ7bJTPzOepoTO8/ZxIlJcVInQvw/AHZv99XoqPTUcz1ANULL3cAaNtbwJ1ZW5vxuyTG1BsY6Jfh4UFcqwc/b5HCwnLx9w9ChHaIt7e3EueaNYnu7i65ciUARfpvXPSABAQ8xE0qAKBTAdgDfDcjGYMQU5CyXFhYitpKQQ3dkq+/3i5eXl6KgWtWJBITn8nBg8eQ+/9CUV6S5OR8FGwjLtqLm3bBo50AMHdjJBsbmyUpKQ+yHAunRSHqgZDrHXLo0OHZkbBaGyGHp6EkB2XnTh958CAVuWuR1tYWtaam5nmx5ubXcEQXRKFOoqLSoVKxcufOUxCJl/Png2ZHgrl579492bbNE+Yt587dhkxWQjY7cMNWqJIVddA4Z7NYGvVaFks9irpEwsKSoFYx2EPilACJvDOJ4eEhaH6B7NnjidT5Tr7//gJkMAc3oddbEerXuDkJzN0slia18vJaFQcCvn3biIAZhfv3n8nPP7Mm3CIxDpBW+fXX3yFnO8XT008uXw6FElXDU83IfwN8bS096BiUu2axWHHNJqmubpTs7DJ4P1HBm9437e7dBAkNTbQhccg5iY6ON9gln6LP2Y68Pyk//hgMTS4FYONmNTWNuGHDvBidwGuWldVKfHyuAiUBEzjTybQHD5L10yRx+PCRt0mws3z58iX096ysXLkLn9cR1gwFTe/zho6AzNZ4vVevGrBTl8LDSQqanjY8PgXelsTDhykTNbFTjh71AYkexa4kqDpBQSHy5Zdbofs/yu+/R0peXpXmKMNcVVU/b0bgTKHSUno/B5430sYeNImQFL8TfHh4KpyaqZF4i0R/fz+03lvWrt0HDb6LzjMHN6PXG1FkdQj1/Fl5uQWfFs39P/7IRMEauT4dvAH80aMUWCrAp+F3n8uTJy8mSaxf/8/pJKzWJlm9ertcuHAPHmqBZLYp+IKCKqRXtWq1AcAwe2DuWmVlvV4vISHXYc5PgZ8C/vjxCzXzO0mw612z5pvpJBobG9H3eEINYvQHg4PDKO5upFibRoRFV1j4Sq2oqGaSzExmgqf3Kyrq5fnzUgVBubT3Po3pEhGRPgmYn9ONJJ7Lb7/dkWXLvkb2nLInsR818RjFbXSF5hoaGkEv1ItN7Q3Sq0mJMEL8pFdJypkVF9cAvAWyXIc2JQ8an+jU+xERU563B0/i5venT3O1o122bIOSYPfL5ZKE7RoeHgXzPu2L6upeK4nc3EoIQCV27yqQe4VPw/i9sLAaw0yZgqDm37v3tvcJPjIyYxpo0+h1fsbF5YDcc5XgpKRCuXFjDiRs18jIKOaEAaRdD+S3Vb3OdCEhgmeknj3LV4Vh38Od1p5AZKSr1DG8Hh+fhygWoI7ylAC/zxsJ2zU6OobeahBp14c6ateo0MNMHcqnmTKmUe+deZ+E6HGCJuCkpILJT5IwIhEqK1asA4mT7tXEu67x8XH0U20TBGKnESD4qKiMaTluT8AevK1NkQiT5ctdRIJe5WLecy5gHbzramnpUPD37k2lkEnAFXimnz1wW7Ml4TKdxsbG1ZuxsSly8uQNlcOCgkoMKF1ImSH9v5kWlYwkzDowCDj3/pMnWW4RSE5+CTPSaenS1fLDDyddk4iOTpLvvruADeWynDlzE93sA9yUh13VGqH+/qHJId1c5r/NSJgk2DI4SiF3wZtGEpwxSMLDY5VzEqOjhqep7deuRWFjCcU2f187WfZTVBp6lh4pLa3RCPX3D6pajY2NqgOamtoUPEmwdXBEICbGNQFb8CaBlJQid0g80ZpgxnR28pyoXye33NwKhD0DqWU0alScR4+4OVFJ8lRWh4aGNRKjo6Pa9RL8gwcpb4E3CGQ7BG6aPYGUFCMCHAdmJHHrVpSmEy0uLgs74xNcoBBdpxVSxkOubt212TqnphaiGPNROzmSnl6MVmVICYyMjCgJthD2hWxGxFkEHIE3CbhBwoqucB/SJWQiEuPQ+aeY5vzFy+tXpNId7XXS0l4CoFV6e0moS6W0spKdbv0kieHhYackYmOzdfd1h0RqqpE6tjYjiXXr9umwMTxsnEzzkIrHIz4+N+TUqety7lywXLwYptGJjc3SFGtoaEXa9WjaDQ0NqTkjQRUygdqDN3/uigBtxnRau3YnCjhIGz5GgqlDFWL3mZKSD4VJ1v4nMDBGZZftRFxcrl60rKxed+zBwQF8DkzWhEnCVRrZgndFgGaSYAPoUGK/+upbJUGVIQmmTkhIHFQhH6CatcDZmpeU1GidsBbo3adP83DhYqRYH0jwuLFfx04Cpxm/k6OtxEwE0tKKp4G2N5JITzcisWTJMpA4YU9i2zQSlMADBy7KsWMBkNpoeDYZBV0GgM2IEHfzbi149kkcY3t6etEQ9qmRBBXIJJGYmK8g50KA9vx5meTkVCASobJwoYc9CatG4vz561oTLO7s7HI5ezYIRX0bk9RdCQiIUAmm/sfFvdBWu7a2SSPEeYMX45E9P5lO3MiYQmYXam+2BKhujkDbG0lwlgkMDJNFi5Y6I3FVc5ua39PTp4djubnlWsjcuKYmMqON4IbHC1dWNugpNuuoq4sRqtd5mCQYBVcEaI4A21tmZgkibswpM5Lo7x+YUBruwsOa4319/WgIO1DkdbhYscokwTEFWIhMqc7OLk0x7uA80WA6ch6wJ2BPgjnuCLStcU7h8MXs4L3cJsFzf+OJTg+sV41keOpNQnV1PG606HTHPDXrhIfAJMFIOOqNbAkwko5A2xojTQKcEM2JcUYSVBkWJ9PCNAKjtbfT05Rew+P8WWtrpx6s8ZP/Z5JgJLij2xKwJ+EItL3RQQYBzvXVNiScFvZV/JBe5xxtgHTHTEKmOSNhS8DsSF0ZwdtGwBh7q6FO96FOi+TwYW/Fa0Nim5Jgbnd0MGWmA3sXc4eEI9DTrRhRqFTwppEAz8CCgx++fxI8ppkriaysct2XzCjQeAzE08Pw8BhZvPiT90PCTCuesc6FBOXUPgokQCHhKSJJLFiwUA4dckKio4PPyd6dhFnw/O6IhC0BV/0Rzdj8iqdFgWnEPo4P8qOjY+Sjjz4CieOOSFwDkA6Q6HkLpCMz1YrfrdZW3Rz5nTd0RcIRcNMYhezsClUlkwDJMAo830pLy5E9e/aAxAKo01HbIxurrFnzrZw+/ase5Xd28gkoH+FOgXQGvLGxRZ8asV/iQxh+LylxHQlH4E0jiYICQ4VMEpxX2KcFB4fA2evlz39eALybILWBuqdNkqDEHjt2HqF+ic3F0GQe7RMoc91MFRO07eMumvnoit+ZTtzknj2bXT3YSmpxsUVnl6NHj6OYF8vf/rZEdu3yxCgQJi0tLUqAa5LE8eM/4yYFmrO8sZG7xdqlVlU1KHAex5iAnRlJcDeeC4miolp0AzXo056o95k+nCFOn/bF3vECPV7/BHxjTZLw9vZXWeMGw+Iye6O0NJLhQGJoN1sN43HVFHA++bElQbCzIcE2g97Pzi4F4PPw/qcg8Il8880uuX07BJnQoKOC/ZpGgl0rw8ht3pwV6B3egMRoHE7M3ZQHx3wGwdQjsZqaBvx7dpHIyqKs1qD7TZUtW7YB/McYflYhlU7gGonaDjlbkyROnPBHGF+plJGIaYZCGKRMY92QHAmxyzQJsaiLiqoVuLskMjM57LzCZ7FcvnwTwD3k44+XyPr12+Xq1etI5crJgzlna5LEf/7jDyWo1bbB/mmPLSlbsyXGfp/pQGA82bDtYG1J2A5BL15wZ66QyMgE2bfvX/KXv/xdPv10hRw8eAQt/1PtpN1Z00iYuW4+pjXIWN4yV+SYgq4OBRITGY1SeL8K3/Pl0qXr8sUXy+XDD/8O6dwqv/xyEXX3ckbv265JEmfPXpjYtNomZdRiadY8N0mZxv7ImZGEs1mCBCgYeXnVmA6T4fGj8te//g8K+AvZu/d7RCRymnS6uz7gKz70ANWAJ9+csc3Wg3NCY6OxqdkaidE4HHGD5P5g/oy14YxEZmY5UqhSbty4Kxs3bkX6/ENWrlwvZ874gliuniDOZn3AF6M8PNbKtm370ZfEIZRlIMBXPMdx0THkJcdTEprauRktq7VF6qoapaKoThrq2qS5+Y1G0tmOTfA80z1+/ByGmiUo3k/0hcWQkLuIev0EnNmtD5h7AQE3ZcWKDQitBzy0V86d85f798Nx4xyAboM28+heMDDxOR128PYesb5uleup1+RB3kVJL4kVS229tLd1a0rZkuAAlJlZAZ0Pl82bd8if/vSRblze3mfw8wyX0unu0tcieCz/7FmyXLhwWbf1xYtXoND+V1av3gqdPgnpuyIpKcn6Ypa5evsGJKosQo4Ub5ZN6Qvkj+xoaW3pREpZlQTTKT29FEQKxcfHVz7/fBWcxI1rp1y7dgOpWDtxpbmvaW/Z8JTDYqkD4DS5fj1IPD29sOkshvcWgtAmFOIP4ufnD/mLlZbXBqHSvjKJa4uW6ja+kNsLEo16QpicXCR37vwhO3bsReosgmOW6wwQHx+P2d39F3fdWW+9KmQuHtnQW76+fhohvk/x4YeLUIyLIImrsKvuQJROSWxUnHRYp0Cxdnh06ed3WZYvp/cXQP2+kd9+C8BQU6Gn5/O9nJLgYr1ERETAu/VofcP1DbSwsHCkxxn58st1iNKnEIUVsnbtRmxW+/QVu9TUNNm9+yDm4M9gyzSaERGRqKU3E1ed/+WSBE+5w8PDVWZ5HuvtfQLFzeP8HvT4NUirBMjjOVm3bitGxqVoGT6H99foWenKlZsQjV+wm+dP9v3va81I4tGjR7rphYYmYOaYeqHWXHwm8Rr1kZ6eoam3efMeyDWjch/K1jrxW+9zifwXMuX2k4SuPWQAAAAASUVORK5CYII=;fontSize=10;labelPosition=center;align=center;fontStyle=0" parent="1" vertex="1">
          <mxGeometry x="872.9233333333333" y="3930" width="29.166666666666668" height="40" as="geometry" />
        </mxCell>
        <mxCell id="gUHsCTnRIOJ-MTFSnGW0-35" style="edgeStyle=orthogonalEdgeStyle;rounded=0;orthogonalLoop=1;jettySize=auto;html=1;entryX=0;entryY=0.5;entryDx=0;entryDy=0;endArrow=block;endFill=1;strokeColor=#000075;strokeWidth=2;" parent="1" target="gUHsCTnRIOJ-MTFSnGW0-31" edge="1">
          <mxGeometry relative="1" as="geometry">
            <mxPoint x="622.92" y="3930" as="sourcePoint" />
            <mxPoint x="583.9" y="4037.6499999999996" as="targetPoint" />
            <Array as="points">
              <mxPoint x="622.92" y="3930" />
            </Array>
          </mxGeometry>
        </mxCell>
        <mxCell id="gUHsCTnRIOJ-MTFSnGW0-36" value="" style="rounded=0;whiteSpace=wrap;html=1;fillColor=none;container=0;" parent="1" vertex="1">
          <mxGeometry x="384.05" y="3569.1" width="200" height="110" as="geometry" />
        </mxCell>
        <mxCell id="gUHsCTnRIOJ-MTFSnGW0-37" value="Web Server" style="rounded=0;whiteSpace=wrap;html=1;fillColor=#000075;fontColor=#ffffff;fontStyle=1;fontSize=16;container=0;" parent="1" vertex="1">
          <mxGeometry x="383.59" y="3569.1" width="200" height="30" as="geometry" />
        </mxCell>
        <mxCell id="gUHsCTnRIOJ-MTFSnGW0-38" value="Admin Portal" style="sketch=0;pointerEvents=1;shadow=0;dashed=0;html=1;strokeColor=none;labelPosition=center;verticalLabelPosition=bottom;verticalAlign=top;align=center;fillColor=#505050;shape=mxgraph.mscae.intune.company_portal;container=0;" parent="1" vertex="1">
          <mxGeometry x="422.92" y="3609.1" width="40" height="40" as="geometry" />
        </mxCell>
        <mxCell id="gUHsCTnRIOJ-MTFSnGW0-39" value="User Portal" style="sketch=0;pointerEvents=1;shadow=0;dashed=0;html=1;strokeColor=none;labelPosition=center;verticalLabelPosition=bottom;verticalAlign=top;align=center;fillColor=#505050;shape=mxgraph.mscae.intune.company_portal;container=0;" parent="1" vertex="1">
          <mxGeometry x="502.91999999999996" y="3609.1" width="40" height="40" as="geometry" />
        </mxCell>
        <mxCell id="gUHsCTnRIOJ-MTFSnGW0-40" value="" style="group" parent="1" vertex="1" connectable="0">
          <mxGeometry x="322.53999999999996" y="4000" width="661" height="450" as="geometry" />
        </mxCell>
        <mxCell id="gUHsCTnRIOJ-MTFSnGW0-41" value="" style="group;fontSize=10;fillColor=#000075;rounded=1;" parent="gUHsCTnRIOJ-MTFSnGW0-40" vertex="1" connectable="0">
          <mxGeometry y="24.72340425531915" width="661" height="47.87234042553192" as="geometry" />
        </mxCell>
        <mxCell id="gUHsCTnRIOJ-MTFSnGW0-42" value="" style="rounded=1;whiteSpace=wrap;html=1;fillColor=#000075;strokeColor=none;fontColor=#000000;" parent="gUHsCTnRIOJ-MTFSnGW0-41" vertex="1">
          <mxGeometry width="661" height="47.87234042553192" as="geometry" />
        </mxCell>
        <mxCell id="gUHsCTnRIOJ-MTFSnGW0-43" value="IaaS Service" style="rounded=1;whiteSpace=wrap;html=1;fillColor=#000075;fontStyle=1;fontSize=10;strokeColor=#FFFFFF;fontColor=#FFFFFF;" parent="gUHsCTnRIOJ-MTFSnGW0-41" vertex="1">
          <mxGeometry x="9.938265882557427" y="9.574468085106384" width="92.74567719562262" height="28.72340425531915" as="geometry" />
        </mxCell>
        <mxCell id="gUHsCTnRIOJ-MTFSnGW0-44" value="Storage" style="rounded=1;whiteSpace=wrap;html=1;fillColor=#000075;fontStyle=1;fontSize=10;strokeColor=#FFFFFF;fontColor=#FFFFFF;" parent="gUHsCTnRIOJ-MTFSnGW0-41" vertex="1">
          <mxGeometry x="121.1522670265128" y="9.574468085106384" width="92.74567719562262" height="28.72340425531915" as="geometry" />
        </mxCell>
        <mxCell id="gUHsCTnRIOJ-MTFSnGW0-45" value="Network" style="rounded=1;whiteSpace=wrap;html=1;fillColor=#000075;fontStyle=1;fontSize=10;strokeColor=#FFFFFF;fontColor=#FFFFFF;" parent="gUHsCTnRIOJ-MTFSnGW0-41" vertex="1">
          <mxGeometry x="232.66451473269709" y="9.574468085106384" width="92.74604744037205" height="28.72340425531915" as="geometry" />
        </mxCell>
        <mxCell id="gUHsCTnRIOJ-MTFSnGW0-46" value="Management" style="rounded=1;whiteSpace=wrap;html=1;fillColor=#000075;fontStyle=1;fontSize=10;strokeColor=#FFFFFF;fontColor=#FFFFFF;" parent="gUHsCTnRIOJ-MTFSnGW0-41" vertex="1">
          <mxGeometry x="342.4587967692162" y="9.574468085106384" width="92.74567719562262" height="28.72340425531915" as="geometry" />
        </mxCell>
        <mxCell id="gUHsCTnRIOJ-MTFSnGW0-47" value="Workload provisioning" style="rounded=1;whiteSpace=wrap;html=1;fillColor=#000075;fontStyle=1;fontSize=10;strokeColor=#FFFFFF;fontColor=#FFFFFF;" parent="gUHsCTnRIOJ-MTFSnGW0-41" vertex="1">
          <mxGeometry x="449.11632554418213" y="9.574468085106384" width="92.74567719562262" height="28.72340425531915" as="geometry" />
        </mxCell>
        <mxCell id="gUHsCTnRIOJ-MTFSnGW0-48" value="Orchestration" style="rounded=1;whiteSpace=wrap;html=1;fillColor=#000075;fontStyle=1;fontSize=12;strokeColor=#FFFFFF;fontColor=#FFFFFF;" parent="gUHsCTnRIOJ-MTFSnGW0-41" vertex="1">
          <mxGeometry x="558.6798855379443" y="9.574468085106384" width="92.74567719562262" height="28.72340425531915" as="geometry" />
        </mxCell>
        <mxCell id="gUHsCTnRIOJ-MTFSnGW0-49" value="" style="shape=flexArrow;endArrow=classic;html=1;rounded=1;entryX=0.5;entryY=1;entryDx=0;entryDy=0;strokeColor=none;fillColor=#000075;exitX=0.5;exitY=0.02;exitDx=0;exitDy=0;exitPerimeter=0;gradientColor=none;shadow=0;endWidth=19.30232558139535;endSize=4.553488372093023;width=36.27906976744186;" parent="gUHsCTnRIOJ-MTFSnGW0-40" source="gUHsCTnRIOJ-MTFSnGW0-42" edge="1">
          <mxGeometry width="50" height="50" relative="1" as="geometry">
            <mxPoint x="297.1713838755468" y="57.4468085106383" as="sourcePoint" />
            <mxPoint x="330.68191430806223" as="targetPoint" />
          </mxGeometry>
        </mxCell>
        <mxCell id="gUHsCTnRIOJ-MTFSnGW0-50" value="" style="group" parent="gUHsCTnRIOJ-MTFSnGW0-40" vertex="1" connectable="0">
          <mxGeometry x="0.36382861612444883" y="86.17021276595744" width="660.6361713838755" height="363.82978723404256" as="geometry" />
        </mxCell>
        <mxCell id="gUHsCTnRIOJ-MTFSnGW0-51" value="" style="rounded=0;whiteSpace=wrap;html=1;fillColor=none;strokeWidth=2;strokeColor=#000099;" parent="gUHsCTnRIOJ-MTFSnGW0-50" vertex="1">
          <mxGeometry width="660.6361713838755" height="363.82978723404256" as="geometry" />
        </mxCell>
        <mxCell id="gUHsCTnRIOJ-MTFSnGW0-52" value="사용자 포털" style="rounded=0;whiteSpace=wrap;html=1;fontStyle=1;fillColor=#eeeeee;strokeColor=#36393d;container=0;" parent="gUHsCTnRIOJ-MTFSnGW0-50" vertex="1">
          <mxGeometry x="9.574437266432978" y="9.574468085106384" width="641.4872968510095" height="18.146374067060265" as="geometry" />
        </mxCell>
        <mxCell id="gUHsCTnRIOJ-MTFSnGW0-53" value="로그인" style="rounded=0;whiteSpace=wrap;html=1;fillColor=#cdeb8b;strokeColor=#36393d;fontSize=9;" parent="gUHsCTnRIOJ-MTFSnGW0-50" vertex="1">
          <mxGeometry x="18.36193448357012" y="36.79402918569666" width="77.69997539363345" height="18.146374067060265" as="geometry" />
        </mxCell>
        <mxCell id="gUHsCTnRIOJ-MTFSnGW0-54" value="컴퓨트" style="rounded=0;whiteSpace=wrap;html=1;fillColor=#cdeb8b;strokeColor=#36393d;fontSize=9;" parent="gUHsCTnRIOJ-MTFSnGW0-50" vertex="1">
          <mxGeometry x="129.36189933161788" y="36.79402918569666" width="77.69997539363345" height="18.146374067060265" as="geometry" />
        </mxCell>
        <mxCell id="gUHsCTnRIOJ-MTFSnGW0-55" value="네트워크" style="rounded=0;whiteSpace=wrap;html=1;fillColor=#cdeb8b;strokeColor=#36393d;fontSize=9;" parent="gUHsCTnRIOJ-MTFSnGW0-50" vertex="1">
          <mxGeometry x="240.36186417966567" y="36.79402918569666" width="77.69997539363345" height="18.146374067060265" as="geometry" />
        </mxCell>
        <mxCell id="gUHsCTnRIOJ-MTFSnGW0-56" value="인증 &amp;amp; 권한" style="rounded=0;whiteSpace=wrap;html=1;fillColor=#cdeb8b;strokeColor=#36393d;fontSize=9;" parent="gUHsCTnRIOJ-MTFSnGW0-50" vertex="1">
          <mxGeometry x="351.3618290277134" y="36.79402918569666" width="77.69997539363345" height="18.146374067060265" as="geometry" />
        </mxCell>
        <mxCell id="gUHsCTnRIOJ-MTFSnGW0-57" value="모니터링" style="rounded=0;whiteSpace=wrap;html=1;fillColor=#cdeb8b;strokeColor=#36393d;fontSize=9;" parent="gUHsCTnRIOJ-MTFSnGW0-50" vertex="1">
          <mxGeometry x="462.36179387576135" y="36.79402918569666" width="77.69997539363345" height="18.146374067060265" as="geometry" />
        </mxCell>
        <mxCell id="gUHsCTnRIOJ-MTFSnGW0-58" value="사용이력" style="rounded=0;whiteSpace=wrap;html=1;fillColor=#cdeb8b;strokeColor=#36393d;fontSize=9;" parent="gUHsCTnRIOJ-MTFSnGW0-50" vertex="1">
          <mxGeometry x="573.361758723809" y="36.79402918569666" width="77.69997539363345" height="18.146374067060265" as="geometry" />
        </mxCell>
        <mxCell id="gUHsCTnRIOJ-MTFSnGW0-59" value="보안설정" style="rounded=0;whiteSpace=wrap;html=1;fontSize=9;" parent="gUHsCTnRIOJ-MTFSnGW0-50" vertex="1">
          <mxGeometry x="18.36193448357012" y="62.19895287958131" width="77.69997539363345" height="9.073187033530132" as="geometry" />
        </mxCell>
        <mxCell id="gUHsCTnRIOJ-MTFSnGW0-60" value="로그인 차단" style="rounded=0;whiteSpace=wrap;html=1;fontSize=9;" parent="gUHsCTnRIOJ-MTFSnGW0-50" vertex="1">
          <mxGeometry x="18.36193448357012" y="78.53068953993531" width="77.69997539363345" height="9.073187033530132" as="geometry" />
        </mxCell>
        <mxCell id="gUHsCTnRIOJ-MTFSnGW0-61" value="로그인 관리" style="rounded=0;whiteSpace=wrap;html=1;fontSize=9;" parent="gUHsCTnRIOJ-MTFSnGW0-50" vertex="1">
          <mxGeometry x="18.36193448357012" y="94.86242620029016" width="77.69997539363345" height="9.073187033530132" as="geometry" />
        </mxCell>
        <mxCell id="gUHsCTnRIOJ-MTFSnGW0-62" value="활동기록" style="rounded=0;whiteSpace=wrap;html=1;fontSize=9;" parent="gUHsCTnRIOJ-MTFSnGW0-50" vertex="1">
          <mxGeometry x="18.36193448357012" y="111.19416286064327" width="77.69997539363345" height="9.073187033530132" as="geometry" />
        </mxCell>
        <mxCell id="gUHsCTnRIOJ-MTFSnGW0-63" value="서버" style="rounded=0;whiteSpace=wrap;html=1;fontSize=9;" parent="gUHsCTnRIOJ-MTFSnGW0-50" vertex="1">
          <mxGeometry x="129.36189933161788" y="62.19895287958131" width="77.69997539363345" height="9.073187033530132" as="geometry" />
        </mxCell>
        <mxCell id="gUHsCTnRIOJ-MTFSnGW0-64" value="GPU서버" style="rounded=0;whiteSpace=wrap;html=1;fontSize=9;" parent="gUHsCTnRIOJ-MTFSnGW0-50" vertex="1">
          <mxGeometry x="129.36189933161788" y="78.53068953993531" width="77.69997539363345" height="9.073187033530132" as="geometry" />
        </mxCell>
        <mxCell id="gUHsCTnRIOJ-MTFSnGW0-65" value="볼륨" style="rounded=0;whiteSpace=wrap;html=1;fontSize=9;" parent="gUHsCTnRIOJ-MTFSnGW0-50" vertex="1">
          <mxGeometry x="129.36189933161788" y="94.86242620029016" width="77.69997539363345" height="9.073187033530132" as="geometry" />
        </mxCell>
        <mxCell id="gUHsCTnRIOJ-MTFSnGW0-66" value="스냅샷" style="rounded=0;whiteSpace=wrap;html=1;fontSize=9;" parent="gUHsCTnRIOJ-MTFSnGW0-50" vertex="1">
          <mxGeometry x="129.36189933161788" y="111.19416286064327" width="77.69997539363345" height="9.073187033530132" as="geometry" />
        </mxCell>
        <mxCell id="gUHsCTnRIOJ-MTFSnGW0-67" value="템플릿" style="rounded=0;whiteSpace=wrap;html=1;fontSize=9;" parent="gUHsCTnRIOJ-MTFSnGW0-50" vertex="1">
          <mxGeometry x="129.36189933161788" y="127.52589952099814" width="77.69997539363345" height="9.073187033530132" as="geometry" />
        </mxCell>
        <mxCell id="gUHsCTnRIOJ-MTFSnGW0-68" value="&lt;font style=&quot;font-size: 9px;&quot;&gt;스냅샷 스케쥴링&lt;/font&gt;" style="rounded=0;whiteSpace=wrap;html=1;fontSize=9;" parent="gUHsCTnRIOJ-MTFSnGW0-50" vertex="1">
          <mxGeometry x="129.36189933161788" y="143.85763618135212" width="77.69997539363345" height="9.073187033530132" as="geometry" />
        </mxCell>
        <mxCell id="gUHsCTnRIOJ-MTFSnGW0-69" value="서브넷" style="rounded=0;whiteSpace=wrap;html=1;fontSize=9;" parent="gUHsCTnRIOJ-MTFSnGW0-50" vertex="1">
          <mxGeometry x="240.36186417966567" y="62.19895287958131" width="77.69997539363345" height="9.073187033530132" as="geometry" />
        </mxCell>
        <mxCell id="gUHsCTnRIOJ-MTFSnGW0-70" value="적응형IP" style="rounded=0;whiteSpace=wrap;html=1;fontSize=9;" parent="gUHsCTnRIOJ-MTFSnGW0-50" vertex="1">
          <mxGeometry x="240.36186417966567" y="78.53068953993531" width="77.69997539363345" height="9.073187033530132" as="geometry" />
        </mxCell>
        <mxCell id="gUHsCTnRIOJ-MTFSnGW0-71" value="포트포워딩" style="rounded=0;whiteSpace=wrap;html=1;fontSize=9;" parent="gUHsCTnRIOJ-MTFSnGW0-50" vertex="1">
          <mxGeometry x="240.36186417966567" y="94.86242620029016" width="77.69997539363345" height="9.073187033530132" as="geometry" />
        </mxCell>
        <mxCell id="gUHsCTnRIOJ-MTFSnGW0-72" value="로드밸런싱" style="rounded=0;whiteSpace=wrap;html=1;fontSize=9;" parent="gUHsCTnRIOJ-MTFSnGW0-50" vertex="1">
          <mxGeometry x="240.36186417966567" y="111.19416286064327" width="77.69997539363345" height="9.073187033530132" as="geometry" />
        </mxCell>
        <mxCell id="gUHsCTnRIOJ-MTFSnGW0-73" value="오토스케일링" style="rounded=0;whiteSpace=wrap;html=1;fontSize=9;" parent="gUHsCTnRIOJ-MTFSnGW0-50" vertex="1">
          <mxGeometry x="240.36186417966567" y="127.52589952099814" width="77.69997539363345" height="9.073187033530132" as="geometry" />
        </mxCell>
        <mxCell id="gUHsCTnRIOJ-MTFSnGW0-74" value="역할" style="rounded=0;whiteSpace=wrap;html=1;fontSize=9;" parent="gUHsCTnRIOJ-MTFSnGW0-50" vertex="1">
          <mxGeometry x="351.3618290277134" y="62.19895287958131" width="77.69997539363345" height="9.073187033530132" as="geometry" />
        </mxCell>
        <mxCell id="gUHsCTnRIOJ-MTFSnGW0-75" value="사용자" style="rounded=0;whiteSpace=wrap;html=1;fontSize=9;" parent="gUHsCTnRIOJ-MTFSnGW0-50" vertex="1">
          <mxGeometry x="351.3618290277134" y="78.53068953993531" width="77.69997539363345" height="9.073187033530132" as="geometry" />
        </mxCell>
        <mxCell id="gUHsCTnRIOJ-MTFSnGW0-76" value="보안그룹" style="rounded=0;whiteSpace=wrap;html=1;fontSize=9;" parent="gUHsCTnRIOJ-MTFSnGW0-50" vertex="1">
          <mxGeometry x="351.3618290277134" y="94.86242620029016" width="77.69997539363345" height="9.073187033530132" as="geometry" />
        </mxCell>
        <mxCell id="gUHsCTnRIOJ-MTFSnGW0-77" value="대시보드" style="rounded=0;whiteSpace=wrap;html=1;fontSize=9;" parent="gUHsCTnRIOJ-MTFSnGW0-50" vertex="1">
          <mxGeometry x="462.36179387576135" y="62.19895287958131" width="77.69997539363345" height="9.073187033530132" as="geometry" />
        </mxCell>
        <mxCell id="gUHsCTnRIOJ-MTFSnGW0-78" value="토폴로지" style="rounded=0;whiteSpace=wrap;html=1;fontSize=9;" parent="gUHsCTnRIOJ-MTFSnGW0-50" vertex="1">
          <mxGeometry x="462.36179387576135" y="78.53068953993531" width="77.69997539363345" height="9.073187033530132" as="geometry" />
        </mxCell>
        <mxCell id="gUHsCTnRIOJ-MTFSnGW0-79" value="컴퓨트" style="rounded=0;whiteSpace=wrap;html=1;fontSize=9;" parent="gUHsCTnRIOJ-MTFSnGW0-50" vertex="1">
          <mxGeometry x="573.361758723809" y="62.19895287958131" width="77.69997539363345" height="9.073187033530132" as="geometry" />
        </mxCell>
        <mxCell id="gUHsCTnRIOJ-MTFSnGW0-80" value="네트워크" style="rounded=0;whiteSpace=wrap;html=1;fontSize=9;" parent="gUHsCTnRIOJ-MTFSnGW0-50" vertex="1">
          <mxGeometry x="573.361758723809" y="78.53068953993531" width="77.69997539363345" height="9.073187033530132" as="geometry" />
        </mxCell>
        <mxCell id="gUHsCTnRIOJ-MTFSnGW0-81" value="인증 &amp;amp; 권한" style="rounded=0;whiteSpace=wrap;html=1;fontSize=9;" parent="gUHsCTnRIOJ-MTFSnGW0-50" vertex="1">
          <mxGeometry x="573.361758723809" y="94.86242620029016" width="77.69997539363345" height="9.073187033530132" as="geometry" />
        </mxCell>
        <mxCell id="gUHsCTnRIOJ-MTFSnGW0-82" value="액션" style="rounded=0;whiteSpace=wrap;html=1;fontSize=9;" parent="gUHsCTnRIOJ-MTFSnGW0-50" vertex="1">
          <mxGeometry x="573.361758723809" y="111.19416286064327" width="77.69997539363345" height="9.073187033530132" as="geometry" />
        </mxCell>
        <mxCell id="gUHsCTnRIOJ-MTFSnGW0-83" value="관리자 포털" style="rounded=0;whiteSpace=wrap;html=1;fontStyle=1;fillColor=#eeeeee;strokeColor=#36393d;" parent="gUHsCTnRIOJ-MTFSnGW0-50" vertex="1">
          <mxGeometry x="9.574437266432978" y="163.8186476551191" width="641.4872968510095" height="18.146374067060265" as="geometry" />
        </mxCell>
        <mxCell id="gUHsCTnRIOJ-MTFSnGW0-84" value="환경 설정" style="rounded=0;whiteSpace=wrap;html=1;fillColor=#cdeb8b;strokeColor=#36393d;fontSize=9;" parent="gUHsCTnRIOJ-MTFSnGW0-50" vertex="1">
          <mxGeometry x="584.0406732524117" y="191.03820875570935" width="67.02106086503085" height="18.146374067060265" as="geometry" />
        </mxCell>
        <mxCell id="gUHsCTnRIOJ-MTFSnGW0-85" value="사이트" style="rounded=0;whiteSpace=wrap;html=1;fontSize=9;" parent="gUHsCTnRIOJ-MTFSnGW0-50" vertex="1">
          <mxGeometry x="584.0406732524117" y="216.44313244959315" width="67.02106086503085" height="9.073187033530132" as="geometry" />
        </mxCell>
        <mxCell id="gUHsCTnRIOJ-MTFSnGW0-86" value="시스템" style="rounded=0;whiteSpace=wrap;html=1;fontSize=9;" parent="gUHsCTnRIOJ-MTFSnGW0-50" vertex="1">
          <mxGeometry x="584.0406732524117" y="232.774869109948" width="67.02106086503085" height="9.073187033530132" as="geometry" />
        </mxCell>
        <mxCell id="gUHsCTnRIOJ-MTFSnGW0-87" value="대시보드" style="rounded=0;whiteSpace=wrap;html=1;fillColor=#cdeb8b;strokeColor=#36393d;fontSize=9;" parent="gUHsCTnRIOJ-MTFSnGW0-50" vertex="1">
          <mxGeometry x="9.574437266432978" y="191.03820875570935" width="67.02106086503085" height="18.146374067060265" as="geometry" />
        </mxCell>
        <mxCell id="gUHsCTnRIOJ-MTFSnGW0-88" value="자원" style="rounded=0;whiteSpace=wrap;html=1;fillColor=#cdeb8b;strokeColor=#36393d;fontSize=9;" parent="gUHsCTnRIOJ-MTFSnGW0-50" vertex="1">
          <mxGeometry x="105.3188099307628" y="191.03820875570935" width="67.02106086503085" height="18.146374067060265" as="geometry" />
        </mxCell>
        <mxCell id="gUHsCTnRIOJ-MTFSnGW0-89" value="사용 이력" style="rounded=0;whiteSpace=wrap;html=1;fillColor=#cdeb8b;strokeColor=#36393d;fontSize=9;" parent="gUHsCTnRIOJ-MTFSnGW0-50" vertex="1">
          <mxGeometry x="201.06318259509263" y="191.03820875570935" width="67.02106086503085" height="18.146374067060265" as="geometry" />
        </mxCell>
        <mxCell id="gUHsCTnRIOJ-MTFSnGW0-90" value="빌링" style="rounded=0;whiteSpace=wrap;html=1;fillColor=#cdeb8b;strokeColor=#36393d;fontSize=9;" parent="gUHsCTnRIOJ-MTFSnGW0-50" vertex="1">
          <mxGeometry x="296.8075552594224" y="191.03820875570935" width="67.02106086503085" height="18.146374067060265" as="geometry" />
        </mxCell>
        <mxCell id="gUHsCTnRIOJ-MTFSnGW0-91" value="자산" style="rounded=0;whiteSpace=wrap;html=1;fillColor=#cdeb8b;strokeColor=#36393d;fontSize=9;" parent="gUHsCTnRIOJ-MTFSnGW0-50" vertex="1">
          <mxGeometry x="392.55192792375226" y="191.03820875570935" width="67.02106086503085" height="18.146374067060265" as="geometry" />
        </mxCell>
        <mxCell id="gUHsCTnRIOJ-MTFSnGW0-92" value="멤버" style="rounded=0;whiteSpace=wrap;html=1;fillColor=#cdeb8b;strokeColor=#36393d;fontSize=9;" parent="gUHsCTnRIOJ-MTFSnGW0-50" vertex="1">
          <mxGeometry x="488.2963005880819" y="191.03820875570935" width="67.02106086503085" height="18.146374067060265" as="geometry" />
        </mxCell>
        <mxCell id="gUHsCTnRIOJ-MTFSnGW0-93" value="가상자원" style="rounded=0;whiteSpace=wrap;html=1;fontSize=9;" parent="gUHsCTnRIOJ-MTFSnGW0-50" vertex="1">
          <mxGeometry x="9.574437266432978" y="216.44313244959315" width="67.02106086503085" height="9.073187033530132" as="geometry" />
        </mxCell>
        <mxCell id="gUHsCTnRIOJ-MTFSnGW0-94" value="컴퓨트" style="rounded=0;whiteSpace=wrap;html=1;fontSize=9;" parent="gUHsCTnRIOJ-MTFSnGW0-50" vertex="1">
          <mxGeometry x="105.3188099307628" y="216.44313244959315" width="67.02106086503085" height="9.073187033530132" as="geometry" />
        </mxCell>
        <mxCell id="gUHsCTnRIOJ-MTFSnGW0-95" value="가격 정책" style="rounded=0;whiteSpace=wrap;html=1;fontSize=9;" parent="gUHsCTnRIOJ-MTFSnGW0-50" vertex="1">
          <mxGeometry x="296.8075552594224" y="216.44313244959315" width="67.02106086503085" height="9.073187033530132" as="geometry" />
        </mxCell>
        <mxCell id="gUHsCTnRIOJ-MTFSnGW0-96" value="컴퓨트서비스" style="rounded=0;whiteSpace=wrap;html=1;fontSize=9;" parent="gUHsCTnRIOJ-MTFSnGW0-50" vertex="1">
          <mxGeometry x="392.55192792375226" y="216.44313244959315" width="67.02106086503085" height="9.073187033530132" as="geometry" />
        </mxCell>
        <mxCell id="gUHsCTnRIOJ-MTFSnGW0-97" value="테넌트" style="rounded=0;whiteSpace=wrap;html=1;fontSize=9;" parent="gUHsCTnRIOJ-MTFSnGW0-50" vertex="1">
          <mxGeometry x="488.2963005880819" y="216.44313244959315" width="67.02106086503085" height="9.073187033530132" as="geometry" />
        </mxCell>
        <mxCell id="gUHsCTnRIOJ-MTFSnGW0-98" value="물리자산" style="rounded=0;whiteSpace=wrap;html=1;fontSize=9;" parent="gUHsCTnRIOJ-MTFSnGW0-50" vertex="1">
          <mxGeometry x="9.574437266432978" y="232.774869109948" width="67.02106086503085" height="9.073187033530132" as="geometry" />
        </mxCell>
        <mxCell id="gUHsCTnRIOJ-MTFSnGW0-99" value="네트워크" style="rounded=0;whiteSpace=wrap;html=1;fontSize=9;" parent="gUHsCTnRIOJ-MTFSnGW0-50" vertex="1">
          <mxGeometry x="105.3188099307628" y="232.774869109948" width="67.02106086503085" height="9.073187033530132" as="geometry" />
        </mxCell>
        <mxCell id="gUHsCTnRIOJ-MTFSnGW0-100" value="고객" style="rounded=0;whiteSpace=wrap;html=1;fontSize=9;" parent="gUHsCTnRIOJ-MTFSnGW0-50" vertex="1">
          <mxGeometry x="296.8075552594224" y="232.774869109948" width="67.02106086503085" height="9.073187033530132" as="geometry" />
        </mxCell>
        <mxCell id="gUHsCTnRIOJ-MTFSnGW0-101" value="&lt;font style=&quot;font-size: 9px;&quot;&gt;네트워크서비스&lt;/font&gt;" style="rounded=0;whiteSpace=wrap;html=1;fontSize=9;" parent="gUHsCTnRIOJ-MTFSnGW0-50" vertex="1">
          <mxGeometry x="392.55192792375226" y="232.774869109948" width="67.02106086503085" height="9.073187033530132" as="geometry" />
        </mxCell>
        <mxCell id="gUHsCTnRIOJ-MTFSnGW0-102" value="관리자" style="rounded=0;whiteSpace=wrap;html=1;fontSize=9;" parent="gUHsCTnRIOJ-MTFSnGW0-50" vertex="1">
          <mxGeometry x="488.2963005880819" y="232.774869109948" width="67.02106086503085" height="9.073187033530132" as="geometry" />
        </mxCell>
        <mxCell id="gUHsCTnRIOJ-MTFSnGW0-103" value="서버 사양" style="rounded=0;whiteSpace=wrap;html=1;fontSize=9;" parent="gUHsCTnRIOJ-MTFSnGW0-50" vertex="1">
          <mxGeometry x="584.0406732524117" y="249.106605770302" width="67.02106086503085" height="9.073187033530132" as="geometry" />
        </mxCell>
        <mxCell id="gUHsCTnRIOJ-MTFSnGW0-104" value="자원 제한" style="rounded=0;whiteSpace=wrap;html=1;fontSize=9;" parent="gUHsCTnRIOJ-MTFSnGW0-50" vertex="1">
          <mxGeometry x="584.0406732524117" y="265.438342430656" width="67.02106086503085" height="9.073187033530132" as="geometry" />
        </mxCell>
        <mxCell id="gUHsCTnRIOJ-MTFSnGW0-105" value="클래스" style="rounded=0;whiteSpace=wrap;html=1;fontSize=9;" parent="gUHsCTnRIOJ-MTFSnGW0-50" vertex="1">
          <mxGeometry x="584.0406732524117" y="298.1018157513648" width="67.02106086503085" height="9.073187033530132" as="geometry" />
        </mxCell>
        <mxCell id="gUHsCTnRIOJ-MTFSnGW0-106" value="자원 생성" style="rounded=0;whiteSpace=wrap;html=1;fontSize=9;" parent="gUHsCTnRIOJ-MTFSnGW0-50" vertex="1">
          <mxGeometry x="584.0406732524117" y="281.7700790910108" width="67.02106086503085" height="9.073187033530132" as="geometry" />
        </mxCell>
        <mxCell id="gUHsCTnRIOJ-MTFSnGW0-107" value="웹 서비스" style="rounded=0;whiteSpace=wrap;html=1;fontSize=9;" parent="gUHsCTnRIOJ-MTFSnGW0-50" vertex="1">
          <mxGeometry x="392.2134631677546" y="249.106605770302" width="67.02106086503085" height="9.073187033530132" as="geometry" />
        </mxCell>
        <mxCell id="gUHsCTnRIOJ-MTFSnGW0-108" value="IP풀" style="rounded=0;whiteSpace=wrap;html=1;fontSize=9;" parent="gUHsCTnRIOJ-MTFSnGW0-50" vertex="1">
          <mxGeometry x="392.2134631677546" y="265.438342430656" width="67.02106086503085" height="9.073187033530132" as="geometry" />
        </mxCell>
        <mxCell id="gUHsCTnRIOJ-MTFSnGW0-109" value="ISO" style="rounded=0;whiteSpace=wrap;html=1;fontSize=9;" parent="gUHsCTnRIOJ-MTFSnGW0-50" vertex="1">
          <mxGeometry x="392.2134631677546" y="298.1018157513648" width="67.02106086503085" height="9.073187033530132" as="geometry" />
        </mxCell>
        <mxCell id="gUHsCTnRIOJ-MTFSnGW0-110" value="템플릿" style="rounded=0;whiteSpace=wrap;html=1;fontSize=9;" parent="gUHsCTnRIOJ-MTFSnGW0-50" vertex="1">
          <mxGeometry x="392.2134631677546" y="281.7700790910108" width="67.02106086503085" height="9.073187033530132" as="geometry" />
        </mxCell>
        <mxCell id="gUHsCTnRIOJ-MTFSnGW0-111" value="VLAN" style="rounded=0;whiteSpace=wrap;html=1;fontSize=9;" parent="gUHsCTnRIOJ-MTFSnGW0-50" vertex="1">
          <mxGeometry x="392.2134631677546" y="314.43355241171884" width="67.02106086503085" height="9.073187033530132" as="geometry" />
        </mxCell>
        <mxCell id="gUHsCTnRIOJ-MTFSnGW0-112" value="GPU" style="rounded=0;whiteSpace=wrap;html=1;fontSize=9;" parent="gUHsCTnRIOJ-MTFSnGW0-50" vertex="1">
          <mxGeometry x="391.9810402341129" y="347.0970257324268" width="67.02106086503085" height="9.073187033530132" as="geometry" />
        </mxCell>
        <mxCell id="gUHsCTnRIOJ-MTFSnGW0-113" value="소프트웨어" style="rounded=0;whiteSpace=wrap;html=1;fontSize=9;" parent="gUHsCTnRIOJ-MTFSnGW0-50" vertex="1">
          <mxGeometry x="392.2134631677546" y="330.7652890720737" width="67.02106086503085" height="9.073187033530132" as="geometry" />
        </mxCell>
        <mxCell id="gUHsCTnRIOJ-MTFSnGW0-114" value="청구서" style="rounded=0;whiteSpace=wrap;html=1;fontSize=9;" parent="gUHsCTnRIOJ-MTFSnGW0-50" vertex="1">
          <mxGeometry x="296.8075552594224" y="249.106605770302" width="67.02106086503085" height="9.073187033530132" as="geometry" />
        </mxCell>
        <mxCell id="gUHsCTnRIOJ-MTFSnGW0-115" value="인증 &amp;amp; 권한" style="rounded=0;whiteSpace=wrap;html=1;fontSize=9;" parent="gUHsCTnRIOJ-MTFSnGW0-50" vertex="1">
          <mxGeometry x="105.3188099307628" y="249.106605770302" width="67.02106086503085" height="9.073187033530132" as="geometry" />
        </mxCell>
        <mxCell id="gUHsCTnRIOJ-MTFSnGW0-116" value="액션" style="rounded=0;whiteSpace=wrap;html=1;fontSize=9;" parent="gUHsCTnRIOJ-MTFSnGW0-50" vertex="1">
          <mxGeometry x="201.06318259509263" y="265.438342430656" width="67.02106086503085" height="9.073187033530132" as="geometry" />
        </mxCell>
        <mxCell id="gUHsCTnRIOJ-MTFSnGW0-117" value="컴퓨트" style="rounded=0;whiteSpace=wrap;html=1;fontSize=9;" parent="gUHsCTnRIOJ-MTFSnGW0-50" vertex="1">
          <mxGeometry x="200.90041716156313" y="216.44313244959315" width="67.02106086503085" height="9.073187033530132" as="geometry" />
        </mxCell>
        <mxCell id="gUHsCTnRIOJ-MTFSnGW0-118" value="네트워크" style="rounded=0;whiteSpace=wrap;html=1;fontSize=9;" parent="gUHsCTnRIOJ-MTFSnGW0-50" vertex="1">
          <mxGeometry x="200.90041716156313" y="232.774869109948" width="67.02106086503085" height="9.073187033530132" as="geometry" />
        </mxCell>
        <mxCell id="gUHsCTnRIOJ-MTFSnGW0-119" value="인증 &amp;amp; 권한" style="rounded=0;whiteSpace=wrap;html=1;fontSize=9;" parent="gUHsCTnRIOJ-MTFSnGW0-50" vertex="1">
          <mxGeometry x="200.90041716156313" y="249.106605770302" width="67.02106086503085" height="9.073187033530132" as="geometry" />
        </mxCell>
        <mxCell id="wxVyQ4bQVQ6LdnxC2vAn-2" value="" style="rounded=0;whiteSpace=wrap;html=1;fillColor=none;container=0;" parent="1" vertex="1">
          <mxGeometry x="744.0600000000001" y="3570" width="200" height="110" as="geometry" />
        </mxCell>
        <mxCell id="wxVyQ4bQVQ6LdnxC2vAn-3" value="Web Server(DR)" style="rounded=0;whiteSpace=wrap;html=1;fillColor=#000075;fontColor=#ffffff;fontStyle=1;fontSize=16;container=0;" parent="1" vertex="1">
          <mxGeometry x="743.6" y="3570" width="200" height="30" as="geometry" />
        </mxCell>
        <mxCell id="wxVyQ4bQVQ6LdnxC2vAn-4" value="Admin Portal" style="sketch=0;pointerEvents=1;shadow=0;dashed=0;html=1;strokeColor=none;labelPosition=center;verticalLabelPosition=bottom;verticalAlign=top;align=center;fillColor=#505050;shape=mxgraph.mscae.intune.company_portal;container=0;" parent="1" vertex="1">
          <mxGeometry x="782.25" y="3610" width="40" height="40" as="geometry" />
        </mxCell>
        <mxCell id="wxVyQ4bQVQ6LdnxC2vAn-5" value="DR User" style="sketch=0;pointerEvents=1;shadow=0;dashed=0;html=1;strokeColor=none;labelPosition=center;verticalLabelPosition=bottom;verticalAlign=top;align=center;fillColor=#505050;shape=mxgraph.mscae.intune.company_portal;container=0;" parent="1" vertex="1">
          <mxGeometry x="862.2499999999999" y="3610" width="40" height="40" as="geometry" />
        </mxCell>
        <mxCell id="wxVyQ4bQVQ6LdnxC2vAn-6" value="" style="shape=flexArrow;endArrow=classic;html=1;rounded=0;fillColor=#000075;strokeColor=none;width=18.77777777777778;endSize=9.203333333333333;entryX=0.5;entryY=0;entryDx=0;entryDy=0;exitX=0.5;exitY=1;exitDx=0;exitDy=0;" parent="1" source="wxVyQ4bQVQ6LdnxC2vAn-2" target="gUHsCTnRIOJ-MTFSnGW0-27" edge="1">
          <mxGeometry width="50" height="50" relative="1" as="geometry">
            <mxPoint x="840" y="3680" as="sourcePoint" />
            <mxPoint x="840" y="3740" as="targetPoint" />
            <Array as="points" />
          </mxGeometry>
        </mxCell>
      </root>
    </mxGraphModel>
  </diagram>
</mxfile>
